<?xml version="1.0" encoding="UTF-8"?>
<svg width="808px" height="920px" viewBox="0 0 808 920" version="1.1" xmlns="http://www.w3.org/2000/svg" xmlns:xlink="http://www.w3.org/1999/xlink">
    <!-- Generator: Sketch 52.6 (67491) - http://www.bohemiancoding.com/sketch -->
    <title>Background Pattern</title>
    <desc>Created with Sketch.</desc>
    <defs>
        <polygon id="path-1" points="0.542110795 0.0203463687 800.763262 0.0203463687 800.763262 606.995955 0.542110795 606.995955"></polygon>
        <polygon id="path-3" points="0.761661055 0.1025 135.769348 0.1025 135.769348 173.609053 0.761661055 173.609053"></polygon>
    </defs>
    <g id="People-+-Culture" stroke="none" stroke-width="1" fill="none" fill-rule="evenodd" opacity="0.8">
        <g transform="translate(-852.000000, 0.000000)" id="Background-Pattern">
            <g transform="translate(1516.500000, 539.000000) rotate(-90.000000) translate(-1516.500000, -539.000000) translate(977.000000, -126.000000)">
                <path d="M1078,1183.19467 C1057.58474,1182.10356 1036.97047,1179.38938 1016.59603,1175.10312 C1015.88338,1174.95016 1015.18093,1174.8023 1014.45977,1174.63914 C986.996196,1168.46468 957.767145,1153.92333 935.764992,1136.60152 C925.51569,1128.53375 913.002561,1117.17736 912.271196,1103.12379 C911.35444,1085.58953 931.30197,1066.87919 941.0036,1054.27023 C963.793245,1024.64538 992.153163,987.778744 992.153163,943.723015 C992.153163,915.056709 980.078853,887.999877 957.231379,865.477444 C902.188577,811.205722 806.498941,814.800269 741.278272,834.370585 C703.68956,845.653896 663.962883,855.699934 628.114137,852.851489 C599.473579,850.577491 573.802699,838.194572 565.682857,822.737167 C563.458149,818.505288 562.330488,813.539203 562.330488,807.974877 C562.330488,799.128721 565.20662,789.558556 570.426518,781.025117 C580.623094,764.354233 600.431155,748.39886 626.195582,736.097519 C676.428389,712.116872 739.203239,706.299313 794.115076,720.539841 C810.802083,724.866894 827.941515,731.18922 846.08955,737.885446 C871.833566,747.38083 898.371877,757.170237 928.376514,763.292015 C974.648049,772.738112 1027.50186,772.190857 1078,761.823604 L1078,639.167098 C1073.16619,640.370379 1068.57221,641.546468 1064.12789,642.710659 C1027.15829,652.391295 988.6103,654.009266 955.583258,647.265453 C935.593207,643.186533 914.863287,635.538559 892.917262,627.443604 C872.495195,619.9078 851.380884,612.117064 828.208548,606.110855 C742.058961,583.770274 647.291183,592.611332 568.20011,630.370229 C519.953892,653.400827 482.480837,685.150116 459.82896,722.181606 C443.582473,748.73877 434.998299,778.402712 435,807.978277 C435,831.799166 440.497137,854.340294 451.336633,874.974528 C479.41421,928.425368 543.015673,965.292001 617.318862,971.192838 C675.530341,975.815613 730.030573,962.508138 780.254876,947.438231 C808.318847,939.016962 836.932191,938.714442 852.838509,942.150931 C859.043198,943.491876 862.026483,950.585797 858.641799,955.951275 C852.8198,965.188328 843.635228,977.127665 837.558103,985.030572 C815.09502,1014.22714 787.146707,1050.55671 785.90849,1093.95132 C785.871072,1095.28546 785.850661,1096.62811 785.850661,1097.95885 C785.850661,1194.76691 885.846842,1267.89514 984.628618,1290.09975 C985.93827,1290.39208 987.251323,1290.681 988.579685,1290.95972 C1005.25649,1294.4676 1038.10834,1300.32084 1078,1302 L1078,1183.19467 Z" id="Fill-1" fill="#EBC617"></path>
                <g id="Group-5" transform="translate(277.500000, 0.500000)">
                    <mask id="mask-2" fill="white">
                        <use xlink:href="#path-1"></use>
                    </mask>
                    <g id="Clip-4"></g>
                    <path d="M503.705586,41.0694844 C453.593061,68.7693698 414.849734,107.756403 377.384761,145.456529 C351.057793,171.952588 326.192774,196.97523 299.019237,216.426359 C267.937538,238.676808 230.016981,256.088213 186.31323,268.173956 C181.074015,269.620244 175.785503,270.997015 170.479991,272.378873 L170.005707,272.502646 C135.959314,281.361794 97.3723805,291.399336 63.5724779,319.138219 C24.1032761,351.533029 0.542110795,402.385387 0.542110795,455.172345 C0.542110795,460.06056 0.749503448,464.987772 1.157489,469.820035 C4.01168788,503.454278 16.7731358,533.789018 37.092516,555.237482 C49.9967588,568.861071 66.5184735,579.692121 87.6045265,588.352892 C157.400654,617.036185 240.752101,612.604068 335.34185,575.176923 C363.892339,563.879602 391.276669,550.808755 417.758331,538.166878 C455.264102,520.265465 490.689147,503.355937 527.168155,492.219691 C596.080313,471.190023 674.590332,468.124504 781.735836,482.273708 C788.289104,483.143515 794.453086,483.947197 800.763262,484.694926 L800.763262,365.356691 C799.073522,365.136272 797.465379,364.924331 795.949033,364.722563 C719.414344,354.610417 604.982898,345.035755 495.386081,378.48349 C451.031252,392.020607 410.173199,411.524297 370.658099,430.388772 C344.717018,442.771233 320.214086,454.467004 295.202872,464.360426 C227.759461,491.048079 171.868841,495.663314 129.084757,478.078965 C125.089899,476.439387 121.93821,474.879498 119.724889,473.443384 L117.287175,471.86654 L116.211113,469.172342 C115.602535,467.656537 114.524773,464.365512 114.101488,459.35861 C113.985892,458.025923 113.928094,456.615241 113.928094,455.175736 C113.928094,438.951202 121.64922,422.131537 133.601497,412.321197 C148.305976,400.254104 172.137432,394.053549 197.367938,387.488454 C203.394225,385.920088 209.386512,384.356808 215.314202,382.718926 C271.56181,367.167518 321.279948,344.1083 363.089967,314.180487 C398.040729,289.162931 427.522785,259.49623 456.030775,230.806155 C489.296896,197.327901 520.718583,165.706253 556.713108,145.810895 C609.800527,116.464649 680.86991,110.65237 751.696201,129.862733 C770.874921,135.066317 786.808457,140.049482 800.763262,145.231023 L800.763262,21.0367888 C794.118198,19.0479313 787.218142,17.0845067 780.173592,15.1702525 C680.844411,-11.7683397 582.657589,-2.57178101 503.705586,41.0694844" id="Fill-3" fill="#EBC617" mask="url(#mask-2)"></path>
                </g>
                <path d="M160.5,692.5 C160.5,703.166667 176.5,703.166667 176.5,692.5 C176.5,681.833333 160.5,681.833333 160.5,692.5" id="Fill-8" fill="#241F20"></path>
                <path d="M202.5,668.5 C202.5,679.166667 218.5,679.166667 218.5,668.5 C218.5,657.833333 202.5,657.833333 202.5,668.5" id="Fill-10" fill="#241F20"></path>
                <path d="M238.5,710.5 C238.5,721.166667 254.5,721.166667 254.5,710.5 C254.5,699.833333 238.5,699.833333 238.5,710.5" id="Fill-12" fill="#241F20"></path>
                <path d="M197.5,731.5 C197.5,742.166667 213.5,742.166667 213.5,731.5 C213.5,720.833333 197.5,720.833333 197.5,731.5" id="Fill-14" fill="#241F20"></path>
                <path d="M158.5,728.5 C158.5,739.166667 174.5,739.166667 174.5,728.5 C174.5,717.833333 158.5,717.833333 158.5,728.5" id="Fill-16" fill="#241F20"></path>
                <path d="M200.5,700.5 C200.5,711.166667 216.5,711.166667 216.5,700.5 C216.5,689.833333 200.5,689.833333 200.5,700.5" id="Fill-18" fill="#241F20"></path>
                <path d="M233.5,775.5 C233.5,786.166667 249.5,786.166667 249.5,775.5 C249.5,764.833333 233.5,764.833333 233.5,775.5" id="Fill-20" fill="#241F20"></path>
                <path d="M251.5,754.5 C251.5,765.166667 267.5,765.166667 267.5,754.5 C267.5,743.833333 251.5,743.833333 251.5,754.5" id="Fill-22" fill="#241F20"></path>
                <path d="M186.5,778.5 C186.5,789.166667 202.5,789.166667 202.5,778.5 C202.5,767.833333 186.5,767.833333 186.5,778.5" id="Fill-26" fill="#241F20"></path>
                <path d="M1040.5,43.5 C1040.5,54.1666667 1056.5,54.1666667 1056.5,43.5 C1056.5,32.8333333 1040.5,32.8333333 1040.5,43.5" id="Fill-150" fill="#241F20"></path>
                <path d="M1040.5,80.5 C1040.5,91.1666667 1056.5,91.1666667 1056.5,80.5 C1056.5,69.8333333 1040.5,69.8333333 1040.5,80.5" id="Fill-152" fill="#241F20"></path>
                <path d="M1048.5,114.5 C1048.5,125.166667 1064.5,125.166667 1064.5,114.5 C1064.5,103.833333 1048.5,103.833333 1048.5,114.5" id="Fill-154" fill="#241F20"></path>
                <path d="M939.5,80.5 C939.5,91.1666667 955.5,91.1666667 955.5,80.5 C955.5,69.8333333 939.5,69.8333333 939.5,80.5" id="Fill-156" fill="#241F20"></path>
                <path d="M999.5,52.5 C999.5,63.1666667 1015.5,63.1666667 1015.5,52.5 C1015.5,41.8333333 999.5,41.8333333 999.5,52.5" id="Fill-158" fill="#241F20"></path>
                <path d="M985.5,98.5 C985.5,109.166667 1001.5,109.166667 1001.5,98.5 C1001.5,87.8333333 985.5,87.8333333 985.5,98.5" id="Fill-160" fill="#241F20"></path>
                <path d="M964.5,20.5 C964.5,31.1666667 980.5,31.1666667 980.5,20.5 C980.5,9.83333333 964.5,9.83333333 964.5,20.5" id="Fill-162" fill="#241F20"></path>
                <path d="M912.5,28.5 C912.5,39.1666667 928.5,39.1666667 928.5,28.5 C928.5,17.8333333 912.5,17.8333333 912.5,28.5" id="Fill-164" fill="#241F20"></path>
                <path d="M949.5,47.5 C949.5,58.1666667 965.5,58.1666667 965.5,47.5 C965.5,36.8333333 949.5,36.8333333 949.5,47.5" id="Fill-166" fill="#241F20"></path>
                <path d="M881.5,67.5 C881.5,78.1666667 897.5,78.1666667 897.5,67.5 C897.5,56.8333333 881.5,56.8333333 881.5,67.5" id="Fill-168" fill="#241F20"></path>
                <path d="M908.5,99.5 C908.5,110.166667 924.5,110.166667 924.5,99.5 C924.5,88.8333333 908.5,88.8333333 908.5,99.5" id="Fill-170" fill="#241F20"></path>
                <path d="M835.5,39.5 C835.5,50.1666667 851.5,50.1666667 851.5,39.5 C851.5,28.8333333 835.5,28.8333333 835.5,39.5" id="Fill-172" fill="#241F20"></path>
                <path d="M832.5,91.5 C832.5,102.166667 848.5,102.166667 848.5,91.5 C848.5,80.8333333 832.5,80.8333333 832.5,91.5" id="Fill-174" fill="#241F20"></path>
                <path d="M866.5,98.5 C866.5,109.166667 882.5,109.166667 882.5,98.5 C882.5,87.8333333 866.5,87.8333333 866.5,98.5" id="Fill-176" fill="#241F20"></path>
                <path d="M785.5,70.5 C785.5,81.1666667 801.5,81.1666667 801.5,70.5 C801.5,59.8333333 785.5,59.8333333 785.5,70.5" id="Fill-178" fill="#241F20"></path>
                <path d="M806.5,119.5 C806.5,130.166667 822.5,130.166667 822.5,119.5 C822.5,108.833333 806.5,108.833333 806.5,119.5" id="Fill-180" fill="#241F20"></path>
                <path d="M751.5,156.5 C751.5,167.166667 767.5,167.166667 767.5,156.5 C767.5,145.833333 751.5,145.833333 751.5,156.5" id="Fill-182" fill="#241F20"></path>
                <path d="M751.5,106.5 C751.5,117.166667 767.5,117.166667 767.5,106.5 C767.5,95.8333333 751.5,95.8333333 751.5,106.5" id="Fill-184" fill="#241F20"></path>
                <path d="M769.5,120.5 C769.5,131.166667 785.5,131.166667 785.5,120.5 C785.5,109.833333 769.5,109.833333 769.5,120.5" id="Fill-186" fill="#241F20"></path>
                <path d="M697.5,146.5 C697.5,157.166667 713.5,157.166667 713.5,146.5 C713.5,135.833333 697.5,135.833333 697.5,146.5" id="Fill-188" fill="#241F20"></path>
                <path d="M710.5,109.5 C710.5,120.166667 726.5,120.166667 726.5,109.5 C726.5,98.8333333 710.5,98.8333333 710.5,109.5" id="Fill-190" fill="#241F20"></path>
                <path d="M709.5,176.5 C709.5,187.166667 725.5,187.166667 725.5,176.5 C725.5,165.833333 709.5,165.833333 709.5,176.5" id="Fill-192" fill="#241F20"></path>
                <path d="M725.5,198.5 C725.5,209.166667 741.5,209.166667 741.5,198.5 C741.5,187.833333 725.5,187.833333 725.5,198.5" id="Fill-194" fill="#241F20"></path>
                <path d="M655.5,190.5 C655.5,201.166667 671.5,201.166667 671.5,190.5 C671.5,179.833333 655.5,179.833333 655.5,190.5" id="Fill-196" fill="#241F20"></path>
                <path d="M681.5,195.5 C681.5,206.166667 697.5,206.166667 697.5,195.5 C697.5,184.833333 681.5,184.833333 681.5,195.5" id="Fill-198" fill="#241F20"></path>
                <path d="M686.5,239.5 C686.5,250.166667 702.5,250.166667 702.5,239.5 C702.5,228.833333 686.5,228.833333 686.5,239.5" id="Fill-200" fill="#241F20"></path>
                <path d="M632.5,257.5 C632.5,268.166667 648.5,268.166667 648.5,257.5 C648.5,246.833333 632.5,246.833333 632.5,257.5" id="Fill-202" fill="#241F20"></path>
                <path d="M621.5,291.5 C621.5,302.166667 637.5,302.166667 637.5,291.5 C637.5,280.833333 621.5,280.833333 621.5,291.5" id="Fill-204" fill="#241F20"></path>
                <path d="M601.5,211.5 C601.5,222.166667 617.5,222.166667 617.5,211.5 C617.5,200.833333 601.5,200.833333 601.5,211.5" id="Fill-206" fill="#241F20"></path>
                <path d="M631.5,221.5 C631.5,232.166667 647.5,232.166667 647.5,221.5 C647.5,210.833333 631.5,210.833333 631.5,221.5" id="Fill-208" fill="#241F20"></path>
                <path d="M566.5,270.5 C566.5,281.166667 582.5,281.166667 582.5,270.5 C582.5,259.833333 566.5,259.833333 566.5,270.5" id="Fill-210" fill="#241F20"></path>
                <path d="M601.5,283.5 C601.5,294.166667 617.5,294.166667 617.5,283.5 C617.5,272.833333 601.5,272.833333 601.5,283.5" id="Fill-212" fill="#241F20"></path>
                <path d="M569.5,319.5 C569.5,330.166667 585.5,330.166667 585.5,319.5 C585.5,308.833333 569.5,308.833333 569.5,319.5" id="Fill-214" fill="#241F20"></path>
                <path d="M481.5,299.5 C481.5,310.166667 497.5,310.166667 497.5,299.5 C497.5,288.833333 481.5,288.833333 481.5,299.5" id="Fill-216" fill="#241F20"></path>
                <path d="M504.5,332.5 C504.5,343.166667 520.5,343.166667 520.5,332.5 C520.5,321.833333 504.5,321.833333 504.5,332.5" id="Fill-218" fill="#241F20"></path>
                <path d="M519.5,291.5 C519.5,302.166667 535.5,302.166667 535.5,291.5 C535.5,280.833333 519.5,280.833333 519.5,291.5" id="Fill-220" fill="#241F20"></path>
                <path d="M426.5,319.5 C426.5,330.166667 442.5,330.166667 442.5,319.5 C442.5,308.833333 426.5,308.833333 426.5,319.5" id="Fill-222" fill="#241F20"></path>
                <path d="M460.5,343.5 C460.5,354.166667 476.5,354.166667 476.5,343.5 C476.5,332.833333 460.5,332.833333 460.5,343.5" id="Fill-224" fill="#241F20"></path>
                <path d="M426.5,374.5 C426.5,385.166667 442.5,385.166667 442.5,374.5 C442.5,363.833333 426.5,363.833333 426.5,374.5" id="Fill-226" fill="#241F20"></path>
                <path d="M377.5,374.5 C377.5,385.166667 393.5,385.166667 393.5,374.5 C393.5,363.833333 377.5,363.833333 377.5,374.5" id="Fill-228" fill="#241F20"></path>
                <path d="M353.5,340.5 C353.5,351.166667 369.5,351.166667 369.5,340.5 C369.5,329.833333 353.5,329.833333 353.5,340.5" id="Fill-230" fill="#241F20"></path>
                <path d="M387.5,315.5 C387.5,326.166667 403.5,326.166667 403.5,315.5 C403.5,304.833333 387.5,304.833333 387.5,315.5" id="Fill-232" fill="#241F20"></path>
                <path d="M442.5,286.5 C442.5,297.166667 458.5,297.166667 458.5,286.5 C458.5,275.833333 442.5,275.833333 442.5,286.5" id="Fill-234" fill="#241F20"></path>
                <path d="M327.5,408.5 C327.5,419.166667 343.5,419.166667 343.5,408.5 C343.5,397.833333 327.5,397.833333 327.5,408.5" id="Fill-236" fill="#241F20"></path>
                <path d="M354.5,424.5 C354.5,435.166667 370.5,435.166667 370.5,424.5 C370.5,413.833333 354.5,413.833333 354.5,424.5" id="Fill-238" fill="#241F20"></path>
                <path d="M358.5,465.5 C358.5,476.166667 374.5,476.166667 374.5,465.5 C374.5,454.833333 358.5,454.833333 358.5,465.5" id="Fill-240" fill="#241F20"></path>
                <path d="M374.5,413.5 C374.5,424.166667 390.5,424.166667 390.5,413.5 C390.5,402.833333 374.5,402.833333 374.5,413.5" id="Fill-242" fill="#241F20"></path>
                <path d="M327.5,361.5 C327.5,372.166667 343.5,372.166667 343.5,361.5 C343.5,350.833333 327.5,350.833333 327.5,361.5" id="Fill-244" fill="#241F20"></path>
                <path d="M286.5,444.5 C286.5,455.166667 302.5,455.166667 302.5,444.5 C302.5,433.833333 286.5,433.833333 286.5,444.5" id="Fill-246" fill="#241F20"></path>
                <path d="M327.5,460.5 C327.5,471.166667 343.5,471.166667 343.5,460.5 C343.5,449.833333 327.5,449.833333 327.5,460.5" id="Fill-248" fill="#241F20"></path>
                <path d="M301.5,499.5 C301.5,510.166667 317.5,510.166667 317.5,499.5 C317.5,488.833333 301.5,488.833333 301.5,499.5" id="Fill-250" fill="#241F20"></path>
                <path d="M301.5,398.5 C301.5,409.166667 317.5,409.166667 317.5,398.5 C317.5,387.833333 301.5,387.833333 301.5,398.5" id="Fill-252" fill="#241F20"></path>
                <path d="M325.5,539.5 C325.5,550.166667 341.5,550.166667 341.5,539.5 C341.5,528.833333 325.5,528.833333 325.5,539.5" id="Fill-254" fill="#241F20"></path>
                <path d="M346.5,505.5 C346.5,516.166667 362.5,516.166667 362.5,505.5 C362.5,494.833333 346.5,494.833333 346.5,505.5" id="Fill-256" fill="#241F20"></path>
                <path d="M402.5,496.5 C402.5,507.166667 418.5,507.166667 418.5,496.5 C418.5,485.833333 402.5,485.833333 402.5,496.5" id="Fill-258" fill="#241F20"></path>
                <path d="M367.5,535.5 C367.5,546.166667 383.5,546.166667 383.5,535.5 C383.5,524.833333 367.5,524.833333 367.5,535.5" id="Fill-260" fill="#241F20"></path>
                <path d="M423.5,530.5 C423.5,541.166667 439.5,541.166667 439.5,530.5 C439.5,519.833333 423.5,519.833333 423.5,530.5" id="Fill-262" fill="#241F20"></path>
                <path d="M390.5,554.5 C390.5,565.166667 406.5,565.166667 406.5,554.5 C406.5,543.833333 390.5,543.833333 390.5,554.5" id="Fill-264" fill="#241F20"></path>
                <path d="M411.5,580.5 C411.5,591.166667 427.5,591.166667 427.5,580.5 C427.5,569.833333 411.5,569.833333 411.5,580.5" id="Fill-266" fill="#241F20"></path>
                <path d="M463.5,559.5 C463.5,570.166667 479.5,570.166667 479.5,559.5 C479.5,548.833333 463.5,548.833333 463.5,559.5" id="Fill-268" fill="#241F20"></path>
                <path d="M476.5,505.5 C476.5,516.166667 492.5,516.166667 492.5,505.5 C492.5,494.833333 476.5,494.833333 476.5,505.5" id="Fill-270" fill="#241F20"></path>
                <path d="M499.5,544.5 C499.5,555.166667 515.5,555.166667 515.5,544.5 C515.5,533.833333 499.5,533.833333 499.5,544.5" id="Fill-272" fill="#241F20"></path>
                <path d="M504.5,585.5 C504.5,596.166667 520.5,596.166667 520.5,585.5 C520.5,574.833333 504.5,574.833333 504.5,585.5" id="Fill-274" fill="#241F20"></path>
                <path d="M559.5,544.5 C559.5,555.166667 575.5,555.166667 575.5,544.5 C575.5,533.833333 559.5,533.833333 559.5,544.5" id="Fill-276" fill="#241F20"></path>
                <path d="M528.5,515.5 C528.5,526.166667 544.5,526.166667 544.5,515.5 C544.5,504.833333 528.5,504.833333 528.5,515.5" id="Fill-278" fill="#241F20"></path>
                <path d="M609.5,496.5 C609.5,507.166667 625.5,507.166667 625.5,496.5 C625.5,485.833333 609.5,485.833333 609.5,496.5" id="Fill-280" fill="#241F20"></path>
                <path d="M564.5,500.5 C564.5,511.166667 580.5,511.166667 580.5,500.5 C580.5,489.833333 564.5,489.833333 564.5,500.5" id="Fill-282" fill="#241F20"></path>
                <path d="M601.5,531.5 C601.5,542.166667 617.5,542.166667 617.5,531.5 C617.5,520.833333 601.5,520.833333 601.5,531.5" id="Fill-284" fill="#241F20"></path>
                <path d="M601.5,554.5 C601.5,565.166667 617.5,565.166667 617.5,554.5 C617.5,543.833333 601.5,543.833333 601.5,554.5" id="Fill-286" fill="#241F20"></path>
                <path d="M666.5,497.5 C666.5,508.166667 682.5,508.166667 682.5,497.5 C682.5,486.833333 666.5,486.833333 666.5,497.5" id="Fill-288" fill="#241F20"></path>
                <path d="M621.5,463.5 C621.5,474.166667 637.5,474.166667 637.5,463.5 C637.5,452.833333 621.5,452.833333 621.5,463.5" id="Fill-290" fill="#241F20"></path>
                <path d="M647.5,526.5 C647.5,537.166667 663.5,537.166667 663.5,526.5 C663.5,515.833333 647.5,515.833333 647.5,526.5" id="Fill-292" fill="#241F20"></path>
                <path d="M670.5,455.5 C670.5,466.166667 686.5,466.166667 686.5,455.5 C686.5,444.833333 670.5,444.833333 670.5,455.5" id="Fill-294" fill="#241F20"></path>
                <path d="M691.5,429.5 C691.5,440.166667 707.5,440.166667 707.5,429.5 C707.5,418.833333 691.5,418.833333 691.5,429.5" id="Fill-296" fill="#241F20"></path>
                <path d="M731.5,457.5 C731.5,468.166667 747.5,468.166667 747.5,457.5 C747.5,446.833333 731.5,446.833333 731.5,457.5" id="Fill-298" fill="#241F20"></path>
                <path d="M696.5,468.5 C696.5,479.166667 712.5,479.166667 712.5,468.5 C712.5,457.833333 696.5,457.833333 696.5,468.5" id="Fill-300" fill="#241F20"></path>
                <path d="M717.5,496.5 C717.5,507.166667 733.5,507.166667 733.5,496.5 C733.5,485.833333 717.5,485.833333 717.5,496.5" id="Fill-302" fill="#241F20"></path>
                <path d="M692.5,510.5 C692.5,521.166667 708.5,521.166667 708.5,510.5 C708.5,499.833333 692.5,499.833333 692.5,510.5" id="Fill-304" fill="#241F20"></path>
                <path d="M765.5,483.5 C765.5,494.166667 781.5,494.166667 781.5,483.5 C781.5,472.833333 765.5,472.833333 765.5,483.5" id="Fill-306" fill="#241F20"></path>
                <path d="M796.5,436.5 C796.5,447.166667 812.5,447.166667 812.5,436.5 C812.5,425.833333 796.5,425.833333 796.5,436.5" id="Fill-308" fill="#241F20"></path>
                <path d="M743.5,416.5 C743.5,427.166667 759.5,427.166667 759.5,416.5 C759.5,405.833333 743.5,405.833333 743.5,416.5" id="Fill-310" fill="#241F20"></path>
                <path d="M801.5,397.5 C801.5,408.166667 817.5,408.166667 817.5,397.5 C817.5,386.833333 801.5,386.833333 801.5,397.5" id="Fill-312" fill="#241F20"></path>
                <path d="M855.5,410.5 C855.5,421.166667 871.5,421.166667 871.5,410.5 C871.5,399.833333 855.5,399.833333 855.5,410.5" id="Fill-314" fill="#241F20"></path>
                <path d="M848.5,458.5 C848.5,469.166667 864.5,469.166667 864.5,458.5 C864.5,447.833333 848.5,447.833333 848.5,458.5" id="Fill-316" fill="#241F20"></path>
                <path d="M902.5,421.5 C902.5,432.166667 918.5,432.166667 918.5,421.5 C918.5,410.833333 902.5,410.833333 902.5,421.5" id="Fill-318" fill="#241F20"></path>
                <path d="M850.5,379.5 C850.5,390.166667 866.5,390.166667 866.5,379.5 C866.5,368.833333 850.5,368.833333 850.5,379.5" id="Fill-320" fill="#241F20"></path>
                <path d="M811.5,463.5 C811.5,474.166667 827.5,474.166667 827.5,463.5 C827.5,452.833333 811.5,452.833333 811.5,463.5" id="Fill-322" fill="#241F20"></path>
                <path d="M908.5,449.5 C908.5,460.166667 924.5,460.166667 924.5,449.5 C924.5,438.833333 908.5,438.833333 908.5,449.5" id="Fill-324" fill="#241F20"></path>
                <path d="M944.5,450.5 C944.5,461.166667 960.5,461.166667 960.5,450.5 C960.5,439.833333 944.5,439.833333 944.5,450.5" id="Fill-326" fill="#241F20"></path>
                <path d="M981.5,424.5 C981.5,435.166667 997.5,435.166667 997.5,424.5 C997.5,413.833333 981.5,413.833333 981.5,424.5" id="Fill-328" fill="#241F20"></path>
                <path d="M902.5,375.5 C902.5,386.166667 918.5,386.166667 918.5,375.5 C918.5,364.833333 902.5,364.833333 902.5,375.5" id="Fill-330" fill="#241F20"></path>
                <path d="M941.5,384.5 C941.5,395.166667 957.5,395.166667 957.5,384.5 C957.5,373.833333 941.5,373.833333 941.5,384.5" id="Fill-332" fill="#241F20"></path>
                <path d="M939.5,416.5 C939.5,427.166667 955.5,427.166667 955.5,416.5 C955.5,405.833333 939.5,405.833333 939.5,416.5" id="Fill-334" fill="#241F20"></path>
                <path d="M991.5,390.5 C991.5,401.166667 1007.5,401.166667 1007.5,390.5 C1007.5,379.833333 991.5,379.833333 991.5,390.5" id="Fill-336" fill="#241F20"></path>
                <path d="M1025.5,393.5 C1025.5,404.166667 1041.5,404.166667 1041.5,393.5 C1041.5,382.833333 1025.5,382.833333 1025.5,393.5" id="Fill-338" fill="#241F20"></path>
                <path d="M1050.5,384.5 C1050.5,395.166667 1066.5,395.166667 1066.5,384.5 C1066.5,373.833333 1050.5,373.833333 1050.5,384.5" id="Fill-340" fill="#241F20"></path>
                <path d="M1041.5,431.5 C1041.5,442.166667 1057.5,442.166667 1057.5,431.5 C1057.5,420.833333 1041.5,420.833333 1041.5,431.5" id="Fill-342" fill="#241F20"></path>
                <path d="M1056.5,463.5 C1056.5,474.166667 1072.5,474.166667 1072.5,463.5 C1072.5,452.833333 1056.5,452.833333 1056.5,463.5" id="Fill-344" fill="#241F20"></path>
                <path d="M1012.5,455.5 C1012.5,466.166667 1028.5,466.166667 1028.5,455.5 C1028.5,444.833333 1012.5,444.833333 1012.5,455.5" id="Fill-346" fill="#241F20"></path>
                <path d="M978.5,460.5 C978.5,471.166667 994.5,471.166667 994.5,460.5 C994.5,449.833333 978.5,449.833333 978.5,460.5" id="Fill-348" fill="#241F20"></path>
                <path d="M718.5,640.5 C718.5,651.166667 734.5,651.166667 734.5,640.5 C734.5,629.833333 718.5,629.833333 718.5,640.5" id="Fill-350" fill="#241F20"></path>
                <path d="M1046.5,666.5 C1046.5,677.166667 1062.5,677.166667 1062.5,666.5 C1062.5,655.833333 1046.5,655.833333 1046.5,666.5" id="Fill-352" fill="#241F20"></path>
                <path d="M1048.5,690.5 C1048.5,701.166667 1064.5,701.166667 1064.5,690.5 C1064.5,679.833333 1048.5,679.833333 1048.5,690.5" id="Fill-354" fill="#241F20"></path>
                <path d="M1043.5,741.5 C1043.5,752.166667 1059.5,752.166667 1059.5,741.5 C1059.5,730.833333 1043.5,730.833333 1043.5,741.5" id="Fill-356" fill="#241F20"></path>
                <path d="M968.5,702.5 C968.5,713.166667 984.5,713.166667 984.5,702.5 C984.5,691.833333 968.5,691.833333 968.5,702.5" id="Fill-358" fill="#241F20"></path>
                <path d="M1017.5,689.5 C1017.5,700.166667 1033.5,700.166667 1033.5,689.5 C1033.5,678.833333 1017.5,678.833333 1017.5,689.5" id="Fill-360" fill="#241F20"></path>
                <path d="M999.5,742.5 C999.5,753.166667 1015.5,753.166667 1015.5,742.5 C1015.5,731.833333 999.5,731.833333 999.5,742.5" id="Fill-362" fill="#241F20"></path>
                <path d="M934.5,731.5 C934.5,742.166667 950.5,742.166667 950.5,731.5 C950.5,720.833333 934.5,720.833333 934.5,731.5" id="Fill-364" fill="#241F20"></path>
                <path d="M970.5,679.5 C970.5,690.166667 986.5,690.166667 986.5,679.5 C986.5,668.833333 970.5,668.833333 970.5,679.5" id="Fill-366" fill="#241F20"></path>
                <path d="M908.5,661.5 C908.5,672.166667 924.5,672.166667 924.5,661.5 C924.5,650.833333 908.5,650.833333 908.5,661.5" id="Fill-368" fill="#241F20"></path>
                <path d="M915.5,708.5 C915.5,719.166667 931.5,719.166667 931.5,708.5 C931.5,697.833333 915.5,697.833333 915.5,708.5" id="Fill-370" fill="#241F20"></path>
                <path d="M868.5,715.5 C868.5,726.166667 884.5,726.166667 884.5,715.5 C884.5,704.833333 868.5,704.833333 868.5,715.5" id="Fill-372" fill="#241F20"></path>
                <path d="M853.5,663.5 C853.5,674.166667 869.5,674.166667 869.5,663.5 C869.5,652.833333 853.5,652.833333 853.5,663.5" id="Fill-374" fill="#241F20"></path>
                <path d="M871.5,676.5 C871.5,687.166667 887.5,687.166667 887.5,676.5 C887.5,665.833333 871.5,665.833333 871.5,676.5" id="Fill-376" fill="#241F20"></path>
                <path d="M840.5,697.5 C840.5,708.166667 856.5,708.166667 856.5,697.5 C856.5,686.833333 840.5,686.833333 840.5,697.5" id="Fill-378" fill="#241F20"></path>
                <path d="M810.053704,668.076643 C809.675606,667.700243 809.300868,667.323842 808.92445,666.947442 C805.661042,663.684186 800.211385,663.684186 796.946296,666.947442 C793.684568,670.210698 793.684568,675.661781 796.946296,678.923357 C797.324394,679.299757 797.699132,679.676158 798.07723,680.052558 C801.338958,683.315814 806.791976,683.315814 810.053704,680.052558 C813.315432,676.790982 813.315432,671.338219 810.053704,668.076643" id="Fill-380" fill="#241F20"></path>
                <path d="M811.5,627.5 C811.5,638.166667 827.5,638.166667 827.5,627.5 C827.5,616.833333 811.5,616.833333 811.5,627.5" id="Fill-382" fill="#241F20"></path>
                <path d="M853.5,629.5 C853.5,640.166667 869.5,640.166667 869.5,629.5 C869.5,618.833333 853.5,618.833333 853.5,629.5" id="Fill-384" fill="#241F20"></path>
                <path d="M741.5,606.5 C741.5,617.166667 757.5,617.166667 757.5,606.5 C757.5,595.833333 741.5,595.833333 741.5,606.5" id="Fill-386" fill="#241F20"></path>
                <path d="M767.5,632.5 C767.5,643.166667 783.5,643.166667 783.5,632.5 C783.5,621.833333 767.5,621.833333 767.5,632.5" id="Fill-388" fill="#241F20"></path>
                <path d="M751.5,673.5 C751.5,684.166667 767.5,684.166667 767.5,673.5 C767.5,662.833333 751.5,662.833333 751.5,673.5" id="Fill-390" fill="#241F20"></path>
                <path d="M798.5,695.5 C798.5,706.166667 814.5,706.166667 814.5,695.5 C814.5,684.833333 798.5,684.833333 798.5,695.5" id="Fill-392" fill="#241F20"></path>
                <path d="M689.5,686.5 C689.5,697.166667 705.5,697.166667 705.5,686.5 C705.5,675.833333 689.5,675.833333 689.5,686.5" id="Fill-394" fill="#241F20"></path>
                <path d="M673.5,637.5 C673.5,648.166667 689.5,648.166667 689.5,637.5 C689.5,626.833333 673.5,626.833333 673.5,637.5" id="Fill-396" fill="#241F20"></path>
                <path d="M694.5,611.5 C694.5,622.166667 710.5,622.166667 710.5,611.5 C710.5,600.833333 694.5,600.833333 694.5,611.5" id="Fill-398" fill="#241F20"></path>
                <path d="M600.5,643.5 C600.5,654.166667 616.5,654.166667 616.5,643.5 C616.5,632.833333 600.5,632.833333 600.5,643.5" id="Fill-400" fill="#241F20"></path>
                <path d="M648.5,673.5 C648.5,684.166667 664.5,684.166667 664.5,673.5 C664.5,662.833333 648.5,662.833333 648.5,673.5" id="Fill-402" fill="#241F20"></path>
                <path d="M634.5,702.5 C634.5,713.166667 650.5,713.166667 650.5,702.5 C650.5,691.833333 634.5,691.833333 634.5,702.5" id="Fill-404" fill="#241F20"></path>
                <path d="M587.5,682.5 C587.5,693.166667 603.5,693.166667 603.5,682.5 C603.5,671.833333 587.5,671.833333 587.5,682.5" id="Fill-406" fill="#241F20"></path>
                <path d="M543.5,671.5 C543.5,682.166667 559.5,682.166667 559.5,671.5 C559.5,660.833333 543.5,660.833333 543.5,671.5" id="Fill-408" fill="#241F20"></path>
                <path d="M566.5,721.5 C566.5,732.166667 582.5,732.166667 582.5,721.5 C582.5,710.833333 566.5,710.833333 566.5,721.5" id="Fill-410" fill="#241F20"></path>
                <path d="M512.5,708.5 C512.5,719.166667 528.5,719.166667 528.5,708.5 C528.5,697.833333 512.5,697.833333 512.5,708.5" id="Fill-412" fill="#241F20"></path>
                <path d="M493.5,762.5 C493.5,773.166667 509.5,773.166667 509.5,762.5 C509.5,751.833333 493.5,751.833333 493.5,762.5" id="Fill-414" fill="#241F20"></path>
                <path d="M527.5,770.5 C527.5,781.166667 543.5,781.166667 543.5,770.5 C543.5,759.833333 527.5,759.833333 527.5,770.5" id="Fill-416" fill="#241F20"></path>
                <path d="M532.5,742.5 C532.5,753.166667 548.5,753.166667 548.5,742.5 C548.5,731.833333 532.5,731.833333 532.5,742.5" id="Fill-418" fill="#241F20"></path>
                <path d="M462.5,729.5 C462.5,740.166667 478.5,740.166667 478.5,729.5 C478.5,718.833333 462.5,718.833333 462.5,729.5" id="Fill-420" fill="#241F20"></path>
                <path d="M442.5,781.5 C442.5,792.166667 458.5,792.166667 458.5,781.5 C458.5,770.833333 442.5,770.833333 442.5,781.5" id="Fill-422" fill="#241F20"></path>
                <path d="M507.5,799.5 C507.5,810.166667 523.5,810.166667 523.5,799.5 C523.5,788.833333 507.5,788.833333 507.5,799.5" id="Fill-424" fill="#241F20"></path>
                <path d="M535.5,804.5 C535.5,815.166667 551.5,815.166667 551.5,804.5 C551.5,793.833333 535.5,793.833333 535.5,804.5" id="Fill-426" fill="#241F20"></path>
                <path d="M308.501704,884.5 C260.453291,884.5 221.5,845.548031 221.5,797.499148 C221.5,749.451969 260.453291,710.5 308.501704,710.5 C356.548413,710.5 395.5,749.451969 395.5,797.499148 C395.5,845.548031 356.548413,884.5 308.501704,884.5" id="Fill-544" fill="#090C15"></path>
                <path d="M571.5,299.5 C523.451587,299.5 484.5,260.549735 484.5,212.499148 C484.5,164.450265 523.451587,125.5 571.5,125.5 C619.546709,125.5 658.5,164.450265 658.5,212.499148 C658.5,260.549735 619.546709,299.5 571.5,299.5" id="Fill-548" fill="#090C15"></path>
                <path d="M267.5,624.5 C219.451587,624.5 180.5,585.549735 180.5,537.500852 C180.5,489.451969 219.451587,450.5 267.5,450.5 C315.548413,450.5 354.5,489.451969 354.5,537.500852 C354.5,585.549735 315.548413,624.5 267.5,624.5" id="Fill-554" fill="#E2030C"></path>
                <path d="M269,569.5 C251.050815,569.5 236.5,554.949566 236.5,537.000852 C236.5,519.050434 251.050815,504.5 269,504.5 C286.949185,504.5 301.5,519.050434 301.5,537.000852 C301.5,554.949566 286.949185,569.5 269,569.5" id="Fill-556" fill="#090C15"></path>
                <path d="M889.5,705.5 C841.451587,705.5 802.5,666.548413 802.5,618.5 C802.5,570.451587 841.451587,531.5 889.5,531.5 C937.548413,531.5 976.5,570.451587 976.5,618.5 C976.5,666.548413 937.548413,705.5 889.5,705.5" id="Fill-558" fill="#E2030C"></path>
                <path d="M889,650.5 C871.050815,650.5 856.5,635.949185 856.5,618 C856.5,600.050815 871.050815,585.5 889,585.5 C906.949185,585.5 921.5,600.050815 921.5,618 C921.5,635.949185 906.949185,650.5 889,650.5" id="Fill-560" fill="#090C15"></path>
                <g id="Group-564" transform="translate(943.000000, 150.000000)">
                    <mask id="mask-4" fill="white">
                        <use xlink:href="#path-3"></use>
                    </mask>
                    <g id="Clip-563"></g>
                    <path d="M87.3579948,0.1025 C39.5332785,0.1025 0.761661055,38.9423058 0.761661055,86.8566262 C0.761661055,134.769248 39.5332785,173.609053 87.3579948,173.609053 C105.289507,173.609053 121.949041,168.148374 135.769517,158.796917 L135.769517,14.9146359 C121.949041,5.56317961 105.289507,0.1025 87.3579948,0.1025" id="Fill-562" fill="#E2030C" mask="url(#mask-4)"></path>
                </g>
                <path d="M1030,268.5 C1012.05082,268.5 997.5,253.949185 997.5,235.998297 C997.5,218.050815 1012.05082,203.5 1030,203.5 C1047.94918,203.5 1062.5,218.050815 1062.5,235.998297 C1062.5,253.949185 1047.94918,268.5 1030,268.5" id="Fill-565" fill="#090C15"></path>
            </g>
        </g>
    </g>
</svg>