<?xml version="1.0" encoding="UTF-8"?>
<svg width="1012px" height="1058px" viewBox="0 0 1012 1058" version="1.1" xmlns="http://www.w3.org/2000/svg" xmlns:xlink="http://www.w3.org/1999/xlink">
    <!-- Generator: Sketch 52.6 (67491) - http://www.bohemiancoding.com/sketch -->
    <title>Blob Pattern</title>
    <desc>Created with Sketch.</desc>
    <defs>
        <polygon id="path-1" points="0.416265101 0.197301449 492.491627 0.197301449 492.491627 567.041128 0.416265101 567.041128"></polygon>
        <polygon id="path-3" points="0.140920462 0.16406841 494.870813 0.16406841 494.870813 574.931213 0.140920462 574.931213"></polygon>
        <polygon id="path-5" points="0.629299192 0.558749498 259.564593 0.558749498 259.564593 334.699478 0.629299192 334.699478"></polygon>
        <polygon id="path-7" points="0.125425607 0.790464862 261.946729 0.790464862 261.946729 342.051607 0.125425607 342.051607"></polygon>
        <polygon id="path-9" points="0.342469555 0.442038562 63.0717703 0.442038562 63.0717703 118.06542 0.342469555 118.06542"></polygon>
        <polygon id="path-11" points="0.270343746 0.485590314 65.4976077 0.485590314 65.4976077 122.961638 0.270343746 122.961638"></polygon>
        <polygon id="path-13" points="0.912105395 0.26723536 82.4784689 0.26723536 82.4784689 127.824035 0.912105395 127.824035"></polygon>
        <polygon id="path-15" points="0.249614411 0.138181167 82.4784689 0.138181167 82.4784689 130.247587 0.249614411 130.247587"></polygon>
        <polygon id="path-17" points="0.775403655 0.854986271 26.6842105 0.854986271 26.6842105 26.0596952 0.775403655 26.0596952"></polygon>
        <polygon id="path-19" points="0.630755995 0.0398105838 16.9808612 0.0398105838 16.9808612 26.02267 0.630755995 26.02267"></polygon>
        <polygon id="path-21" points="0.624078047 0.573530519 6.2378674 0.573530519 6.2378674 26.1539467 0.624078047 26.1539467"></polygon>
        <polygon id="path-23" points="0.410514356 0.138181167 591.78511 0.138181167 591.78511 130.247587 0.410514356 130.247587"></polygon>
        <polygon id="path-25" points="0.488986789 0.906790322 416.425674 0.906790322 416.425674 47.7677294 0.488986789 47.7677294"></polygon>
        <polygon id="path-27" points="0.197669692 0.505294728 421.35653 0.505294728 421.35653 47.7960398 0.197669692 47.7960398"></polygon>
        <polygon id="path-29" points="0.912105395 0.553451441 82.4784689 0.553451441 82.4784689 341.621069 0.912105395 341.621069"></polygon>
        <polygon id="path-31" points="0.249614411 0.420642918 82.4784689 0.420642918 82.4784689 343.903928 0.249614411 343.903928"></polygon>
    </defs>
    <g id="Stories-+-Services" stroke="none" stroke-width="1" fill="none" fill-rule="evenodd">
        <g id="Services-Page" transform="translate(-646.000000, -22.000000)">
            <g id="Blob-Pattern" transform="translate(646.000000, 22.000000)">
                <g>
                    <g id="Group-3" transform="translate(519.129187, 305.752294)">
                        <mask id="mask-2" fill="white">
                            <use xlink:href="#path-1"></use>
                        </mask>
                        <g id="Clip-2"></g>
                        <path d="M723.182415,326.980408 C734.034579,316.179251 749.228572,325.900388 770.933863,332.381466 C792.638191,338.861585 816.514879,318.34025 814.344446,302.139953 C812.174014,285.938696 818.685312,250.296125 845.816685,239.494967 C872.949022,228.69381 875.118491,220.053652 874.034239,199.532316 C872.949022,179.010981 834.963558,190.892158 816.514879,184.41108 C798.065237,177.930961 794.809588,164.970723 793.724371,141.208369 C792.638191,117.447934 757.910303,122.848033 754.654654,139.04833 C751.462614,154.935939 737.290228,169.719549 725.352848,169.290802 C713.414504,168.862056 694.423217,121.740197 670.818315,120.957518 C646.399019,120.147024 613.841564,155.789596 591.050092,145.258923 C568.260548,134.72825 586.981012,116.097429 556.864812,112.85737 C526.748612,109.616351 526.748612,111.236381 525.120787,84.5044519 C523.492963,57.7734822 503.958104,52.1028986 460.004913,59.3935119 C416.051722,66.6841252 391.632426,35.9016424 372.098531,12.4097729 C352.563672,-11.0811375 319.190859,0.25907047 269.540764,38.3321665 C219.889705,76.4043034 185.703461,120.957518 230.470083,153.359072 C275.238632,185.761584 333.842244,184.952049 336.284463,209.253454 C338.726681,233.554858 280.122105,247.325591 229.657616,254.616204 C179.191199,261.905858 143.378095,290.258776 166.982033,320.229805 C190.587899,350.201793 207.680539,360.732466 181.634382,388.27393 C155.587261,415.816353 112.4475,433.637639 76.6343957,443.357818 C40.8203275,453.078955 35.1224596,466.039193 50.5882387,481.429955 C66.0530541,496.821676 70.9365278,508.162843 48.14602,514.642002 C25.3555122,521.12308 -16.1554602,542.184426 7.44847806,562.435277 C31.0524163,582.687087 136.865833,531.653753 158.028516,496.821676 C179.191199,461.989598 218.26188,419.866907 259.772852,417.436383 C301.284789,415.005859 309.423911,432.828104 326.517515,446.598836 C343.610155,460.368609 372.911961,458.749539 411.168248,424.726996 C449.423571,390.705413 466.244425,412.295259 490.121113,414.196324 C510.469402,415.816353 525.935181,406.90571 542.213427,389.084425 C558.492637,371.263139 584.538794,397.184573 583.725363,346.961734 C582.910969,296.738895 586.981012,280.537638 620.352862,284.588192 C653.725675,288.637787 674.888358,325.900388 683.027481,340.481615 C691.166604,355.061882 712.329287,337.781565 723.182415,326.980408" id="Fill-1" fill="#090C15" mask="url(#mask-2)"></path>
                    </g>
                    <g id="Group-6" transform="translate(516.703349, 303.325688)">
                        <mask id="mask-4" fill="white">
                            <use xlink:href="#path-3"></use>
                        </mask>
                        <g id="Clip-5"></g>
                        <path d="M726.833066,332.840387 C742.764434,321.149781 763.369581,338.652992 779.586488,339.751271 C789.705776,340.436012 799.965905,336.445856 807.541383,329.832143 C823.522913,315.882469 816.252267,298.775484 821.309982,280.43462 C827.613073,257.58235 841.622837,250.870542 860.714432,240.11857 C866.221679,237.016077 871.712526,233.397144 875.016488,227.85959 C880.543993,218.59539 882.413505,199.954471 873.526088,192.281909 C860.359437,180.914439 835.063146,190.62776 819.672953,185.341213 C789.543713,174.991237 810.942776,140.701293 789.207047,128.321137 C777.823089,121.838217 763.37344,127.77296 756.619852,137.75556 C751.648957,145.1021 751.208107,154.618269 744.386028,161.245446 C734.438449,170.911643 725.843325,170.724108 717.824102,161.588778 C710.38657,153.11607 704.653593,143.27388 696.780035,135.135849 C682.301446,120.171565 669.307469,119.320447 650.579551,127.884518 C639.12035,133.123941 628.603622,140.894597 616.60614,144.924183 C604.681007,148.929725 593.971347,149.009548 585.869163,137.774794 C582.685784,133.359561 582.194772,127.746031 579.06059,123.649126 C566.758275,107.5731 537.403658,120.270622 530.803451,100.53527 C525.818085,85.6267661 531.740136,70.7201853 515.304251,61.5435019 C493.389095,49.308565 465.439023,62.7821906 442.296819,60.2596125 C408.525985,56.5772062 395.224282,30.5503161 372.722613,10.0994489 C336.657817,-22.6767563 273.956817,34.2336841 249.220029,56.8686058 C217.159538,86.2018716 189.722666,129.821412 234.531144,161.01752 C257.813224,177.226263 284.98385,183.878445 311.103961,193.877394 C316.716356,196.024904 324.499236,197.736756 328.632807,202.124099 C335.362278,209.270603 333.477331,221.896958 326.106361,228.785721 C314.763883,239.383819 292.798565,243.308578 278.317082,246.792871 C247.853105,254.121138 156.327085,256.335968 159.503712,306.7029 C161.58352,339.67818 213.888375,353.950991 182.411504,389.620996 C158.567027,416.641338 121.429529,431.744108 87.6307204,441.983487 C74.2508799,446.037115 45.2010949,450.52063 42.4016503,468.603755 C41.5990528,473.789322 43.9180965,478.170895 46.6249338,482.360125 C49.6809781,487.087915 57.0982523,491.172318 58.9040967,496.358847 C60.6935418,501.50306 55.6030286,512.720502 52.4707761,515.188263 C50.2453045,516.941469 45.2879144,517.480991 42.5839711,518.472519 C28.4102151,523.67155 3.24511777,533.516625 0.38104088,550.990023 C-1.51644624,562.56907 8.1378756,571.275475 18.5369153,573.604749 C54.3557227,581.632183 103.445364,551.39779 131.118578,532.010579 C177.890141,499.241106 196.675938,429.287889 262.009497,424.257158 C277.914818,423.031933 293.757437,425.773782 306.975215,434.911036 C315.58288,440.862127 321.868607,449.883975 330.789787,455.421529 C347.048175,465.51088 366.528528,461.648633 382.776304,453.570228 C412.151179,438.964664 431.5669,405.772998 468.03203,414.875629 C488.100826,419.886164 504.579156,425.000564 524.127036,413.836015 C535.361471,407.419454 543.169433,394.080468 555.102283,389.640231 C561.800885,387.146504 569.893422,388.913174 576.341212,385.499086 C590.785073,377.854415 588.401397,356.857293 588.42262,343.413481 C588.441913,329.965822 586.337024,309.840976 595.021862,298.309052 C603.487722,287.069491 622.093128,289.677661 633.588022,293.690898 C649.016801,299.077463 661.156089,311.92405 670.561528,324.778331 C675.517953,331.552651 679.952498,344.62428 686.866219,349.718484 C700.199756,359.540478 718.290998,341.235197 726.876476,332.926942 C728.723801,331.139114 726.865865,326.447868 724.666439,328.543445 C714.271258,338.455841 699.926757,353.140265 685.916029,340.018627 C679.799117,334.290653 675.900924,323.366534 670.501719,316.534511 C658.398124,301.217278 642.693452,288.17931 622.779002,285.402839 C583.05332,279.865284 583.853988,317.659718 583.828907,347.176671 C583.815401,362.929561 583.655268,378.393937 566.167903,382.074419 C560.169644,383.338113 554.709666,383.137114 549.105953,386.079962 C538.761899,391.511728 532.261053,402.529133 521.872624,408.438871 C506.335803,417.279916 491.476173,415.947941 475.02196,411.150907 C459.199599,406.536599 445.872815,405.038248 430.668801,413.043562 C403.272445,427.468324 379.083584,463.773061 343.35256,454.881045 C325.432063,450.421573 315.604102,431.47002 299.020625,423.950371 C277.839575,414.347648 251.199512,417.303959 230.802731,427.278866 C185.442467,449.462744 169.777346,497.705248 130.727891,525.778667 C110.809582,540.098602 88.4902329,551.651683 65.4010849,559.967631 C55.5171738,563.526938 45.2454693,566.719832 34.7837267,568.000836 C19.7919386,569.83675 -1.24827063,563.694277 9.64274591,544.710986 C21.2514698,524.475543 53.4238607,530.404516 65.269891,513.676447 C73.8138887,501.612695 59.6999416,492.649512 54.102017,483.599775 C40.5639721,461.709221 61.0678301,455.571557 79.2941247,450.069586 C95.0238781,445.321599 110.551053,440.458207 125.595897,433.779097 C149.072839,423.356993 174.571709,409.280372 190.288921,388.423661 C199.670244,375.9733 201.274475,364.587558 193.472301,351.127396 C187.249276,340.393696 177.353789,332.294133 170.582838,321.997052 C155.179139,298.566792 174.366236,280.679857 195.084248,271.232931 C223.461665,258.294981 256.482957,258.183422 286.497403,250.256968 C302.452886,246.041772 328.691651,240.019513 337.78647,224.095438 C354.54648,194.746784 298.410959,184.236202 281.960604,178.324541 C248.006486,166.121341 198.724877,143.648949 219.884704,99.8053288 C235.13888,68.1985689 270.556388,42.8920033 299.497167,24.7396347 C322.828445,10.1061809 352.605583,-5.01197715 374.556432,19.2213147 C388.666521,34.7953256 401.35277,51.3300897 421.183295,60.0547672 C447.528172,71.6472785 472.638284,59.1459466 499.641059,62.642742 C516.568921,64.8354519 523.792298,73.3350881 525.59139,90.3266668 C526.210702,96.1815871 525.472737,104.136893 528.879918,109.356119 C536.613601,121.205409 554.263028,114.948491 565.376881,119.672435 C582.239146,126.840096 577.773733,148.532537 597.970829,152.567893 C619.979557,156.96293 639.937417,135.873484 659.485297,129.47808 C689.837373,119.548374 700.182392,150.842576 717.540492,168.267888 C727.321185,178.086997 737.147216,175.718294 746.987717,165.772238 C752.042538,160.663609 754.448401,155.018342 757.591265,148.824898 C762.113593,139.909801 765.776409,130.379207 777.702506,130.898533 C790.612557,131.460174 792.771467,147.349628 795.388591,157.884253 C799.345628,173.807366 803.227422,185.848037 820.674271,190.767208 C828.429176,192.953186 836.700175,192.459826 844.662482,192.536764 C850.524724,192.593505 859.759418,191.026871 864.974373,193.754295 C877.320097,200.209325 876.526182,216.903734 870.068745,226.255449 C862.962091,236.548684 849.827274,238.202834 839.968445,244.903101 C832.030254,250.300245 826.3021,257.724684 822.144413,266.315683 C812.875956,285.473044 819.842733,316.81437 800.818665,329.060848 C774.885698,345.755257 748.265892,311.331634 724.710813,328.630961 C722.676344,330.123543 724.450355,334.588785 726.833066,332.840387" id="Fill-4" fill="#EBC617" mask="url(#mask-4)"></path>
                    </g>
                    <g id="Group-9" transform="translate(749.583732, 363.990826)">
                        <mask id="mask-6" fill="white">
                            <use xlink:href="#path-5"></use>
                        </mask>
                        <g id="Clip-8"></g>
                        <path d="M58.2611957,29.3148686 C52.7728465,42.770529 52.3392775,58.2248033 62.9064405,68.16962 C73.4726422,78.1134718 88.2082203,81.8713676 102.139148,85.8570147 C116.067192,89.8426618 197.134021,126.361033 173.574208,197.309411 C157.337001,246.210309 74.5224368,207.09017 42.0470607,228.280688 C9.57168472,249.471206 37.1749372,262.511895 32.303775,288.59231 C27.4326128,314.67176 -16.4097697,322.822553 7.94700263,330.973346 C32.303775,339.123174 63.1563916,334.233277 84.2657225,313.042759 C105.375053,291.852241 110.246216,314.67176 137.850429,321.192587 C165.455605,327.71245 167.078364,296.742138 199.555663,288.59231 C232.031039,280.441517 259.636214,303.262001 287.240428,275.55162 C314.844642,247.840275 308.349759,194.04948 329.45909,184.268721 C350.56842,174.488928 394.410803,169.599031 422.015017,195.679445 C449.620192,221.75986 490.214172,225.019791 504.82862,211.980067 C519.443067,198.940342 540.552398,205.459239 543.79984,179.378824 C547.047281,153.29841 521.066788,166.338135 499.957457,146.778547 C478.848126,127.217995 452.867633,110.917374 435.005744,115.807271 C417.143855,120.697168 378.172634,130.477926 344.073537,123.957099 C309.973479,117.437236 279.120863,89.7268561 264.506415,66.9063726 C249.892928,44.0858891 219.040312,60.3855451 188.187695,65.276407 C157.337001,70.1663038 126.484384,40.8259579 121.612261,14.7445781 C116.741099,-11.3358366 69.6041684,1.50315833 58.2611957,29.3148686" id="Fill-7" fill="#02B3E6" mask="url(#mask-6)"></path>
                    </g>
                    <g id="Group-12" transform="translate(749.583732, 361.564220)">
                        <mask id="mask-8" fill="white">
                            <use xlink:href="#path-7"></use>
                        </mask>
                        <g id="Clip-11"></g>
                        <path d="M58.0975614,32.138646 C48.6162497,59.1782701 59.1907781,77.049397 85.6812286,86.9302262 C107.91287,95.2240142 127.530843,101.217462 146.229587,116.99412 C171.32911,138.170778 196.914829,190.677482 162.269233,216.147463 C138.687261,233.484099 99.8891805,222.033626 72.9763289,222.770122 C54.6265255,223.27465 27.5570859,230.16697 25.0371777,252.360417 C23.9932571,261.551144 29.4284101,269.752145 30.9430615,278.526298 C35.9200494,307.3627 14.8676517,306.469627 2.7436745,323.393555 C-6.17218022,335.838587 9.67608019,339.363519 20.4429607,341.097473 C35.2250689,343.478034 50.7717523,341.350703 64.4567773,335.311828 C70.7096681,332.55142 76.4947278,328.82835 81.8206557,324.567888 C94.2114126,314.655164 102.00312,310.01679 116.907019,318.461356 C141.751361,332.539822 154.649579,331.656414 174.87554,312.417648 C191.77932,296.342333 210.294411,292.894723 232.887558,295.149636 C248.782214,296.736677 264.657539,299.569574 279.351688,291.429464 C304.27819,277.619694 310.435389,248.064194 317.07395,222.80685 C322.648292,201.598297 328.45945,190.466779 351.025532,185.895095 C373.053222,181.434563 397.465498,183.519366 416.399123,196.525951 C440.492423,213.077766 466.506343,235.16586 498.51024,224.86749 C509.29162,221.398617 518.871524,214.001768 529.270132,209.387557 C538.525261,205.279807 545.389039,201.189455 548.700587,190.990638 C556.605385,166.632166 539.663908,164.47294 521.741339,157.78359 C490.051584,145.957138 471.764609,109.092743 433.454658,117.8437 C382.753951,129.422721 334.433962,132.904159 292.715804,96.1315852 C280.116263,85.0251969 271.072818,63.5605139 254.909448,57.5226053 C240.065478,51.9766602 221.793002,58.9984956 207.228377,62.408411 C175.979389,69.7260044 147.313138,62.5630557 131.168133,32.4131404 C126.054856,22.8667304 126.120584,10.0360538 115.752906,4.21174813 C94.5642191,-7.69009381 66.6789749,13.8586772 57.9941359,32.0767882 C56.9405494,34.2872407 59.7195046,37.1220712 61.0968997,34.3751949 C68.3540807,19.9062511 85.452146,6.84167438 102.452585,7.40516097 C121.197725,8.02760585 121.838577,28.4184747 130.261469,41.1360674 C144.415291,62.5050639 168.111321,75.9108255 193.83623,71.7924441 C209.488272,69.2891332 224.838737,62.704169 240.773991,62.4180763 C262.306785,62.0324311 271.306733,83.7078174 285.14738,96.9966289 C308.479004,119.398845 336.910373,132.871297 369.454596,133.433817 C399.644199,133.955743 438.192898,114.974074 466.095541,127.797018 C483.886653,135.97289 495.676189,151.694456 512.507475,160.69381 C517.430334,163.325669 522.6857,164.190713 527.792212,166.223324 C529.728297,166.992682 532.464723,166.816773 534.249053,167.912818 C549.52799,177.293951 542.788903,194.988203 531.702081,201.627293 C507.590416,216.063375 482.288875,225.634915 454.50319,214.693803 C437.364528,207.945495 426.211976,193.896992 410.1356,185.808108 C397.838603,179.621354 383.895497,177.288152 370.230771,177.402202 C352.63201,177.549115 329.761451,180.331753 320.413529,197.148396 C305.98906,223.094876 310.50305,255.64565 287.479769,277.697016 C259.413772,304.574263 221.411198,277.912552 189.386035,294.293291 C180.028448,299.081477 173.670198,306.859138 165.951952,313.689601 C148.487548,329.140538 132.900268,320.336423 115.020229,310.613138 C90.6814146,297.379419 79.653554,324.08849 57.1213023,331.948306 C49.4214217,334.635258 2.07092571,341.371 8.55579879,325.500589 C11.1453017,319.161123 24.7597655,313.537856 29.3781473,307.185825 C46.4172504,283.756188 17.0163882,255.36439 42.6833012,236.419449 C62.6386157,221.689542 95.0939121,229.775526 118.068863,230.305184 C138.475577,230.774917 162.964213,229.581254 174.233722,209.684281 C184.76282,191.09599 183.926717,165.700432 175.354003,146.638541 C166.204233,126.295032 148.651869,110.685584 129.799437,99.4245506 C102.322095,83.0138494 45.3114679,80.1132949 60.9925077,34.313337 C61.7164859,32.1985709 59.0631879,29.3869371 58.0975614,32.138646" id="Fill-10" fill="#E33314" mask="url(#mask-8)"></path>
                    </g>
                    <g id="Group-15" transform="translate(948.502392, 485.321101)">
                        <mask id="mask-10" fill="white">
                            <use xlink:href="#path-9"></use>
                        </mask>
                        <g id="Clip-14"></g>
                        <path d="M31.03041,72.3791772 C34.5384018,51.6783383 3.10963851,31.730556 13.0569577,13.0820138 C20.8708493,-1.56633834 39.4720158,-6.46458952 63.1459548,14.7621323 C86.8198937,35.9888541 125.71215,35.9888541 95.2745143,60.4810766 C64.8368789,84.9732992 41.1629399,122.528492 10.7243033,117.63024 C-19.7143332,112.731989 25.9696513,102.238499 31.03041,72.3791772" id="Fill-13" fill="#110906" mask="url(#mask-10)"></path>
                    </g>
                    <g id="Group-18" transform="translate(946.076555, 482.894495)">
                        <mask id="mask-12" fill="white">
                            <use xlink:href="#path-11"></use>
                        </mask>
                        <g id="Clip-17"></g>
                        <path d="M34.96091,75.2548323 C35.7428506,66.3002066 33.2478956,59.5501801 28.8817243,51.6153494 C25.811398,46.0347775 20.9696133,40.6422393 18.8081922,34.6644942 C11.9551272,15.7057075 24.7725052,2.63352723 43.1088123,7.34012613 C59.2574994,11.485502 72.44771,26.8419081 87.2672994,34.4064275 C89.4146133,35.502971 100.594551,39.5600861 102.522196,42.6242681 C110.006053,54.5183596 96.5478066,60.1497774 89.1133243,66.6666804 C77.0295195,77.2589263 66.3393023,89.2307257 54.0831884,99.6454908 C47.3883253,105.33447 40.1311903,111.202848 31.6648688,114.366803 C28.1038143,115.69647 8.17440373,120.361817 6.35961617,115.105507 C5.0728401,111.37937 19.3724793,101.916286 22.5284564,98.6026711 C29.1578219,91.6444645 33.4343119,84.5749726 35.1745329,75.3171905 C35.7025444,72.5062784 32.2573702,71.0221551 31.319243,74.0988088 C27.3047434,87.2650059 18.3688544,95.0137216 8.36384297,103.927095 C5.97872239,106.052068 1.31529273,109.027989 0.546451579,112.283083 C-1.25221349,119.884058 6.06840373,121.604183 12.8862009,122.580807 C34.2918267,125.650745 51.7937951,109.543163 65.7357167,96.4546738 C75.237908,87.5317068 84.2947157,78.2134852 94.1495865,69.6320488 C99.7390516,64.7633188 109.942571,58.7376059 111.178964,50.6607905 C112.793229,40.1117156 102.343841,35.6449557 93.9268946,31.3470423 C81.6536506,25.0824498 72.0648009,17.9515591 60.8485875,10.2210712 C54.3290564,5.72744925 47.0054162,1.37581196 38.7869779,0.602571293 C26.3595626,-0.566883262 14.0480277,7.13386466 11.3757253,19.1315666 C6.80197694,39.6608185 31.9903415,54.4684731 31.4855061,74.7492519 C31.4290774,76.9989409 34.7402334,77.7798564 34.96091,75.2548323" id="Fill-16" fill="#E33314" mask="url(#mask-12)"></path>
                    </g>
                    <g id="Group-21" transform="translate(929.095694, 929.389908)">
                        <mask id="mask-14" fill="white">
                            <use xlink:href="#path-13"></use>
                        </mask>
                        <g id="Clip-20"></g>
                        <path d="M19.8302498,218.413624 C-26.3868029,221.606801 22.0979225,275.688305 58.6067742,271.198469 C95.1156258,266.707673 120.517054,250.217748 151.97046,291.506386 C182.94064,332.162532 214.005913,350.122835 251.769408,334.065769 C289.533873,318.009663 292.816516,316.941431 313.974669,330.62113 C335.130881,344.301789 387.780284,340.026943 391.194893,307.6172 C394.607561,275.208416 414.292745,270.966203 447.07357,271.100572 C479.851484,271.23494 512.582822,282.71675 537.248736,263.363811 C561.91465,244.011831 542.277011,236.905644 581.727919,209.507855 C621.176885,182.110066 537.577679,185.009552 514.767046,152.492314 C491.958353,119.976036 441.109892,129.495102 419.884786,109.954046 C398.659679,90.4139502 410.376474,32.0998312 390.495281,16.2184044 C371.962855,1.41384721 351.088039,-10.9384803 323.341312,16.830742 C295.595555,44.5990045 271.153789,10.4549447 253.003674,39.5611361 C234.852589,68.6682872 252.320558,71.9823965 201.512851,71.7741249 C150.706114,71.5658534 132.737452,56.9014236 122.782786,86.0421669 C112.826179,115.180991 124.149988,150.892366 96.2421847,157.786443 C61.7312526,166.31214 66.0473024,215.220447 19.8302498,218.413624" id="Fill-19" fill="#EBC618" mask="url(#mask-14)"></path>
                    </g>
                    <g id="Group-24" transform="translate(929.095694, 926.963303)">
                        <mask id="mask-16" fill="white">
                            <use xlink:href="#path-15"></use>
                        </mask>
                        <g id="Clip-23"></g>
                        <path d="M20.4912961,218.413316 C-28.6869705,224.536391 24.0129349,274.116438 49.4393206,277.006953 C80.2210524,280.506404 107.468678,258.492239 135.698372,281.556624 C162.871192,303.758673 176.749633,340.394992 215.662207,345.553598 C245.662311,349.530948 274.203698,317.48284 302.126496,331.428613 C321.874335,341.289125 338.492787,348.184931 361.21081,341.290088 C369.913248,338.648157 378.401817,334.223742 383.887594,326.702621 C391.922531,315.68783 388.442132,300.43169 397.101412,289.841805 C420.448573,261.287367 476.862886,284.564687 507.496924,279.652738 C531.28429,275.838221 541.454077,261.981091 551.17311,242.294754 C558.742907,226.958643 573.62068,221.861701 583.64565,209.431521 C586.383744,206.035166 589.248432,202.716854 588.441869,198.021693 C586.184261,184.868885 559.888974,180.506134 550.377097,176.947909 C537.164238,172.005128 523.652155,166.556506 513.817077,156.013833 C504.346439,145.86427 497.332892,137.677367 484.068244,132.211403 C452.487622,119.198302 415.038561,125.807948 406.246931,84.4504536 C401.631973,62.7359385 405.3483,33.1794552 388.547627,16.0521881 C370.073409,-2.78530062 346.222746,-5.24801972 325.482288,10.5313037 C315.01999,18.4908196 308.574202,27.033256 294.24213,27.6373738 C287.864434,27.9061917 281.612374,26.1776635 275.270164,26.0157946 C264.637155,25.7431227 257.916118,28.7714193 251.110686,37.0450378 C244.522958,45.0546559 243.762429,58.0716102 237.08551,65.3142782 C227.866143,75.3154615 200.989671,71.2167106 189.351575,70.7070164 C171.291668,69.9169422 139.334138,58.6843995 125.646549,75.8675499 C117.422678,86.1915073 116.454995,102.28397 115.263852,114.718004 C114.492774,122.787359 114.690339,131.91368 112.142138,139.692057 C106.636221,156.506184 98.9148933,154.408634 86.8135756,161.038513 C58.1273723,176.756172 58.4515319,214.11512 20.4989685,218.743798 C17.943095,219.05501 18.071608,223.925529 20.61885,223.63455 C40.8893723,221.31732 53.0271339,211.166794 64.1885807,194.594506 C70.1634744,185.721587 75.3193378,175.678009 84.0735641,169.148335 C92.3252472,162.991537 103.123213,163.033932 110.131006,154.983846 C126.955655,135.65208 113.554821,103.701286 127.492724,82.8124948 C140.31333,63.5982756 180.694213,76.7385585 200.202289,76.9717268 C212.218251,77.1162525 231.750304,80.1320236 240.576459,69.4775839 C243.945608,65.4106288 244.833691,59.253831 247.082667,54.5837216 C256.646334,34.7133554 267.186315,31.9558037 287.05883,33.2469006 C321.114766,35.4581449 338.073682,-8.46227283 372.665727,11.3917138 C400.958719,27.6277387 395.892047,58.1592892 401.692394,86.1510401 C405.520929,104.624324 412.863431,117.310796 431.044179,124.040879 C461.025102,135.139495 485.770561,133.966909 509.337345,158.733808 C522.771745,172.848195 539.50912,179.186132 557.550805,185.670521 C564.952768,188.329795 579.151533,190.506353 581.19815,198.909082 C583.561254,208.608688 560.892142,219.318047 554.306333,227.509768 C549.506277,233.482536 547.473087,239.677874 544.223819,246.474439 C535.265315,265.208833 517.356938,273.497867 497.244659,274.536526 C469.021678,275.995273 439.1357,265.325417 411.314562,274.206044 C390.434083,280.869645 390.500257,295.860821 384.314372,313.922689 C373.52216,345.437978 331.232764,341.106059 308.177155,328.542915 C285.914681,316.411422 271.846348,325.702502 249.108185,334.467508 C202.408109,352.471565 175.95266,318.112972 147.905186,286.377041 C130.132994,266.269652 110.740963,261.874142 85.0191894,266.524017 C69.0058987,269.41935 54.5107873,273.964204 38.5876476,268.385509 C30.4721499,265.543169 22.999217,260.651454 16.7308533,254.796233 C6.25896493,245.014729 1.68908232,226.378613 20.6265224,223.965996 C23.5286136,223.595046 23.3713291,218.054892 20.4912961,218.413316" id="Fill-22" fill="#E33314" mask="url(#mask-16)"></path>
                    </g>
                    <path d="M933.81663,946.372209 C943.536044,945.762605 953.46835,939.875541 957.997631,930.90669 C958.816379,929.28412 957.083082,925.662997 955.174149,927.444356 C948.351842,933.816913 942.137165,938.342404 933.091023,940.749794 C930.654295,941.39864 931.176767,946.538299 933.81663,946.372209" id="Fill-25" fill="#E33314"></path>
                    <g id="Group-29" transform="translate(984.889952, 905.123853)">
                        <mask id="mask-18" fill="white">
                            <use xlink:href="#path-17"></use>
                        </mask>
                        <g id="Clip-28"></g>
                        <path d="M3.26605842,26.0155567 C8.68295316,24.9943153 13.6542216,22.3260379 18.0971426,18.7620734 C22.2100689,15.4620696 27.2569426,10.9282718 28.2780584,5.15573682 C28.6320689,3.15576451 27.3805795,0.171129613 25.1791321,0.995636239 C21.2761216,2.45681225 18.4129058,7.59070063 15.1743321,10.3904641 C11.1974953,13.8288743 6.84263211,16.3488591 2.43262158,19.0042846 C0.266753158,20.3102477 -0.0881468421,26.647283 3.26605842,26.0155567" id="Fill-27" fill="#E33314" mask="url(#mask-18)"></path>
                    </g>
                    <path d="M942.013964,912.128908 C948.308647,908.877193 955.137258,904.361661 959.94444,898.749252 C961.577309,896.840213 960.117235,892.175154 957.486908,893.114311 C954.268711,894.261373 951.481131,896.327108 948.680751,898.392843 C945.676491,900.609131 942.604576,902.757823 939.850823,905.359195 C937.870535,907.229316 938.739083,913.8198 942.013964,912.128908" id="Fill-30" fill="#E33314"></path>
                    <path d="M978.954497,875.450917 C982.516637,872.707888 985.689269,869.462547 988.864684,866.262346 C991.93252,863.168755 994.865883,860.186576 996.779108,856.162314 C997.545139,854.548767 996.422986,850.934616 994.191664,851.899862 C990.261347,853.600809 987.464311,856.961404 984.557842,860.060757 C981.498353,863.321466 978.431444,866.600423 975.772591,870.228021 C974.190448,872.38806 975.999803,877.72717 978.954497,875.450917" id="Fill-32" fill="#E33314"></path>
                    <g id="Group-36" transform="translate(994.593301, 856.591743)">
                        <mask id="mask-20" fill="white">
                            <use xlink:href="#path-19"></use>
                        </mask>
                        <g id="Clip-35"></g>
                        <path d="M3.9670122,25.9173277 C13.9281741,23.0300716 24.861962,14.8692355 28.1260608,5.22161826 C29.0326502,2.54256489 26.5194827,-2.08149367 23.5459452,1.13764119 C20.2101494,4.74826841 17.7026422,8.80911183 13.9460983,12.1127735 C10.2933264,15.3247903 6.1528264,17.940671 1.86421555,20.3332231 C-0.58197185,21.6981079 0.866118262,26.8168704 3.9670122,25.9173277" id="Fill-34" fill="#E33314" mask="url(#mask-20)"></path>
                    </g>
                    <g id="Group-39" transform="translate(1004.296651, 812.912844)">
                        <mask id="mask-22" fill="white">
                            <use xlink:href="#path-21"></use>
                        </mask>
                        <g id="Clip-38"></g>
                        <path d="M5.41342925,25.0650756 C7.90441763,21.4377337 10.8008674,17.9962871 14.0383206,14.8989851 C17.4119672,11.6729865 21.5435147,9.06282557 24.5044224,5.49935539 C25.9412112,3.77195893 24.8693377,-0.0765507372 21.9853636,0.66798383 C17.1499768,1.91586571 13.3136883,5.76437538 10.0471251,9.08284507 C6.42084484,12.7702455 3.56078264,16.8532692 0.967909091,21.1946398 C-0.532298018,23.7037499 3.23225496,28.2415022 5.41342925,25.0650756" id="Fill-37" fill="#E33314" mask="url(#mask-22)"></path>
                    </g>
                    <path d="M418.662592,399.581185 C425.405933,403.488699 432.734307,406.568988 439.827732,409.80903 C444.106439,411.761869 445.639698,403.182965 441.477997,401.438539 C434.633563,398.567581 427.75075,395.406498 420.63486,393.234228 C417.203283,392.185736 416.073464,398.080978 418.662592,399.581185" id="Fill-40" fill="#E33314"></path>
                    <path d="M450.039182,390.217305 C454.552254,393.266469 458.926462,396.427331 462.930078,400.303453 C465.956439,403.23406 469.135551,409.792897 473.307539,410.092718 C474.707459,410.193639 475.514605,408.156617 475.461663,406.872088 C475.226462,401.122573 469.991299,396.83885 466.338315,393.373268 C462.019652,389.274729 457.117762,385.876754 451.847015,383.585962 C448.772918,382.249503 447.716686,388.647652 450.039182,390.217305" id="Fill-42" fill="#E33314"></path>
                    <path d="M451.046935,365.152498 C455.269154,365.454917 459.424861,366.139196 463.443108,367.524005 C466.826382,368.691252 469.925869,370.88221 473.497152,371.258653 C475.865887,371.507811 475.770109,367.804758 474.898351,366.536403 C470.168862,359.654791 458.39702,358.405395 450.909475,359.474243 C448.010413,359.887699 448.085794,364.941256 451.046935,365.152498" id="Fill-44" fill="#E33314"></path>
                    <path d="M497.546975,377.378052 C499.515937,381.584763 504.543447,383.60506 508.306965,385.809718 C511.819887,387.867463 515.774335,391.528771 519.907779,390.5071 C521.653685,390.075963 521.86848,387.200113 521.216749,385.885575 C519.116523,381.647177 513.86871,379.97832 509.942718,377.884087 C506.566567,376.08368 502.390898,372.817021 498.526408,373.919351 C497.217438,374.293835 497.066897,376.35062 497.546975,377.378052" id="Fill-46" fill="#E33314"></path>
                    <path d="M495.960163,393.967876 C498.721657,396.185109 501.352586,398.534187 504.148439,400.717995 C506.581066,402.619542 508.870367,404.798707 512.066749,405.224884 C514.261808,405.517358 514.644667,402.212863 513.985953,400.968687 C512.505564,398.164649 509.577184,396.389376 506.977669,394.539825 C504.152365,392.529645 501.190607,390.708877 498.342725,388.739551 C495.256292,386.60681 493.663009,392.123895 495.960163,393.967876" id="Fill-48" fill="#E33314"></path>
                    <path d="M483.111812,422.932767 C485.032327,426.341003 487.489563,429.354122 489.888381,432.404195 C492.184053,435.322562 494.539057,438.761118 497.465468,441.005798 C500.783468,443.551789 503.149425,437.811702 501.726382,435.174748 C499.900798,431.795886 497.069316,428.868043 494.557313,426.016003 C492.087297,423.211338 489.665659,420.271178 486.760242,417.93838 C483.976226,415.703176 481.85581,420.705143 483.111812,422.932767" id="Fill-50" fill="#E33314"></path>
                    <path d="M466.4812,443.395213 C469.440401,447.003214 472.560835,450.469152 475.781548,453.832321 C478.364213,456.529506 481.167098,460.901222 485.130068,461.053361 C487.199543,461.132957 487.829725,458.373304 487.518075,456.811617 C486.658825,452.487255 482.523808,449.479748 479.574438,446.530678 C476.436308,443.394205 473.212646,440.344381 469.857246,437.453749 C466.705352,434.737421 464.57689,441.072833 466.4812,443.395213" id="Fill-52" fill="#E33314"></path>
                    <path d="M510.94906,486.958523 C513.729523,488.793125 516.493546,490.640758 519.353128,492.372972 C521.876712,493.903203 523.842354,495.672649 526.963953,494.793046 C528.487762,494.363017 529.126878,492.40555 528.705596,491.150835 C527.695546,488.144359 525.557281,487.167021 522.714139,485.55488 C519.836062,483.925054 516.882975,482.421816 513.936054,480.899962 C509.883524,478.807529 507.805883,484.884706 510.94906,486.958523" id="Fill-54" fill="#E33314"></path>
                    <path d="M530.168562,457.935369 C535.551606,461.429357 540.255767,464.429849 544.572957,469.404322 C548.395628,473.810314 552.405544,466.398763 549.505653,462.658535 C549.736108,464.543343 549.967523,466.427137 550.198938,468.311945 C551.084269,466.611564 550.62816,464.106594 549.505653,462.658535 C545.147174,457.039579 538.316105,452.153265 531.372689,451.363875 C528.341247,451.019341 528.130957,456.612964 530.168562,457.935369" id="Fill-56" fill="#E33314"></path>
                    <path d="M532.551048,429.555938 C536.987411,432.871761 541.562581,435.9823 546.18039,438.991174 C550.175839,441.594369 554.628532,445.63064 559.273559,446.446888 C562.53415,447.019728 563.806089,442.379335 561.905438,439.985335 C558.526907,435.728139 553.015474,433.277441 548.537378,430.523705 C543.95858,427.708383 539.304481,425.015255 534.573267,422.51177 C531.237376,420.746328 530.155956,427.764103 532.551048,429.555938" id="Fill-58" fill="#E33314"></path>
                    <path d="M557.623244,408.658578 C561.717417,410.673052 565.904719,412.281969 570.130317,413.876548 C573.866772,415.285758 577.963557,417.726273 581.921083,417.334029 C585.158823,417.011427 585.374672,411.452419 583.187457,409.477886 C579.961903,406.566269 575.532641,405.796119 571.676946,404.443236 C567.461793,402.962336 563.27188,401.514209 558.961857,400.474711 C554.969516,399.511 554.345468,407.045564 557.623244,408.658578" id="Fill-60" fill="#E33314"></path>
                    <path d="M556.214037,511.165567 C559.467733,515.256091 563.467639,518.520441 568.03086,520.858706 C571.735391,522.756986 577.304533,525.900292 581.031012,522.916457 C582.550866,521.700251 582.489597,519.322598 581.423321,517.840288 C579.018256,514.498124 574.201726,514.462579 570.68649,512.86691 C566.578677,511.002254 562.951876,508.328715 559.493338,505.377543 C556.417964,502.752998 554.375031,508.85324 556.214037,511.165567" id="Fill-62" fill="#E33314"></path>
                    <path d="M573.931388,495.462458 C579.850932,500.49993 591.53815,505.588621 598.150498,499.588424 C599.735755,498.149552 599.474674,494.903792 597.496942,494.059629 C594.225749,492.661543 590.841934,493.349204 587.441054,492.721299 C583.654525,492.021307 580.117986,490.427831 576.816078,488.283277 C572.898155,485.738457 570.981854,492.952732 573.931388,495.462458" id="Fill-64" fill="#E33314"></path>
                    <path d="M589.56493,471.31079 C593.144955,471.903041 596.7092,472.348676 600.317825,472.738365 C603.899823,473.126126 606.891067,473.842807 610.060819,471.849989 C612.05794,470.594108 611.39815,467.673366 609.924719,466.390477 C607.308243,464.113108 604.130601,464.310847 600.804038,464.055234 C597.27727,463.783223 593.781075,463.552688 590.24543,463.482274 C586.377425,463.404143 585.872474,470.701176 589.56493,471.31079" id="Fill-66" fill="#E33314"></path>
                    <path d="M607.377018,443.871075 C611.370142,443.886287 616.418503,444.900084 619.850169,442.18576 C621.514526,440.868802 621.325785,437.441669 619.720528,436.186647 C616.324133,433.526653 611.118487,434.555662 607.176838,434.569788 C602.863425,434.586087 603.045494,443.853689 607.377018,443.871075" id="Fill-68" fill="#E33314"></path>
                    <path d="M612.55548,526.406769 C618.925292,531.586889 631.81879,534.498228 637.350469,526.314551 C638.715551,524.293669 637.814666,521.04717 635.573626,520.725892 C632.154903,520.235049 628.720706,522.082401 625.252983,522.136939 C621.499006,522.197426 617.927269,521.033288 614.449231,519.501265 C611.155153,518.051546 610.336791,524.603049 612.55548,526.406769" id="Fill-70" fill="#E33314"></path>
                    <path d="M629.0485,504.719071 C632.915482,504.318776 636.743206,503.496575 640.554869,502.709142 C644.400437,501.91607 648.325415,501.636052 651.41793,498.91668 C653.097132,497.441417 652.950804,493.976896 650.696105,493.167851 C647.101257,491.878639 643.751776,493.08704 640.138191,493.847224 C636.082054,494.700433 631.994687,495.524514 628.03402,496.792113 C624.726474,497.852048 625.312678,505.10527 629.0485,504.719071" id="Fill-72" fill="#E33314"></path>
                    <path d="M644.572946,468.027908 C649.224094,465.594806 656.32331,463.224207 659.251303,458.658742 C660.367468,456.918612 659.90857,453.985483 657.472385,453.795255 C654.759215,453.583287 652.172197,455.095144 649.874048,456.385975 C647.2075,457.883338 644.556492,459.406971 641.898171,460.916111 C638.802891,462.673452 640.995914,469.899386 644.572946,468.027908" id="Fill-74" fill="#E33314"></path>
                    <path d="M400.363229,376.101469 C404.328523,375.521871 408.243733,374.351391 412.120085,373.228099 C415.988665,372.106859 420.286415,371.455452 423.432227,368.423077 C424.913167,366.994086 425.072055,362.339862 422.725002,361.800271 C419.028263,360.950878 415.575037,362.57683 412.000919,363.776034 C407.813699,365.180405 403.558261,366.566311 399.541156,368.559513 C397.092206,369.775131 397.212236,376.56207 400.363229,376.101469" id="Fill-76" fill="#E33314"></path>
                    <path d="M671.554246,516.233145 C680.254449,518.286991 693.765825,515.413081 698.31951,506.679858 C699.32362,504.753168 697.853539,501.801859 695.616344,502.381432 C691.800372,503.369195 688.632126,506.358283 684.85001,507.688814 C680.653598,509.163086 676.46966,509.324335 672.096839,509.471762 C668.981159,509.577725 668.587356,515.532865 671.554246,516.233145" id="Fill-78" fill="#E33314"></path>
                    <path d="M675.614861,494.964707 C679.428156,494.172957 683.005453,492.684917 686.617263,491.254901 C689.898861,489.954971 693.338103,488.788872 695.551643,485.928839 C696.64582,484.514733 696.490975,481.042639 694.301688,480.624303 C690.600329,479.915846 687.249703,481.758583 683.912137,483.252238 C680.275141,484.882532 676.667995,486.455737 673.322966,488.644747 C670.58799,490.433203 672.272631,495.657254 675.614861,494.964707" id="Fill-80" fill="#E33314"></path>
                    <g id="Group-84" transform="translate(0.000000, 926.963303)">
                        <mask id="mask-24" fill="white">
                            <use xlink:href="#path-23"></use>
                        </mask>
                        <g id="Clip-83"></g>
                        <path d="M20.7564645,218.413316 C-28.6752572,224.536391 24.2963222,274.116438 49.8552128,277.006953 C80.796191,280.506404 108.184779,258.492239 136.560518,281.556624 C163.872949,303.758673 177.824153,340.394992 216.938038,345.553598 C247.093345,349.530948 275.782387,317.48284 303.849641,331.428613 C323.699644,341.289125 340.40407,348.184931 363.239623,341.290088 C371.987081,338.648157 380.518601,334.223742 386.033722,326.702621 C394.110228,315.68783 390.611823,300.43169 399.315901,289.841805 C422.783846,261.287367 479.48905,284.564687 510.282534,279.652738 C534.192962,275.838221 544.415361,261.981091 554.184674,242.294754 C561.793633,226.958643 576.747411,221.861701 586.824244,209.431521 C589.577467,206.035166 592.456011,202.716854 591.64624,198.021693 C589.376952,184.868885 562.944665,180.506134 553.384543,176.947909 C540.102364,172.005128 526.521342,166.556506 516.634419,156.013833 C507.11575,145.86427 500.065919,137.677367 486.732648,132.211403 C454.988646,119.198302 417.345846,125.807948 408.508734,84.4504536 C403.868937,62.7359385 407.605453,33.1794552 390.717864,16.0521881 C372.148072,-2.78530062 348.174019,-5.24801972 327.325299,10.5313037 C316.808875,18.4908196 310.330704,27.033256 295.924486,27.6373738 C289.513796,27.9061917 283.229392,26.1776635 276.853406,26.0157946 C266.166352,25.7431227 259.409582,28.7714193 252.569906,37.0450378 C245.948097,45.0546559 245.18267,58.0716102 238.472172,65.3142782 C229.20511,75.3154615 202.190559,71.2167106 190.49129,70.7070164 C172.336988,69.9169422 140.215093,58.6843995 126.456692,75.8675499 C118.189312,86.1915073 117.216622,102.28397 116.020281,114.718004 C115.245214,122.787359 115.443801,131.91368 112.882417,139.692057 C107.348016,156.506184 99.5857787,154.408634 87.42282,161.038513 C58.5882114,176.756172 58.9140479,214.11512 20.7651406,218.743798 C18.1960445,219.05501 18.3252224,223.925529 20.8846783,223.63455 C41.2610322,221.31732 53.4615874,211.166794 64.6798129,194.594506 C70.6865811,185.721587 75.8691179,175.678009 84.6686334,169.148335 C92.9630058,162.991537 103.816834,163.033932 110.860881,154.983846 C127.77257,135.65208 114.301445,103.701286 128.312418,82.8124948 C141.199351,63.5982756 181.788176,76.7385585 201.398139,76.9717268 C213.476265,77.1162525 233.109364,80.1320236 241.981181,69.4775839 C245.36776,65.4106288 246.260437,59.253831 248.520085,54.5837216 C258.134192,34.7133554 268.7287,31.9558037 288.704025,33.2469006 C322.936145,35.4581449 339.982796,-8.46227283 374.7538,11.3917138 C403.192199,27.6277387 398.10028,58.1592892 403.930634,86.1510401 C407.778976,104.624324 415.159463,117.310796 433.434268,124.040879 C463.570295,135.139495 488.443772,133.966909 512.132476,158.733808 C525.635413,172.848195 542.460342,179.186132 560.595364,185.670521 C568.03562,188.329795 582.307841,190.506353 584.365046,198.909082 C586.740375,208.608688 563.953987,219.318047 557.334106,227.509768 C552.509219,233.482536 550.46551,239.677874 547.199432,246.474439 C538.194582,265.208833 520.193557,273.497867 499.977229,274.536526 C471.608239,275.995273 441.56765,265.325417 413.602581,274.206044 C392.614079,280.869645 392.680596,295.860821 386.462708,313.922689 C375.614664,345.437978 333.106488,341.106059 309.931602,328.542915 C287.553956,316.411422 273.412842,325.702502 250.557045,334.467508 C203.615371,352.471565 177.023057,318.112972 148.829518,286.377041 C130.966347,266.269652 111.473994,261.874142 85.6191507,266.524017 C69.5230168,269.41935 54.9529164,273.964204 38.9473998,268.385509 C30.7899173,265.543169 23.2773599,260.651454 16.9775314,254.796233 C6.45146773,245.014729 1.85794327,226.378613 20.8933544,223.965996 C23.8104593,223.595046 23.6513971,218.054892 20.7564645,218.413316" id="Fill-82" fill="#E33314" mask="url(#mask-24)"></path>
                    </g>
                    <g id="Group-87" transform="translate(106.736842, 1009.467890)">
                        <mask id="mask-26" fill="white">
                            <use xlink:href="#path-25"></use>
                        </mask>
                        <g id="Clip-86"></g>
                        <path d="M5.21728074,133.342719 C-9.31030998,125.544916 11.2577051,103.474939 44.8170069,107.678566 C78.3782315,111.882193 83.231337,88.1929238 93.1077145,87.54894 C102.984092,86.9049562 113.197918,84.6510131 120.496804,78.1598433 C135.754091,64.5895187 118.433657,35.1631937 151.992959,25.7040988 C185.553222,16.2459372 179.057098,36.2141006 198.544509,30.958633 C218.029997,25.7040988 218.029997,-3.72222618 233.186338,1.53230805 C248.342679,6.78684227 238.599935,48.8249827 263.498058,50.9267964 C288.398105,53.0286101 277.572834,87.7104026 310.049608,81.4049615 C342.526383,75.0995205 368.508956,92.9649368 375.004119,99.2703779 C381.500243,105.576752 397.73815,124.494009 412.894491,119.239475 C428.04987,113.98494 392.324553,163.379429 345.773964,145.513079 C299.223376,127.645796 279.736926,135.003077 264.581547,158.124894 C249.425206,181.244845 202.874617,202.264849 186.635749,184.397566 C170.396881,166.532149 145.497796,197.009381 120.598712,189.653033 C95.6996266,182.296685 87.0374869,139.207638 69.7180146,137.104891 C52.3956581,135.003077 19.7467942,141.141456 5.21728074,133.342719" id="Fill-85" fill="#E14459" mask="url(#mask-26)"></path>
                    </g>
                    <g id="Group-90" transform="translate(104.311005, 1009.467890)">
                        <mask id="mask-28" fill="white">
                            <use xlink:href="#path-27"></use>
                        </mask>
                        <g id="Clip-89"></g>
                        <path d="M6.93579531,128.685856 C-11.866298,115.499502 35.1949571,106.994699 39.0285905,106.952458 C47.757375,106.857191 55.8544647,108.914413 64.5619994,106.849102 C79.4647785,103.316145 85.8638265,90.7067834 100.533825,87.6546529 C111.746889,85.3206179 122.763876,82.3682479 128.260779,72.1468462 C130.846478,67.3394711 130.831989,61.9335333 131.907995,56.7900284 C135.613165,39.0919856 144.285927,26.6434993 166.674385,26.340623 C178.481474,26.1815455 185.235005,35.1303274 196.412331,34.5596257 C210.216888,33.8532139 213.544393,22.8238425 221.169161,14.7198789 C240.91783,-6.27115749 242.416898,26.6336131 247.930221,38.7360834 C254.813182,53.8448483 266.610612,48.1989461 277.620838,58.7528826 C284.500901,65.3469584 285.414637,75.6564368 294.442848,80.6399655 C300.322245,83.8835282 306.03744,82.9173797 312.527282,82.4563247 C327.1316,81.4155805 340.43679,81.2367307 354.354358,86.4781986 C369.949683,92.3523814 377.637233,102.430883 390.308797,111.584578 C394.756739,114.796685 399.954215,118.274819 405.661683,119.23917 C405.136237,119.151094 417.559566,120.435397 416.389868,118.833837 C417.682234,120.605259 408.546808,128.549247 408.896462,128.240978 C392.130473,143.001031 370.302234,145.63974 348.843932,139.656809 C331.444317,134.805395 313.815785,127.076207 295.137326,130.937206 C283.383361,133.365609 274.97622,140.143029 267.860478,148.859036 C254.251997,165.530715 232.418929,184.441162 207.729711,183.408506 C189.67039,182.653562 184.077864,168.608909 165.105773,173.364157 C154.237533,176.088246 144.308143,182.555599 132.761845,183.06249 C114.951725,183.844396 105.158526,170.36685 96.843144,158.000149 C90.3243251,148.308107 84.3522023,134.84494 71.5096752,131.486338 C50.4126177,125.968058 27.9700697,136.170586 6.66727676,128.060331 C4.17237247,127.109461 3.55709797,131.418034 5.74967743,132.344638 C25.1998856,140.567235 46.1675134,133.348533 66.4213454,135.882988 C88.2756639,138.617862 93.8672244,167.614001 109.258746,179.980701 C123.25455,191.22667 138.336986,187.983107 154.22884,182.29766 C158.847746,180.644872 163.756419,178.044809 168.682479,177.267397 C194.757754,173.153851 175.493964,178.88783 190.463389,183.981904 C198.479344,186.710487 203.716421,188.80276 212.707929,187.786282 C230.736341,185.746136 249.514287,175.644267 261.728017,163.383618 C276.795964,148.257777 284.335733,133.374597 309.871074,134.82337 C333.356787,136.157104 353.596131,150.715839 377.505872,147.395883 C391.936329,145.392585 410.345303,137.150215 418.101432,124.917427 C419.955949,121.991121 423.497882,117.282607 419.6005,114.399441 C419.046077,113.988715 417.801039,114.330237 417.432068,113.940183 C427.374981,124.461765 368.489251,95.7900725 396.766765,110.672354 C387.960709,106.039335 382.231991,97.6486726 374.33291,91.9218836 C361.090503,82.3206145 343.679297,76.7448143 326.955807,76.6378639 C309.88846,76.5273186 299.332204,82.7196563 287.90278,67.3718259 C284.274882,62.50064 282.750701,56.6453308 277.448909,52.8562312 C268.616773,46.5434619 259.963329,50.4808541 252.794463,39.7867137 C247.866472,32.4349978 248.417997,22.4571555 245.569576,14.4170025 C242.954901,7.03742559 238.347586,-1.98954689 228.168029,1.14436918 C209.61417,6.85587954 215.384421,37.3861718 186.5747,27.7552441 C172.191572,22.947869 163.227109,19.1407946 147.024237,26.5401439 C128.710886,34.9038442 132.416055,48.0182988 127.069832,63.4757759 C120.065168,83.7298432 106.569697,77.5842401 91.4611824,84.7445238 C85.0254304,87.7948568 81.1000371,94.2298551 75.1366073,97.9488527 C54.5669279,110.772115 21.4097174,94.0132581 4.28248439,114.504593 C-0.976808639,120.795793 -1.74662619,126.735584 5.48019299,131.719113 C7.27289232,132.953985 8.46190788,129.75536 6.93579531,128.685856" id="Fill-88" fill="#E33314" mask="url(#mask-28)"></path>
                    </g>
                    <path d="M517.83431,944.7277 C524.467169,950.286354 539.773558,950.643512 545.150132,942.759204 C546.506956,940.76903 545.726193,936.940424 543.318691,936.706103 C539.331548,936.317978 535.270133,939.155627 531.198755,939.51072 C526.96887,939.881297 523.00256,938.576536 518.836077,938.494989 C516.181303,938.442344 516.19489,943.354811 517.83431,944.7277" id="Fill-91" fill="#E33314"></path>
                    <path d="M496.76672,975.043171 C500.524626,976.101292 504.344266,976.622245 508.20996,977.086439 C511.83362,977.521242 516.328408,978.767879 519.658099,977.009411 C521.882466,975.836762 522.285203,971.970161 520.144128,970.434669 C517.07509,968.233291 513.301506,968.608296 509.654328,968.410658 C505.520142,968.186669 501.387916,968.066059 497.269408,968.556606 C494.412027,968.895123 493.939717,974.247553 496.76672,975.043171" id="Fill-93" fill="#E33314"></path>
                    <path d="M523.733969,1007.89592 C530.759893,1010.85381 541.740636,1009.9801 545.526906,1002.31596 C546.291424,1000.76966 545.526906,997.024392 543.220317,997.355471 C540.276785,997.774774 537.807236,999.551595 534.95403,1000.36554 C531.705995,1001.29047 528.372289,1001.16999 525.114011,1000.36554 C520.980402,999.342892 520.350909,1006.47105 523.733969,1007.89592" id="Fill-95" fill="#E33314"></path>
                    <path d="M553.986986,977.762094 C561.169948,978.35152 572.344831,977.565618 576.731431,971.03868 C577.928912,969.256299 577.421879,966.042184 574.893438,965.820326 C571.540109,965.527023 568.35291,967.367689 565.173393,968.214696 C561.465717,969.200834 557.613998,969.574044 553.781484,969.566523 C549.435216,969.559003 549.756913,977.416146 553.986986,977.762094" id="Fill-97" fill="#E33314"></path>
                    <path d="M586.102796,946.23311 C590.74095,944.883519 596.949729,943.830466 600.427832,940.408044 C602.3005,938.565202 602.04146,934.724887 598.946285,934.318737 C594.197553,933.694343 588.49764,937.089362 584.28849,938.8911 C580.800147,940.384556 581.872144,947.464281 586.102796,946.23311" id="Fill-99" fill="#E33314"></path>
                    <path d="M583.339374,994.82334 C587.302396,993.932655 591.186339,992.687354 595.020289,991.337971 C598.745166,990.027273 602.370058,989.099745 605.338689,986.360451 C607.179312,984.661979 606.775739,980.687516 603.956176,980.404744 C600.074051,980.014206 596.651855,981.743995 593.064229,983.05193 C589.20301,984.45842 585.369059,985.981887 581.687812,987.821285 C578.542846,989.391728 579.402712,995.710341 583.339374,994.82334" id="Fill-101" fill="#E33314"></path>
                    <path d="M591.061309,1025.8483 C597.535929,1029.9637 608.848659,1030.72408 613.198935,1022.80465 C614.096148,1021.16845 614.141411,1016.27255 611.194288,1016.78512 C608.259234,1017.29451 605.635993,1018.79728 602.686857,1019.27702 C599.456085,1019.8023 596.328916,1019.13299 593.346587,1017.80708 C589.470064,1016.0851 588.140338,1023.99288 591.061309,1025.8483" id="Fill-103" fill="#E33314"></path>
                    <path d="M619.607866,938.765118 C623.244354,936.816302 626.799332,934.763891 630.683293,933.380232 C634.311924,932.087859 638.712438,931.977084 641.656588,929.273358 C643.087418,927.959446 643.442916,924.4485 641.517139,923.328443 C634.389505,919.186696 622.502915,926.520399 617.236244,931.640657 C615.261365,933.559728 615.988073,940.706755 619.607866,938.765118" id="Fill-105" fill="#E33314"></path>
                    <path d="M624.885659,968.131464 C629.224114,967.155777 633.480527,965.702075 637.721062,964.360058 C641.685481,963.105604 645.930427,962.30236 649.077968,959.425334 C650.40297,958.213767 650.766419,954.23954 648.387238,953.828537 C644.268441,953.119109 640.589841,954.74704 636.67394,955.985412 C632.139647,957.421245 627.518019,958.754326 623.114285,960.568996 C619.568009,962.03074 620.750101,969.059796 624.885659,968.131464" id="Fill-107" fill="#E33314"></path>
                    <path d="M637.75059,991.846009 C645.611696,993.775866 656.843658,991.372078 661.628915,983.801852 C663.013455,981.612601 662.07052,977.251652 659.058016,978.009357 C655.665442,978.862629 652.718093,981.058706 649.38253,982.186 C645.754675,983.411785 642.084288,983.703361 638.327029,984.083676 C635.06024,984.413283 634.482896,991.043447 637.75059,991.846009" id="Fill-109" fill="#E33314"></path>
                    <path d="M673.74298,1021.51589 C680.799612,1019.92438 689.042527,1019.20081 695.165219,1015.10084 C696.686463,1014.08221 696.631684,1010.05851 694.494399,1009.71987 C687.110888,1008.55143 678.989206,1011.73172 671.842772,1013.41855 C667.904959,1014.34731 669.301379,1022.51818 673.74298,1021.51589" id="Fill-111" fill="#E33314"></path>
                    <path d="M681.353879,982.450847 C691.633394,984.479507 709.749794,976.802402 710.75782,964.752692 C710.887333,963.20569 710.018782,960.16132 707.817969,961.118201 C703.439892,963.02277 700.887675,967.916557 696.789454,970.51236 C691.963969,973.56684 686.65032,974.437317 681.186328,975.566086 C678.436671,976.133229 678.683017,981.92323 681.353879,982.450847" id="Fill-113" fill="#E33314"></path>
                    <path d="M680.632503,953.357305 C684.777276,951.22865 688.908483,949.184589 692.962162,946.871113 C696.79489,944.682689 701.348617,942.905285 703.214104,938.874172 C703.825596,937.551003 703.492231,934.74835 701.59961,934.375951 C697.486816,933.566786 693.983577,936.637934 690.613102,938.624986 C686.321028,941.154546 682.249905,943.896512 678.109977,946.618249 C675.456624,948.36347 677.141862,955.149422 680.632503,953.357305" id="Fill-115" fill="#E33314"></path>
                    <path d="M667.69122,920.888189 C669.83151,917.812204 672.666675,915.033365 675.683237,912.831393 C678.705557,910.624582 682.755793,909.636357 685.323182,906.901073 C686.824264,905.301135 687.246564,901.341458 684.536169,900.559395 C680.264226,899.326291 675.822404,902.294839 672.444968,904.698133 C668.478233,907.520528 665.588361,910.984641 663.093914,915.141769 C662.038166,916.899475 661.861568,919.329871 663.235961,920.998529 C664.45775,922.481351 666.55869,922.516196 667.69122,920.888189" id="Fill-117" fill="#E33314"></path>
                    <path d="M710.330826,911.6801 C712.767814,909.329472 715.187262,907.058628 718.346285,905.770122 C721.427354,904.512531 724.693561,904.764847 727.036032,902.172874 C728.059157,901.040943 727.952947,898.404091 726.919103,897.327011 C723.78639,894.06286 719.024471,895.585732 715.413324,897.443695 C711.424109,899.495133 708.305037,902.38829 706.223708,906.445291 C705.033959,908.763008 707.517718,914.39474 710.330826,911.6801" id="Fill-119" fill="#E33314"></path>
                    <path d="M717.299148,943.623757 C721.25175,941.701998 724.991265,939.227562 728.726778,936.935413 C732.475297,934.634537 736.045744,933.112255 737.339268,928.81496 C737.782448,927.346976 736.906093,925.372858 735.425493,924.823091 C731.941081,923.529637 728.303607,926.933924 725.483464,928.724787 C721.806975,931.05766 717.964417,933.336235 714.544032,936.0075 C711.941977,938.038825 713.239503,945.597876 717.299148,943.623757" id="Fill-121" fill="#E33314"></path>
                    <path d="M721.429695,987.435226 C724.749104,986.180939 727.868751,984.306969 730.932744,982.526499 C733.879465,980.813667 737.544728,979.334583 739.272013,976.27297 C740.384114,974.302517 740.101865,970.918629 737.331053,970.663991 C734.13488,970.370562 730.991381,973.1099 728.397472,974.715307 C725.240058,976.666862 722.003138,978.629358 719.182634,981.04841 C717.102538,982.831865 717.899594,988.768092 721.429695,987.435226" id="Fill-123" fill="#E33314"></path>
                    <path d="M764.756174,953.374853 C768.904511,951.015607 772.501302,947.917763 776.123462,944.781149 C779.578373,941.78605 784.012348,938.830692 785.729938,934.39814 C786.348195,932.803661 785.84269,929.131031 783.4655,929.40437 C779.142398,929.899676 775.711917,934.289579 772.59902,937.157701 C768.932699,940.535669 765.272955,943.915575 762.235226,947.911948 C760.999651,949.537443 762.002205,954.939283 764.756174,953.374853" id="Fill-125" fill="#E33314"></path>
                    <path d="M761.448839,921.194477 C763.928245,918.772238 767.843203,916.608878 771.085813,915.137975 C774.308233,913.674312 777.840579,913.066037 780.356328,910.644703 C781.881728,909.174704 780.945893,906.411216 779.090377,905.631863 C775.259211,904.021563 770.337751,906.599491 767.070912,908.35824 C762.974239,910.565953 760.341385,913.446209 757.541958,916.813447 C755.492612,919.28004 758.443468,924.130854 761.448839,921.194477" id="Fill-127" fill="#E33314"></path>
                    <path d="M746.279212,882.389766 C748.379715,879.969298 751.534631,878.479078 754.541559,877.474046 C757.356103,876.534678 760.559115,876.877593 763.019412,875.198587 C764.669477,874.074081 764.3846,870.968696 762.887148,869.870638 C759.844148,867.641692 755.041943,869.098168 751.876852,870.581092 C748.143859,872.329411 745.469904,875.048105 742.921738,878.174467 C741.06264,880.454486 743.774518,885.275358 746.279212,882.389766" id="Fill-129" fill="#E33314"></path>
                    <path d="M786.127671,861.419671 C790.370289,861.56532 794.576788,861.055102 798.786066,860.570798 C802.559135,860.135638 806.013613,859.902421 809.150428,857.717689 C810.869332,856.523012 810.454424,853.15075 808.477129,852.422506 C804.704986,851.033034 800.757805,852.082957 796.895827,852.747759 C792.977355,853.423283 789.102412,854.023749 785.310821,855.221108 C782.558351,856.089639 783.172378,861.3187 786.127671,861.419671" id="Fill-131" fill="#E33314"></path>
                    <path d="M796.065234,880.853499 C800.016677,880.638056 803.79302,879.867541 807.658858,879.09044 C811.443956,878.329333 815.929457,878.164693 818.732044,875.419438 C820.435387,873.751399 820.457761,870.265735 817.948954,869.255315 C814.551997,867.88551 810.726042,869.504627 807.286283,870.337236 C803.157793,871.338247 799.094479,872.310093 795.155682,873.888756 C792.390061,874.996078 792.581699,881.041659 796.065234,880.853499" id="Fill-133" fill="#E33314"></path>
                    <path d="M806.021082,912.383284 C809.889428,911.912986 813.750022,911.069299 817.559258,910.257915 C821.432449,909.43418 825.313393,908.809015 828.501484,906.380564 C830.122662,905.146387 830.11491,901.169276 827.773747,900.611568 C824.141842,899.747929 820.762853,900.699927 817.19975,901.531263 C813.126939,902.482311 808.994049,903.43526 805.031708,904.760647 C801.913387,905.802904 802.349448,912.829831 806.021082,912.383284" id="Fill-135" fill="#E33314"></path>
                    <path d="M842.021642,880.69437 C846.382258,878.970301 850.748179,877.415978 855.046918,875.510235 C858.877154,873.811858 862.713577,872.529129 865.394654,869.123198 C866.691435,867.476203 865.912659,864.114315 863.713345,863.906032 C859.725763,863.528003 855.979505,866.344869 852.524956,868.15427 C848.496711,870.263708 844.677967,872.66309 840.735467,874.924841 C838.465436,876.228674 839.013497,881.884427 842.021642,880.69437" id="Fill-137" fill="#E33314"></path>
                    <path d="M835.767058,861.216338 C840.821969,859.234479 848.669146,856.426088 851.150592,851.802961 C851.846869,850.506851 851.465501,847.285195 849.361333,846.973656 C846.209171,846.50771 844.227695,847.965494 841.645028,849.459608 C838.741317,851.138103 835.964387,852.863828 833.295836,854.819347 C830.991271,856.507833 831.971784,862.704094 835.767058,861.216338" id="Fill-139" fill="#E33314"></path>
                    <g id="Group-143" transform="translate(929.095694, 2.426606)">
                        <mask id="mask-30" fill="white">
                            <use xlink:href="#path-29"></use>
                        </mask>
                        <g id="Clip-142"></g>
                        <path d="M19.8302498,219.615788 C-26.3868029,222.822373 22.0979225,277.130953 58.6067742,272.622265 C95.1156258,268.112613 120.517054,251.552487 151.97046,293.015451 C182.94064,333.843266 214.005913,351.878017 251.769408,335.753531 C289.533873,319.630009 292.816516,318.557292 313.974669,332.294429 C335.130881,346.032529 387.780284,341.739734 391.194893,309.19391 C394.607561,276.649049 414.292745,272.389024 447.07357,272.523957 C479.851484,272.657926 512.582822,284.188909 537.248736,264.754711 C561.91465,245.320513 542.277011,238.185452 581.727919,210.672626 C621.176885,183.1598 537.577679,186.07146 514.767046,153.417689 C491.958353,120.764882 441.109892,130.323917 419.884786,110.701777 C398.659679,91.0786723 410.376474,32.5206691 390.495281,16.5715959 C371.962855,1.70487766 351.088039,-10.6993145 323.341312,17.1865046 C295.595555,45.0713598 271.153789,10.7839367 253.003674,40.0123385 C234.852589,69.2417041 252.320558,72.5697286 201.512851,72.3605825 C150.706114,72.1514365 132.737452,57.425434 122.782786,86.687569 C112.826179,115.949704 124.149988,151.811024 96.2421847,158.734047 C61.7312526,167.295542 66.0473024,216.40824 19.8302498,219.615788" id="Fill-141" fill="#EBC618" mask="url(#mask-30)"></path>
                    </g>
                    <g id="Group-146" transform="translate(929.095694, 0.000000)">
                        <mask id="mask-32" fill="white">
                            <use xlink:href="#path-31"></use>
                        </mask>
                        <g id="Clip-145"></g>
                        <path d="M20.4912961,217.258427 C-28.6869705,223.342143 24.0129349,272.59478 49.4393206,275.466263 C80.2210524,278.942672 107.468678,257.073456 135.698372,279.985978 C162.871192,302.04184 176.749633,338.437889 215.662207,343.561572 C245.662311,347.512733 274.203698,315.675642 302.126496,329.528634 C321.874335,339.325177 338.492787,346.176536 361.21081,339.326135 C369.913248,336.701599 378.401817,332.306315 383.887594,324.834716 C391.922531,313.892451 388.442132,298.736763 397.101412,288.216606 C420.448573,259.85018 476.862886,282.974234 507.496924,278.094627 C531.28429,274.305227 541.454077,260.539336 551.17311,240.982622 C558.742907,225.747489 573.62068,220.68315 583.64565,208.335772 C586.383744,204.962736 589.248432,201.666274 588.441869,197.001071 C586.184261,183.934865 559.888974,179.60084 550.377097,176.066044 C537.164238,171.155808 523.652155,165.743062 513.817077,155.269806 C504.346439,145.186114 497.332892,137.055031 484.068244,131.624099 C452.487622,118.695724 415.038561,125.262806 406.246931,84.176668 C401.631973,62.6060863 405.3483,33.2451708 388.547627,16.2297187 C370.073409,-2.48278007 346.222746,-4.9302409 325.482288,10.7442286 C315.01999,18.6522933 308.574202,27.1384833 294.24213,27.7386232 C287.864434,28.0056712 281.612374,26.2885242 275.270164,26.126764 C264.637155,25.8568446 257.916118,28.8642446 251.110686,37.0843438 C244.522958,45.0421809 243.762429,57.9715125 237.08551,65.1674493 C227.866143,75.1027811 200.989671,71.031018 189.351575,70.5246798 C171.291668,69.7398077 139.334138,58.5812241 125.646549,75.6502773 C117.422678,85.906258 116.454995,101.893719 115.263852,114.244926 C114.492774,122.262107 114.690339,131.328336 112.142138,139.05454 C106.636221,155.758915 98.9148933,153.675175 86.8135756,160.261401 C58.1273723,175.874612 58.4515319,212.988532 20.4989685,217.586734 C17.943095,217.896854 18.071608,222.734346 20.61885,222.445283 C40.8893723,220.142354 53.0271339,210.059619 64.1885807,193.596449 C70.1634744,184.78291 75.3193378,174.804506 84.0735641,168.316868 C92.3252472,162.201566 103.123213,162.243681 110.131006,154.246601 C126.955655,135.042121 113.554821,103.301703 127.492724,82.5504513 C140.31333,63.4627455 180.694213,76.516508 200.202289,76.748141 C212.218251,76.8917152 231.750304,79.8885864 240.576459,69.3042994 C243.945608,65.2631654 244.833691,59.1469063 247.082667,54.5065894 C256.646334,34.7689712 267.186315,32.0286191 287.05883,33.3102578 C321.114766,35.5078996 338.073682,-8.12428736 372.665727,11.5989734 C400.958719,27.7290516 395.892047,58.0595713 401.692394,85.8670144 C405.520929,104.217706 412.863431,116.821603 431.044179,123.507373 C461.025102,134.531954 485.770561,133.369004 509.337345,157.971871 C522.771745,171.993324 539.50912,178.289529 557.550805,184.731223 C564.952768,187.372988 579.151533,189.535215 581.19815,197.882616 C583.561254,207.518357 560.892142,218.157202 554.306333,226.294985 C549.506277,232.228426 547.473087,238.382972 544.223819,245.134786 C535.265315,263.745826 517.356938,271.979325 497.244659,273.012102 C469.021678,274.462201 439.1357,263.861642 411.314562,272.683796 C390.434083,279.304479 390.500257,294.195991 384.314372,312.138932 C373.52216,343.446713 331.232764,339.143317 308.177155,326.662894 C285.914681,314.611279 271.846348,323.841183 249.108185,332.548477 C202.408109,350.433989 175.95266,316.301625 147.905186,284.774654 C130.132994,264.79966 110.740963,260.432134 85.0191894,265.052351 C69.0058987,267.92862 54.5107873,272.442591 38.5876476,266.901586 C30.4721499,264.077961 22.999217,259.218454 16.7308533,253.402743 C6.25896493,243.684687 1.68908232,225.171278 20.6265224,222.773589 C23.5286136,222.40604 23.3713291,216.901406 20.4912961,217.258427" id="Fill-144" fill="#E33314" mask="url(#mask-32)"></path>
                    </g>
                    <path d="M21.2099845,222.185023 C-24.6797128,225.401797 23.4615953,279.882945 59.7118548,275.359931 C95.9611509,270.83595 121.183624,254.223202 152.414246,295.817917 C183.165064,336.775465 214.010302,354.867522 251.506318,338.691799 C289.003297,322.517044 292.262689,321.440919 313.270016,335.221706 C334.277342,349.00346 386.553829,344.697024 389.944252,312.047784 C393.332748,279.39951 412.878503,275.125948 445.427141,275.26131 C477.972889,275.395705 510.472391,286.963328 534.963596,267.467377 C559.454802,247.971426 539.956257,240.813693 579.127733,213.213444 C618.297283,185.613195 535.29021,188.534107 512.641144,155.776577 C489.994005,123.020014 439.505704,132.609423 418.430935,112.924932 C397.356166,93.2394747 408.98997,34.4954005 389.249596,18.4956484 C370.847471,3.58169044 350.120512,-8.86191663 322.571278,19.112511 C295.021081,47.0859717 270.753399,12.6895986 252.731841,42.0108751 C234.708357,71.3331184 252.053564,74.6717179 201.605728,74.4619072 C151.158855,74.2520966 133.317465,59.4793016 123.433308,88.8344184 C113.547224,118.189535 124.790826,154.164806 97.0806938,161.109828 C62.8142026,169.698527 67.0996818,218.967283 21.2099845,222.185023" id="Fill-147" fill="#EBC618"></path>
                    <path d="M20.3641746,217.528856 C-29.1118245,223.631961 23.907203,273.041568 49.4889875,275.922202 C80.4576804,279.409691 107.870801,257.470777 136.271957,280.456322 C163.608852,302.582477 177.572553,339.094522 216.721473,344.234534 C246.903791,348.198288 275.618531,316.25973 303.710926,330.156873 C323.578708,339.984638 340.298098,346.857833 363.154104,339.985598 C371.909399,337.352698 380.44856,332.943407 385.968622,325.447995 C394.052361,314.470856 390.550823,299.266866 399.262697,288.713181 C422.751663,260.256351 479.50766,283.454102 510.328726,278.558943 C534.260571,274.757466 544.492127,260.947703 554.270191,241.32866 C561.885965,226.044972 576.853138,220.964493 586.938997,208.577764 C589.694686,205.193978 592.575809,201.887009 591.765312,197.206938 C589.493991,184.09909 563.038028,179.751252 553.469343,176.205191 C540.175267,171.279305 526.58208,165.849309 516.686301,155.342674 C507.159105,145.226845 500.10296,137.069848 486.757746,131.621607 C454.98531,118.652029 417.308792,125.240041 408.463765,84.0229592 C403.819811,62.3836311 407.559675,32.9291411 390.656959,15.8594599 C372.070533,-2.91267633 348.075006,-5.36793732 327.207611,10.3564874 C316.681768,18.2897554 310.197794,26.8029913 295.778672,27.4050439 C289.36224,27.6729429 283.072206,25.9503234 276.69051,25.7880476 C265.993883,25.517268 259.23106,28.5342527 252.385257,36.7805497 C245.757517,44.7637488 244.991405,57.7342867 238.274896,64.9531573 C228.999533,74.9201534 201.960784,70.8354134 190.251037,70.3274615 C172.080473,69.540088 139.929805,58.3459415 126.159081,75.4693945 C117.884295,85.7580615 116.910734,101.796475 115.713322,114.187046 C114.937561,122.229778 115.136325,131.324902 112.572647,139.07573 C107.033288,155.833342 99.2640984,153.742961 87.090245,160.350177 C58.2298084,176.013148 58.5559368,213.245352 20.3728585,217.858209 C17.8014612,218.169317 17.9307547,223.022226 20.4925032,222.732243 C40.8871088,220.421973 53.0985924,210.307105 64.3268663,193.791466 C70.339015,184.949838 75.5261939,174.939632 84.3335914,168.431318 C92.6353933,162.296526 103.498944,162.338775 110.5493,154.316208 C127.476138,135.050523 113.992946,103.208947 128.016469,82.3915597 C140.914945,63.2430205 181.540127,76.3383859 201.167655,76.5707571 C213.2566,76.7147889 232.907285,79.7212113 241.787048,69.1031917 C245.176661,65.0491785 246.070137,58.9134265 248.331809,54.2583208 C257.954528,34.4577979 268.558526,31.7087122 288.551743,32.9944355 C322.814526,35.1990813 339.876446,-8.57216335 374.678596,11.2139564 C403.142468,27.3954418 398.045987,57.8226262 403.881564,85.7186928 C407.733353,104.127869 415.120451,116.771935 433.411625,123.479013 C463.574645,134.53873 488.470402,133.372073 512.180325,158.053351 C525.695358,172.11949 542.535356,178.435762 560.686623,184.897986 C568.133544,187.54817 582.418548,189.717288 584.477596,198.091293 C586.855053,207.757743 564.048255,218.430495 557.422444,226.594213 C552.593235,232.546565 550.547695,238.720725 547.278692,245.494058 C538.265776,264.164412 520.248627,272.424152 500.014191,273.46022 C471.61979,274.914941 441.552292,264.280597 413.562175,273.130867 C392.554872,279.772651 392.621449,294.711623 386.397992,312.711749 C375.540231,344.119309 332.993978,339.802198 309.798335,327.281999 C287.400645,315.191975 273.246864,324.451295 250.370594,333.18634 C203.386872,351.128854 176.77074,316.887709 148.551946,285.26026 C130.672775,265.221605 111.162962,260.840159 85.2849601,265.475101 C69.1744085,268.360536 54.5912572,272.888894 38.571404,267.330229 C30.4066146,264.497605 22.887328,259.622611 16.5818566,253.788365 C6.04636443,244.039337 1.44872542,225.466925 20.5011871,223.061595 C23.420905,222.692874 23.2617003,217.170697 20.3641746,217.528856" id="Fill-149" fill="#E33314"></path>
                    <path d="M111.479998,221.801173 C96.9067451,213.741342 117.539408,190.932482 151.20419,195.276843 C184.870901,199.622168 189.73926,175.138839 199.64668,174.473295 C209.5541,173.807752 219.800029,171.478348 227.121856,164.76986 C242.427098,150.745213 225.052225,120.333722 258.717007,110.557945 C292.382753,100.782168 285.866211,121.419812 305.414873,115.988396 C324.961606,110.557945 324.961606,80.1464532 340.165585,85.577869 C355.369564,91.0073557 345.596197,134.452895 370.572578,136.625076 C395.550888,138.797256 384.691592,174.639199 417.270444,168.123622 C449.849297,161.606116 475.913536,180.070615 482.429114,186.588121 C488.945656,193.104662 505.2346,212.656216 520.438579,207.2248 C535.641593,201.794349 499.803987,252.84252 453.107086,234.378021 C406.410184,215.913522 386.862487,223.516154 371.659472,247.412069 C356.455493,271.307019 309.758591,293.029789 293.468683,274.56529 C277.178775,256.100791 252.201429,287.599337 227.224084,279.995741 C202.246739,272.392145 193.557373,227.860515 176.183464,225.689299 C158.806661,223.516154 126.055179,229.86004 111.479998,221.801173" id="Fill-151" fill="#E14459"></path>
                    <path d="M111.025308,220.162339 C92.2896892,206.001035 139.18456,196.867419 143.004639,196.822055 C151.702563,196.719745 159.771026,198.92907 168.447775,196.711058 C183.297865,192.915921 189.67429,179.374271 204.292422,176.097443 C215.465843,173.590838 226.44388,170.419215 231.921348,159.443047 C234.497905,154.280232 234.483468,148.4746 235.555669,142.950803 C239.247739,123.944233 247.889839,110.575353 270.199143,110.251048 C281.964488,110.079244 288.694142,119.689665 299.83195,119.076768 C313.587702,118.318127 316.903443,106.47425 324.501253,97.7701444 C344.180101,75.2261442 345.673869,110.564736 351.167699,123.562017 C358.026326,139.787868 369.782046,133.724529 380.753345,145.058784 C387.609084,152.140401 388.519589,163.213088 397.515882,168.56315 C403.374492,172.047495 409.069481,171.009913 415.536378,170.514769 C430.089063,169.397077 443.347213,169.205003 457.215574,174.834006 C472.755762,181.142504 480.416134,191.966172 493.042897,201.796657 C497.475114,205.246255 502.654214,208.98155 508.341503,210.017201 C507.817914,209.922612 520.197321,211.301872 519.031759,209.581899 C520.319556,211.484294 511.216428,220.014665 511.564846,219.684569 C494.858133,235.535924 473.107067,238.369729 451.724631,231.943478 C434.386532,226.733369 416.820325,218.433679 398.207904,222.579181 C386.495496,225.188096 378.118077,232.465647 371.027494,241.827049 C357.467125,259.731369 335.711247,280.039983 311.109318,278.931942 C293.113846,278.120216 287.541092,263.037153 268.636077,268.143986 C257.806262,271.069485 247.911976,278.01501 236.406501,278.559378 C218.659348,279.399096 208.900773,264.924104 200.61479,251.644986 C194.119018,241.235386 188.16801,226.777768 175.370887,223.169879 C154.348418,217.243597 131.985216,228.200462 110.757739,219.4896 C108.271655,218.469391 107.658556,223.096524 109.843383,224.091637 C129.224826,232.922183 150.118322,225.169757 170.300547,227.8916 C192.0776,230.828681 197.649392,261.968685 212.986496,275.248768 C226.932819,287.326221 241.96193,283.843807 257.797599,277.737999 C262.400175,275.96301 267.291494,273.170709 272.200137,272.335817 C298.183224,267.918131 278.98754,274.076059 293.904041,279.54677 C301.891656,282.477094 307.110217,284.725027 316.069936,283.631464 C334.034608,281.441443 352.746165,270.59268 364.916714,257.425524 C379.931388,241.181335 387.4445,225.197748 412.889561,226.753638 C436.292241,228.185984 456.460028,243.821136 480.285236,240.255715 C494.664675,238.103336 513.008564,229.251556 520.737272,216.114322 C522.585232,212.971655 526.114643,207.915977 522.231039,204.81964 C521.678576,204.378547 520.437941,204.74532 520.070274,204.327392 C529.978034,215.625934 471.300494,184.834365 499.478033,200.816987 C490.703111,195.841419 484.994647,186.830383 477.123493,180.680176 C463.927904,170.369025 446.578255,164.380971 429.913891,164.265148 C412.906885,164.147395 402.387951,170.797571 390.998936,154.314979 C387.383864,149.083636 385.865072,142.795407 380.582024,138.727121 C371.781115,131.946644 363.158264,136.174187 356.014744,124.690327 C351.104176,116.795053 351.653751,106.079486 348.8154,97.4448746 C346.209969,89.5196793 341.618944,79.8252863 331.475377,83.1909124 C312.987115,89.3247104 318.736965,122.112298 290.0291,111.769296 C275.696824,106.606481 266.764055,102.517926 250.618468,110.465321 C232.369863,119.446437 236.061933,133.530525 230.734611,150.13087 C223.754713,171.882447 210.306955,165.281496 195.251856,172.973115 C188.838858,176.248978 184.927342,183.158791 178.984996,187.151792 C158.488041,200.924123 125.448057,182.926179 108.381378,204.932567 C103.140679,211.688914 102.373583,218.067871 109.574852,223.418898 C111.361213,224.746038 112.546025,221.310918 111.025308,220.162339" id="Fill-153" fill="#E33314"></path>
                    <path d="M646.741544,234.513024 C647.910605,232.85364 649.315513,231.281397 650.51417,229.588639 C651.759071,227.83099 653.07334,226.128962 654.551314,224.561354 C657.434195,221.506789 661.821872,219.459907 664.118373,215.968711 C665.191246,214.33621 664.787994,211.159277 662.364782,211.115707 C657.830048,211.034128 653.379478,215.825948 650.498447,218.875878 C648.74948,220.727157 647.135547,222.713783 645.776884,224.87469 C644.281338,227.250669 643.755075,229.293844 642.944872,231.91085 C642.284501,234.044874 645.119288,236.814841 646.741544,234.513024" id="Fill-159" fill="#E33314"></path>
                    <path d="M681.206574,200.635233 C684.463686,197.834878 687.49332,194.761808 691.065187,192.40963 C694.469928,190.168745 698.88857,189.401731 700.734391,185.340064 C701.416824,183.84213 701.041718,181.372645 699.676851,180.436185 C695.915573,177.858415 691.133895,181.635334 687.815503,183.851154 C683.773824,186.550242 679.993049,189.960198 677.384945,194.284554 C675.783315,196.939527 677.668132,203.677222 681.206574,200.635233" id="Fill-161" fill="#E33314"></path>
                    <path d="M684.732424,235.201937 C689.421568,232.988691 692.82888,227.56916 696.876198,224.237701 C701.126247,220.738418 706.733584,218.15058 710.150895,213.790848 C711.4,212.197905 710.739993,208.647625 708.351784,208.688422 C702.635355,208.785779 696.841653,213.967945 692.761606,217.609091 C688.500648,221.412498 683.344226,225.910385 681.74239,231.597879 C681.290566,233.203804 682.761492,236.132854 684.732424,235.201937" id="Fill-163" fill="#E33314"></path>
                    <path d="M731.07099,213.324568 C734.530812,211.874767 737.77699,210.349404 741.040973,208.402903 C744.250555,206.488642 747.457171,204.908873 749.224667,201.429955 C750.220676,199.467334 749.046631,196.860916 746.910207,196.59695 C743.628421,196.191933 740.551375,198.815478 737.89667,200.472825 C734.649502,202.500934 731.795001,204.716439 728.86434,207.14755 C726.763523,208.889528 727.712056,214.732054 731.07099,213.324568" id="Fill-165" fill="#E33314"></path>
                    <path d="M719.021191,176.955328 C722.72078,175.580829 726.126511,173.8697 729.580277,172.001538 C733.045345,170.127057 736.779782,168.498055 739.242721,165.411525 C740.48408,163.853821 739.952876,159.986633 737.2978,160.161717 C733.580316,160.405391 730.427942,162.605671 727.288755,164.368242 C723.624956,166.425929 720.121273,168.515203 716.781471,171.033161 C714.581308,172.691043 715.613576,178.22243 719.021191,176.955328" id="Fill-167" fill="#E33314"></path>
                    <path d="M761.328821,181.037015 C765.37889,182.99935 770.910524,181.557309 774.987033,180.18717 C779.263302,178.750122 783.673726,176.621014 785.656654,172.30987 C786.505641,170.462379 785.603776,167.523371 783.346665,167.440484 C779.709828,167.307664 776.213021,170.021977 772.847429,171.219351 C769.083293,172.558532 764.691475,172.526575 761.167249,174.31914 C758.526283,175.664313 758.747587,179.786714 761.328821,181.037015" id="Fill-169" fill="#E33314"></path>
                    <path d="M776.506993,155.269437 C778.681695,154.878004 780.928594,155.290514 783.142322,154.936217 C784.842862,154.664222 786.529744,154.243682 788.216626,153.8934 C792.08016,153.092469 796.261754,152.718098 799.307702,149.964017 C801.06483,148.375201 801.020926,144.543175 798.524263,143.678008 C794.970006,142.4465 791.295746,143.731203 787.753197,144.598377 C785.840942,145.067093 783.884784,145.450496 781.997896,146.010546 C779.807584,146.66193 777.823132,148.025923 775.654284,148.618091 C772.836635,149.387908 773.445435,155.81945 776.506993,155.269437" id="Fill-171" fill="#E33314"></path>
                    <path d="M808.423715,177.076977 C812.485922,177.279198 816.576045,176.974387 820.628627,176.665631 C824.250922,176.389427 827.755779,176.536407 830.8265,174.387934 C832.939425,172.910242 832.11447,169.351156 830.068927,168.352876 C826.647817,166.683815 822.458545,167.731417 818.793895,168.09936 C814.992555,168.481114 811.208541,168.910216 807.470733,169.725018 C804.071763,170.465837 805.118118,176.912241 808.423715,177.076977" id="Fill-173" fill="#E33314"></path>
                    <path d="M777.951412,205.588409 C781.223847,203.022006 784.803897,201.030263 788.693514,199.725435 C792.170049,198.558607 796.295017,198.909788 799.275462,196.635864 C801.011776,195.311469 800.918027,191.809956 799.133861,190.573098 C795.539163,188.081874 790.510883,189.6936 786.704272,191.120982 C782.198449,192.809947 778.291253,195.544216 774.914327,199.084864 C772.544229,201.568878 774.344996,208.417425 777.951412,205.588409" id="Fill-175" fill="#E33314"></path>
                    <path d="M743.318538,232.242509 C744.329625,231.12315 745.73469,230.028729 746.820464,228.831676 C748.114431,227.408257 749.573645,226.200653 751.163562,225.142681 C754.17535,223.13896 758.993649,222.790778 761.038229,219.73484 C762.113734,218.129178 761.903674,215.817561 760.406183,214.572549 C756.907057,211.662406 750.696763,215.600787 747.719519,217.894179 C745.861659,219.324312 744.178382,221.072892 742.741575,222.943288 C741.001348,225.206945 740.615772,227.139687 739.959452,229.809077 C739.43477,231.945164 741.630593,234.111946 743.318538,232.242509" id="Fill-177" fill="#E33314"></path>
                    <path d="M796.663964,237.128605 C800.053615,233.642067 803.142294,229.776035 807.094874,227.000422 C810.907186,224.322937 816.322824,223.678098 819.24151,219.896176 C820.291196,218.535405 820.197374,215.407333 818.604266,214.465107 C813.952205,211.714527 807.948557,215.70472 804.014555,218.621517 C799.21015,222.184154 795.177683,226.793153 793.36349,232.833014 C792.820069,234.639365 794.255259,239.605829 796.663964,237.128605" id="Fill-179" fill="#E33314"></path>
                    <path d="M827.912636,201.182333 C831.635576,199.359308 835.447477,197.817382 839.110155,195.860675 C842.345248,194.131044 846.369506,192.67702 848.426115,189.628878 C849.592165,187.900163 849.187539,184.497672 846.504382,184.424421 C842.926838,184.327364 839.450691,187.193295 836.498739,188.905528 C832.826496,191.034374 829.449831,193.496511 825.869418,195.743474 C823.659759,197.129742 825.068776,202.57501 827.912636,201.182333" id="Fill-181" fill="#E33314"></path>
                    <path d="M828.234287,232.87907 C830.909998,232.26799 833.026279,231.724705 835.43422,230.409095 C837.78343,229.124635 839.845958,227.638619 841.786047,225.871341 C845.024176,222.92038 850.361662,218.117855 848.745086,213.558112 C848.28918,212.269988 847.447048,211.242053 845.891194,211.151353 C845.69609,211.139443 845.49999,211.128449 845.303891,211.117455 C844.418955,211.065233 843.15078,211.758769 842.706819,212.444975 C838.690266,218.637319 832.642043,223.525048 826.065249,227.350028 C823.517948,228.831463 825.04593,233.60742 828.234287,232.87907" id="Fill-183" fill="#E33314"></path>
                    <path d="M620.631573,267.827087 C622.355895,263.69671 624.460153,259.854061 627.490209,256.444348 C630.44013,253.125167 634.675043,251.066253 637.407184,247.638614 C638.533792,246.225071 638.089748,242.552729 635.656464,242.66298 C630.643767,242.88886 626.154307,247.79189 623.230784,251.27331 C619.726515,255.445815 617.322457,260.371254 616.222247,265.592488 C615.6613,268.252852 619.210821,271.229628 620.631573,267.827087" id="Fill-185" fill="#E33314"></path>
                    <path d="M650.101474,274.171098 C655.819739,273.167695 660.673958,270.370474 665.012904,266.7232 C669.108497,263.2785 674.283901,258.965762 674.382424,253.417704 C674.405084,252.076363 673.329215,249.733512 671.565657,249.955018 C667.320308,250.489851 664.306495,256.319998 661.260169,258.979962 C657.326153,262.415195 652.867995,265.226616 648.731022,268.419519 C647.143819,269.647267 647.228549,274.674692 650.101474,274.171098" id="Fill-187" fill="#E33314"></path>
                    <path d="M698.995098,261.810505 C703.042433,259.374131 707.109321,256.951553 711.053562,254.33951 C714.997803,251.726547 719.678813,249.384906 722.404587,245.360152 C723.296885,244.043094 723.112027,239.906133 720.773744,240.254712 C716.561102,240.88197 712.949251,244.286823 709.516037,246.735154 C705.302507,249.741762 701.215178,252.929558 697.133181,256.123793 C695.273042,257.580651 696.414188,263.364854 698.995098,261.810505" id="Fill-189" fill="#E33314"></path>
                    <path d="M731.627261,264.24295 C736.541515,265.124786 741.182438,263.620642 745.604888,261.513725 C749.854261,259.488665 754.828098,256.9399 756.612778,252.423748 C757.236044,250.844258 756.759373,247.350403 754.350481,247.5197 C750.238246,247.808064 746.600791,251.821905 743.039943,253.700922 C739.077141,255.791095 734.81831,257.206869 731.062633,259.669125 C729.767865,260.517474 729.84069,263.921099 731.627261,264.24295" id="Fill-191" fill="#E33314"></path>
                    <path d="M774.193671,249.935215 C776.995391,249.980175 779.76042,249.722675 782.551792,249.482546 C785.149357,249.257744 787.56911,249.178042 789.68216,247.373498 C791.567535,245.764123 790.967301,242.077376 788.969029,240.972783 C786.537986,239.631126 783.755082,240.45063 781.160339,240.841989 C778.516675,241.239479 775.92005,241.663537 773.31684,242.318527 C770.30532,243.074678 771.077722,249.885145 774.193671,249.935215" id="Fill-193" fill="#E33314"></path>
                    <path d="M675.038118,293.541676 C682.224192,291.773368 691.786645,292.052624 697.589245,287.140343 C698.961732,285.978338 699.240424,282.23837 696.899007,281.766071 C689.14356,280.198302 680.754813,285.632548 673.637662,287.79069 C670.786807,288.655634 671.767725,294.345709 675.038118,293.541676" id="Fill-195" fill="#E33314"></path>
                    <path d="M624.003456,298.376295 C625.794698,297.829252 627.426092,297.80461 629.230498,297.083103 C630.711446,296.491704 632.181111,295.834266 633.63385,295.171899 C636.829878,293.713116 639.556703,292.276016 641.924339,289.531926 C643.24826,287.998231 643.388362,284.068386 640.726417,283.929407 C637.16744,283.741145 634.265722,285.187116 631.117649,286.772065 C629.46839,287.601994 627.765535,288.421082 626.170812,289.361406 C624.640969,290.263289 623.590671,291.544653 622.118186,292.51849 C619.970576,293.937847 621.147812,299.248609 624.003456,298.376295" id="Fill-197" fill="#E33314"></path>
                </g>
            </g>
        </g>
    </g>
</svg>