<?xml version="1.0" encoding="UTF-8"?>
<svg width="418px" height="436px" viewBox="0 0 418 436" version="1.1" xmlns="http://www.w3.org/2000/svg" xmlns:xlink="http://www.w3.org/1999/xlink">
    <!-- Generator: Sketch 52.6 (67491) - http://www.bohemiancoding.com/sketch -->
    <title>Blob Pattern</title>
    <desc>Created with Sketch.</desc>
    <defs>
        <polygon id="path-1" points="0.171596462 0.0813075916 203.019231 0.0813075916 203.019231 233.676684 0.171596462 233.676684"></polygon>
        <polygon id="path-3" points="0.0580914724 0.0676123125 204 0.0676123125 204 236.928175 0.0580914724 236.928175"></polygon>
        <polygon id="path-5" points="0.259415249 0.230259717 107 0.230259717 107 137.929085 0.259415249 137.929085"></polygon>
        <polygon id="path-7" points="0.0517040469 0.325749225 107.981985 0.325749225 107.981985 140.958885 0.0517040469 140.958885"></polygon>
        <polygon id="path-9" points="0.141175812 0.182163339 26 0.182163339 26 48.6545588 0.141175812 48.6545588"></polygon>
        <polygon id="path-11" points="0.111443477 0.200110942 27 0.200110942 27 50.6722819 0.111443477 50.6722819"></polygon>
        <polygon id="path-13" points="0.37599611 0.110127237 34 0.110127237 34 52.6760672 0.37599611 52.6760672"></polygon>
        <polygon id="path-15" points="0.102898248 0.0569442239 34 0.0569442239 34 53.6748088 0.102898248 53.6748088"></polygon>
        <polygon id="path-17" points="0.319643716 0.352338388 11 0.352338388 11 10.7391561 0.319643716 10.7391561"></polygon>
        <polygon id="path-19" points="0.260015785 0.0164058738 7 0.0164058738 7 10.723898 0.260015785 10.723898"></polygon>
        <polygon id="path-21" points="0.257262942 0.236350951 2.57142857 0.236350951 2.57142857 10.777997 0.257262942 10.777997"></polygon>
        <polygon id="path-23" points="0.169225839 0.0569442239 243.950864 0.0569442239 243.950864 53.6748088 0.169225839 53.6748088"></polygon>
        <polygon id="path-25" points="0.201574436 0.373686749 171.662655 0.373686749 171.662655 19.685 0.201574436 19.685"></polygon>
        <polygon id="path-27" points="0.0814851393 0.208231098 173.695295 0.208231098 173.695295 19.6966667 0.0814851393 19.6966667"></polygon>
        <polygon id="path-29" points="0.37599611 0.228076397 34 0.228076397 34 140.781461 0.37599611 140.781461"></polygon>
        <polygon id="path-31" points="0.102898248 0.173346231 34 0.173346231 34 141.722224 0.102898248 141.722224"></polygon>
    </defs>
    <g id="Symbols" stroke="none" stroke-width="1" fill="none" fill-rule="evenodd">
        <g id="Newsletter-Sign-Up" transform="translate(-1202.000000, 0.000000)">
            <g id="Blob-Pattern">
                <g transform="translate(1202.000000, 0.000000)">
                    <g>
                        <g id="Group-3" transform="translate(214.000000, 126.000000)">
                            <mask id="mask-2" fill="white">
                                <use xlink:href="#path-1"></use>
                            </mask>
                            <g id="Clip-2"></g>
                            <path d="M298.116617,134.74807 C302.590191,130.296931 308.853593,134.302996 317.801139,136.973837 C326.748288,139.644283 336.590946,131.187475 335.696231,124.51136 C334.801516,117.83485 337.485661,103.146607 348.669994,98.6954686 C359.854725,94.2443301 360.749043,90.6837355 360.302083,82.226928 C359.854725,73.7701206 344.196023,78.6663334 336.590946,75.9954922 C328.985472,73.3250463 327.6434,67.9841544 327.196043,58.1917287 C326.748288,48.4000936 312.432452,50.6254652 311.09038,57.3015801 C309.774529,63.8488368 303.932264,69.9411375 299.011332,69.7644517 C294.090003,69.5877659 286.261247,50.168928 276.530627,49.8463875 C266.46429,49.5123841 253.043169,64.2006274 243.647868,59.8609551 C234.253362,55.5212828 241.970477,47.843553 229.555712,46.5083301 C217.140947,45.1727118 217.140947,45.8403233 216.46991,34.8241409 C215.798874,23.8083537 207.746043,21.4715159 189.627272,24.4759652 C171.508501,27.4804145 161.442164,14.7950057 153.38973,5.11404628 C145.336898,-4.56651791 131.579664,0.1067625 111.112465,15.7966206 C90.6448684,31.4860834 76.5523143,49.8463875 95.0064049,63.1990125 C113.46129,76.5520328 137.619387,76.2184247 138.626139,86.2329922 C139.632892,96.2475598 115.474398,101.922455 94.6714827,104.926904 C73.8677724,107.930958 59.1045794,119.615148 68.8348025,131.966158 C78.5658201,144.317563 85.6118985,148.657235 74.8749226,160.007026 C64.1375493,171.357212 46.3540977,178.701333 31.5909047,182.707002 C16.8273145,186.713067 14.4784893,192.053958 20.8539288,198.396465 C27.228971,204.739367 29.2420795,209.413043 19.8471759,212.083094 C10.4522723,214.753935 -6.65974591,223.433279 3.07047715,231.778621 C12.8007002,240.124357 56.4200375,219.093607 65.1439049,204.739367 C73.8677724,190.385127 89.9738323,173.026438 107.08585,172.024823 C124.198266,171.023208 127.553447,178.367725 134.599922,184.042621 C141.646001,189.717121 153.725049,189.049904 169.495392,175.029273 C185.265338,161.009036 192.199378,169.906175 202.042037,170.6896 C210.430188,171.357212 216.805627,167.685151 223.515989,160.341029 C230.226748,152.996908 240.963724,163.679087 240.628404,142.98234 C240.292687,122.285594 241.970477,115.609083 255.727314,117.27831 C269.484549,118.947141 278.208416,134.302996 281.563597,140.311894 C284.918778,146.320398 293.642645,139.199208 298.116617,134.74807" id="Fill-1" fill="#090C15" mask="url(#mask-2)"></path>
                        </g>
                        <g id="Group-6" transform="translate(213.000000, 125.000000)">
                            <mask id="mask-4" fill="white">
                                <use xlink:href="#path-3"></use>
                            </mask>
                            <g id="Clip-5"></g>
                            <path d="M299.62152,137.162957 C306.188889,132.345278 314.682924,139.558322 321.368,140.010921 C325.539462,140.293101 329.768982,138.648765 332.891813,135.923265 C339.47986,130.174628 336.48269,123.124869 338.567626,115.56663 C341.165942,106.149248 346.94117,103.383324 354.811275,98.952454 C357.08152,97.6739222 359.345006,96.1825661 360.706994,93.9005493 C362.985591,90.0827885 363.756257,82.4008972 360.092608,79.2390477 C354.664936,74.5545326 344.237076,78.5573754 337.892795,76.3787985 C325.472655,72.1135911 334.293965,57.9827634 325.333871,52.8809222 C320.641076,50.2093219 314.684515,52.6550192 311.900491,56.7688319 C309.851345,59.7963286 309.669614,63.7179256 306.857357,66.4489741 C302.756678,70.4323972 299.21352,70.3551145 295.907766,66.5904607 C292.841801,63.0988721 290.478503,59.0429222 287.232795,55.6892533 C281.264304,49.5224975 275.907813,49.1717533 268.187626,52.7009925 C263.463813,54.8601497 259.128515,58.0624239 254.182807,59.7230092 C249.266924,61.3736865 244.852094,61.4065811 241.51214,56.7767584 C240.19986,54.9572483 239.99745,52.6439222 238.70545,50.9555945 C233.634082,44.3306915 221.533263,49.5633186 218.812468,41.4304139 C216.757357,35.2866446 219.198596,29.1436681 212.423251,25.3619724 C203.389193,20.3199758 191.867368,25.8724339 182.327485,24.8328838 C168.406175,23.3153704 162.92283,12.5897333 153.646994,4.16196572 C138.780047,-9.34505268 112.932889,14.107643 102.735673,23.4354557 C89.5194152,35.5236446 78.2091462,53.4991831 96.6804912,66.355046 C106.278035,73.0346413 117.47855,75.7759941 128.246012,79.8965443 C130.559602,80.7815293 133.76793,81.4869808 135.471906,83.2949975 C138.245988,86.2400594 137.468959,91.4433587 134.430433,94.2822065 C129.754737,98.6496647 120.7,100.267051 114.730316,101.702922 C102.172187,104.722889 64.4425263,105.635616 65.7520234,126.391743 C66.6093801,139.9808 88.1709474,145.862601 75.1952749,160.56215 C65.3658947,171.697186 50.0567485,177.921013 36.1239064,182.140643 C30.6083509,183.811136 18.633193,185.658785 17.4791813,193.11081 C17.1483275,195.247773 18.1043041,197.053412 19.2201404,198.779787 C20.4799298,200.728101 23.5375439,202.411277 24.2819649,204.548636 C25.0196257,206.668558 22.9211696,211.291247 21.6299649,212.308207 C20.7125614,213.0307 18.6689825,213.253036 17.5543392,213.661643 C11.7115088,215.804155 1.33773099,219.861293 0.157076023,227.062051 C-0.625122807,231.833757 3.35466667,235.421651 7.64145029,236.381541 C22.4069942,239.689633 42.6431579,227.230091 54.0508538,219.240655 C73.3314386,205.736411 81.0754854,176.908809 108.00786,174.835653 C114.564491,174.33074 121.095275,175.460651 126.544023,179.226098 C130.092351,181.678533 132.683509,185.396421 136.361076,187.678437 C143.063251,191.836242 151.093614,190.244616 157.791415,186.915519 C169.900585,180.896591 177.904304,167.218362 192.936281,170.969541 C201.209216,173.034374 208.002058,175.142009 216.060257,170.541118 C220.691415,167.896864 223.910082,162.39989 228.829146,160.570076 C231.590503,159.542416 234.92648,160.270457 237.584444,158.863518 C243.53862,155.713161 242.556,147.060283 242.564749,141.520111 C242.572702,135.978354 241.705006,127.684939 245.285146,122.932653 C248.775018,118.300849 256.444702,119.375671 261.183228,121.029519 C267.543415,123.249314 272.547579,128.54337 276.424772,133.840598 C278.467953,136.632283 280.296,142.019079 283.146035,144.118392 C288.642503,148.166019 296.100234,140.622444 299.639415,137.198626 C300.400936,136.461865 299.635041,134.528611 298.728374,135.392195 C294.443181,139.477076 288.529965,145.528503 282.754339,140.121098 C280.232772,137.76061 278.625825,133.258798 276.400117,130.443334 C271.410667,124.131128 264.936749,118.758203 256.727439,117.614024 C240.351368,115.332008 240.681427,130.907029 240.671088,143.070916 C240.66552,149.562655 240.599509,155.935497 233.390713,157.452218 C230.918058,157.972984 228.667298,157.890153 226.357287,159.102895 C222.09317,161.341317 219.413333,165.881571 215.130924,168.316964 C208.726199,171.960344 202.600632,171.411439 195.817731,169.434589 C189.295298,167.533041 183.801614,166.915573 177.534082,170.214549 C166.240515,176.158969 156.26917,191.120089 141.539813,187.455705 C134.152468,185.617964 130.101099,177.808061 123.264912,174.709227 C114.533474,170.751961 103.551673,171.970252 95.1435322,176.080894 C76.4447251,185.222832 69.9871111,205.103486 53.8898012,216.672494 C45.6789006,222.573715 36.4782222,227.33472 26.9602105,230.761708 C22.8857778,232.228492 18.6514854,233.544278 14.3388538,234.072178 C8.15880702,234.828755 -0.514573099,232.297452 3.97501754,224.474471 C8.76046784,216.135479 22.0228538,218.578798 26.9061287,211.68519 C30.4282105,206.713738 24.6100351,203.020026 22.3024094,199.290645 C16.7216374,190.269584 25.1739181,187.740263 32.6873216,185.472911 C39.1715789,183.516273 45.5723275,181.512078 51.7742456,178.759628 C61.452117,174.464696 71.9634854,168.663745 78.4425731,160.06873 C82.3098246,154.937957 82.9711345,150.245912 79.7548538,144.699003 C77.1895439,140.275663 73.1103392,136.937847 70.3191579,132.694437 C63.9693099,123.038867 71.8787836,115.667691 80.419345,111.77463 C92.1173333,106.442922 105.729661,106.396949 118.10248,103.130471 C124.679789,101.393395 135.496164,98.9116329 139.24531,92.3493487 C146.154269,80.2548186 123.013591,75.9234256 116.232281,73.48724 C102.235415,68.4583219 81.920117,59.1974875 90.642807,41.1296062 C96.9310175,28.1045142 111.531135,17.6757216 123.461357,10.1951614 C133.079181,4.16473997 145.354175,-2.06542726 154.402947,7.92107107 C160.219532,14.3390945 165.44917,21.1530426 173.623883,24.7484674 C184.484,29.5257216 194.835111,24.373944 205.966433,25.8149674 C212.944585,26.7185794 215.922269,30.2212651 216.663906,37.2234657 C216.919205,39.6362684 216.614994,42.9146363 218.019532,45.0654707 C221.207579,49.9485426 228.483181,47.3700778 233.064632,49.3168069 C240.015743,52.2705878 238.174971,61.2100059 246.500795,62.8729691 C255.573427,64.6841564 263.800632,55.9932316 271.85883,53.3576965 C284.37083,49.2656814 288.635345,62.1619691 295.790854,69.3429105 C299.822737,73.3893487 303.87331,72.4132099 307.929848,68.3144574 C310.013591,66.2091998 311.005357,63.8827952 312.300936,61.3304875 C314.16517,57.6565911 315.675088,53.7290493 320.591368,53.9430627 C325.913263,54.1745142 326.803228,60.7225309 327.882082,65.0638319 C329.513287,71.6257199 331.113474,76.5876597 338.305567,78.614842 C341.502363,79.5156798 344.911906,79.3123671 348.194199,79.3440727 C350.610784,79.3674557 354.417591,78.7218487 356.567345,79.8458152 C361.656608,82.5059222 361.329333,89.3856597 358.667392,93.2394858 C355.737825,97.4813102 350.323275,98.1629824 346.259181,100.924151 C342.98683,103.148305 340.62552,106.207904 338.911602,109.74824 C335.090877,117.642956 337.962784,130.558663 330.120515,135.605416 C319.430199,142.485153 308.456749,128.299237 298.746667,135.42826 C297.908,136.04335 298.639298,137.883469 299.62152,137.162957" id="Fill-4" fill="#EBC617" mask="url(#mask-4)"></path>
                        </g>
                        <g id="Group-9" transform="translate(309.000000, 150.000000)">
                            <mask id="mask-6" fill="white">
                                <use xlink:href="#path-5"></use>
                            </mask>
                            <g id="Clip-8"></g>
                            <path d="M24.0169426,12.0806075 C21.754487,17.6256622 21.5757574,23.9943424 25.9318463,28.0925844 C30.2875389,32.1904288 36.3619685,33.7390513 42.1046981,35.3815297 C47.8462389,37.0240081 81.2643204,52.0731666 71.552287,81.3108726 C64.8588426,101.46285 30.7202944,85.3415066 17.3330093,94.074083 C3.94572407,102.806659 15.3245796,108.180705 13.3165463,118.9284 C11.308513,129.675697 -6.76457963,133.034625 3.27598333,136.393553 C13.3165463,139.752083 26.0348833,137.736965 34.7367574,129.004388 C43.4386315,120.271812 45.4466648,129.675697 56.8259167,132.362919 C68.2055648,135.049743 68.874513,122.28693 82.2625907,118.9284 C95.6498759,115.569472 107.029524,124.973754 118.408776,113.554354 C129.788028,102.134556 127.11065,79.9674605 135.812524,75.9368265 C144.514398,71.9065902 162.587491,69.891472 173.966743,80.6391666 C185.346391,91.3868611 202.080398,92.7302732 208.104894,87.3566248 C214.129391,81.9829764 222.831265,84.6694029 224.169954,73.9217084 C225.508643,63.1740138 214.798735,68.5476622 206.096861,60.4871896 C197.394987,52.4263193 186.68508,45.7088611 179.321894,47.7239793 C171.958709,49.7390974 155.89365,53.7697314 141.83702,51.0825095 C127.779994,48.3956853 115.061657,36.9762847 109.037161,27.5720023 C103.013061,18.1677199 90.2947241,24.8847804 77.576387,26.9002963 C64.8588426,28.9154144 52.1405056,16.8243078 50.1320759,6.07621556 C48.1240426,-4.67147896 28.6928426,0.619448991 24.0169426,12.0806075" id="Fill-7" fill="#02B3E6" mask="url(#mask-6)"></path>
                        </g>
                        <g id="Group-12" transform="translate(309.000000, 149.000000)">
                            <mask id="mask-8" fill="white">
                                <use xlink:href="#path-7"></use>
                            </mask>
                            <g id="Clip-11"></g>
                            <path d="M23.9494878,13.2442814 C20.0410181,24.3872644 24.4001433,31.7519254 35.3202698,35.8237983 C44.4847925,39.2416542 52.5718861,41.7115441 60.2800466,48.213078 C70.6267927,56.9399424 81.173963,78.5778661 66.8920505,89.0740017 C57.1708826,96.2184 41.1771967,91.4996797 30.0829443,91.8031881 C22.5186269,92.0111034 11.3598244,94.8514169 10.3210456,103.997298 C9.89071152,107.784781 12.1312381,111.1644 12.755621,114.780214 C14.8072787,126.663646 6.12887418,126.295612 1.13102164,133.269934 C-2.54435042,138.39851 3.9887589,139.851129 8.42717709,140.565688 C14.5207878,141.546714 20.9295784,140.670044 26.5709398,138.181434 C29.1485614,137.043875 31.5333296,135.509603 33.7288305,133.753875 C38.8366573,129.668858 42.0486233,127.757392 48.1924396,131.237383 C58.4339929,137.039095 63.75101,136.675044 72.0887333,128.746781 C79.0569583,122.122171 86.6894118,120.701417 96.0029577,121.630663 C102.555193,122.28468 109.099459,123.452112 115.15681,120.097586 C125.432232,114.406603 127.970407,102.226832 130.707013,91.8183237 C133.004917,83.0783153 135.400444,78.4910356 144.702833,76.6070525 C153.783281,74.7688746 163.846724,75.6280186 171.65171,80.9880102 C181.583661,87.8089847 192.307348,96.9114508 205.500277,92.6675102 C209.944672,91.2379932 213.893784,88.1897644 218.18039,86.2882559 C221.995621,84.5954593 224.825067,82.9098322 226.190183,78.7069169 C229.448768,68.6688322 222.465003,67.7790186 215.076804,65.0223492 C202.013375,60.1486881 194.474957,44.9569339 178.682492,48.5631881 C157.782201,53.3348831 137.86331,54.769578 120.665884,39.6156627 C115.47199,35.038739 111.744022,26.1931797 105.081015,23.7049678 C98.9619031,21.4194932 91.4294624,24.3131797 85.4255046,25.7184 C72.5437718,28.7339678 60.7267175,25.7821288 54.0712817,13.3574 C51.9634415,9.42334068 51.9905366,4.13584068 47.7166813,1.73565424 C38.9820943,-3.16907458 27.4869936,5.71113729 23.9068529,13.2187898 C23.4725342,14.1297136 24.6180995,15.2979424 25.1859015,14.1659593 C28.1775204,8.2033322 35.2258353,2.81944237 42.233906,3.05165424 C49.9611925,3.30816271 50.2253698,11.7112051 53.6975285,16.9521034 C59.5321418,25.7582305 69.3003277,31.282722 79.9048758,29.5855441 C86.3570983,28.5539339 92.685002,25.8402814 99.2539725,25.7223831 C108.13041,25.5634593 111.840448,34.4958492 117.545961,39.9721458 C127.163929,49.204061 138.884158,54.7560356 152.299824,54.9878492 C164.744847,55.2029339 180.635731,47.3806203 192.138004,52.6649339 C199.472013,56.0341966 204.331999,62.5130271 211.27034,66.2216458 C213.299684,67.3062305 215.466097,67.6627136 217.571148,68.5003492 C218.369259,68.8174 219.497292,68.7449085 220.232844,69.1965864 C226.531262,73.0625356 223.753217,80.3543068 219.182909,83.0902644 C209.243386,89.0393492 198.813363,92.9837644 187.359303,88.4749508 C180.294253,85.6939847 175.69685,79.9046203 169.069705,76.5712051 C164.000529,74.0216542 158.252779,73.0601458 152.619785,73.1071458 C145.365069,73.1676881 135.937166,74.3144085 132.083684,81.2445186 C126.137502,91.9370186 127.998299,105.351137 118.507439,114.438468 C106.937827,125.514536 91.2720717,114.52729 78.0703775,121.277764 C74.2129103,123.250968 71.5918568,126.456129 68.4101736,129.270951 C61.2108433,135.638256 54.7853175,132.010095 47.4146505,128.003146 C37.3814905,122.549553 32.8354887,133.556315 23.5470457,136.795332 C20.3729332,137.90262 0.853695213,140.678408 3.52694664,134.138239 C4.59441431,131.525756 10.2066883,129.208417 12.1105183,126.590756 C19.1345273,116.935442 7.01464522,105.235231 17.5952859,97.4280525 C25.8214412,91.3578831 39.200449,94.6901034 48.6713855,94.9083746 C57.0836205,95.1019508 67.1785414,94.6100441 71.8241575,86.4105356 C76.1645552,78.7503322 75.8198894,68.2848661 72.2859698,60.4294932 C68.514171,52.0459678 61.2785811,45.6133407 53.5070658,40.9726881 C42.1801142,34.2098661 18.6786919,33.0145525 25.1428681,14.1404678 C25.4413127,13.2689763 24.3475469,12.1103068 23.9494878,13.2442814" id="Fill-10" fill="#E33314" mask="url(#mask-8)"></path>
                        </g>
                        <g id="Group-15" transform="translate(391.000000, 200.000000)">
                            <mask id="mask-10" fill="white">
                                <use xlink:href="#path-9"></use>
                            </mask>
                            <g id="Clip-14"></g>
                            <path d="M12.7916286,29.8273358 C14.2377238,21.2965553 1.28188254,13.0761081 5.38245397,5.39107561 C8.60356508,-0.645485366 16.2715016,-2.66404634 26.030581,6.08344959 C35.7896603,14.8309455 51.8221683,14.8309455 39.2748984,24.9241488 C26.7276286,35.017352 16.9685492,50.4937829 4.42086667,48.475222 C-8.12681587,46.456661 10.7054381,42.1323114 12.7916286,29.8273358" id="Fill-13" fill="#110906" mask="url(#mask-10)"></path>
                        </g>
                        <g id="Group-18" transform="translate(390.000000, 199.000000)">
                            <mask id="mask-12" fill="white">
                                <use xlink:href="#path-11"></use>
                            </mask>
                            <g id="Clip-17"></g>
                            <path d="M14.4118938,31.0123884 C14.7342323,27.3222023 13.70574,24.5405279 11.9058785,21.2705977 C10.6402015,18.9708535 8.64427846,16.7485977 7.75327846,14.2851791 C4.92824769,6.47229535 10.21194,1.08527209 17.7706938,3.02485349 C24.4276477,4.73315581 29.8650323,11.0615047 35.9740938,14.1788302 C36.8592785,14.630714 41.4679708,16.3026442 42.2626015,17.5653884 C45.3476631,22.4669233 39.7997862,24.7876209 36.7350785,27.4732256 C31.7537862,31.8382721 27.3469708,36.7718302 22.2946477,41.0637372 C19.5348323,43.4081558 16.5432323,45.8265047 13.0531708,47.1303651 C11.5852015,47.6783186 3.36972462,49.6009 2.62161692,47.4347837 C2.09117077,45.8992488 7.98589385,41.9995279 9.28687846,40.633993 C12.0196938,37.7665279 13.7825862,34.8532023 14.4999554,31.038086 C14.7176169,29.879714 13.2974169,29.2681093 12.9106938,30.535993 C11.2558015,35.9617605 7.57217077,39.154993 3.44781692,42.8281791 C2.46460154,43.7038767 0.542201538,44.9302488 0.225263077,46.2716674 C-0.516198462,49.4040163 2.50157077,50.1128767 5.31206308,50.5153419 C14.1360785,51.7804581 21.3508938,45.1425512 27.0981554,39.748807 C31.0152323,36.0716674 34.7487092,32.2316442 38.8111708,28.6952488 C41.1153092,26.6888535 45.3214938,24.2056674 45.8311708,20.8772256 C46.4966169,16.5299698 42.1890785,14.6892256 38.7193708,12.9180628 C33.6599862,10.3364349 29.7071862,7.39780698 25.08354,4.21208605 C22.3960015,2.36027209 19.3769862,0.566969767 15.9891092,0.248318605 C10.8661708,-0.233611628 5.79100154,2.93985349 4.68940154,7.88408605 C2.80397077,16.3441558 13.18734,22.4463651 12.9792323,30.8040395 C12.9559708,31.7311326 14.3209246,32.0529465 14.4118938,31.0123884" id="Fill-16" fill="#E33314" mask="url(#mask-12)"></path>
                        </g>
                        <g id="Group-21" transform="translate(383.000000, 383.000000)">
                            <mask id="mask-14" fill="white">
                                <use xlink:href="#path-13"></use>
                            </mask>
                            <g id="Clip-20"></g>
                            <path d="M8.1746,90.0078828 C-10.8774,91.3237858 9.1094,113.610681 24.1594,111.760428 C39.2094,109.909778 49.6806,103.114308 62.6466,120.129286 C75.4134,136.883614 88.2194,144.285025 103.7866,137.667935 C119.3542,131.051241 120.7074,130.611025 129.4294,136.248405 C138.1506,141.886181 159.8542,140.124525 161.2618,126.768525 C162.6686,113.41292 170.7834,111.664711 184.2966,111.720084 C197.8086,111.775457 211.3014,116.507092 221.4694,108.531778 C231.6374,100.55686 223.5422,97.6284127 239.805,86.3378306 C256.067,75.0472485 221.605,76.2421216 212.2018,62.8418231 C202.7994,49.4419201 181.8382,53.3647112 173.0886,45.3118754 C164.339,37.2594351 169.169,13.2282858 160.9734,6.68357687 C153.3338,0.58264403 144.7286,-4.5077291 133.2906,6.93592015 C121.853,18.3791739 111.7774,4.30846493 104.2954,16.3030769 C96.813,28.2980843 104.0138,29.6638231 83.0694,29.5779948 C62.1254,29.4921664 54.7182,23.4489799 50.6146,35.4578306 C46.5102,47.4658903 51.1782,62.1824873 39.6738,65.0235246 C25.4474,68.53695 27.2266,88.6919799 8.1746,90.0078828" id="Fill-19" fill="#EBC618" mask="url(#mask-14)"></path>
                        </g>
                        <g id="Group-24" transform="translate(383.000000, 382.000000)">
                            <mask id="mask-16" fill="white">
                                <use xlink:href="#path-15"></use>
                            </mask>
                            <g id="Clip-23"></g>
                            <path d="M8.44710233,90.0077559 C-11.8255953,92.5310647 9.89882326,112.962918 20.3803116,114.154094 C33.0694279,115.596212 44.3016837,106.524212 55.9387767,116.029006 C67.1401953,125.178432 72.8612884,140.276197 88.9021721,142.40205 C101.269079,144.041109 113.03466,130.834138 124.545242,136.581168 C132.68587,140.644668 139.536474,143.486418 148.901498,140.645065 C152.488893,139.556329 155.988126,137.733035 158.249521,134.633594 C161.561753,130.094418 160.127033,123.807388 163.696637,119.443315 C173.321009,107.676079 196.576614,117.268624 209.204847,115.244418 C219.010684,113.672462 223.202963,107.961962 227.209428,99.8492559 C230.329916,93.5292706 236.462963,91.4288294 240.595544,86.3063735 C241.724265,84.9067412 242.905172,83.5392706 242.572684,81.6044029 C241.642033,76.1841529 230.802358,74.3862706 226.881288,72.9199324 C221.434567,70.8830206 215.864498,68.6376529 211.810195,64.2930353 C207.906126,60.1104176 205.01494,56.7366088 199.54687,54.4840941 C186.528428,49.1214176 171.090847,51.8452412 167.466684,34.8018882 C165.564265,25.8533735 167.096242,13.6731971 160.170521,6.61507941 C152.554916,-1.14781765 142.722986,-2.1627 134.173172,4.33993235 C129.860312,7.62003529 127.203172,11.1403588 121.295079,11.3893147 C118.666009,11.5000941 116.08873,10.7877706 113.474288,10.7210647 C109.091056,10.6086971 106.320451,11.8566529 103.515056,15.2661971 C100.799405,18.5669471 100.485893,23.9312118 97.7334744,26.9159029 C93.932986,31.0373735 82.8537302,29.3482853 78.0561721,29.1382412 C70.6113581,28.8126529 57.4375442,24.1837412 51.7951256,31.2648882 C48.4050093,35.5193735 48.0061023,42.15105 47.5150791,47.2750941 C47.1972186,50.6004618 47.2786605,54.3614029 46.2282186,57.5668588 C43.9585209,64.4959324 40.7755674,63.6315353 35.7870558,66.3636971 C23.9617767,72.8409176 24.0954047,88.2364765 8.45026512,90.1439471 C7.39666047,90.2721971 7.44963721,92.2793294 8.49968372,92.1594176 C16.8557767,91.2044912 21.8593116,87.0214765 26.4603814,80.1920647 C28.9234047,76.53555 31.0488,72.3966088 34.6575442,69.7057412 C38.0591256,67.1685353 42.5103581,67.1860059 45.3991721,63.8685794 C52.3347767,55.9019912 46.8105674,42.7351235 52.5561721,34.1268882 C57.8411953,26.2087412 74.4873581,31.6238294 82.5291488,31.7199176 C87.4824744,31.7794765 95.5341488,33.0222706 99.1725442,28.6315941 C100.561405,26.9556088 100.927498,24.4184029 101.854591,22.4938588 C105.797009,14.3053147 110.141893,13.1689324 118.333916,13.7009912 C132.372753,14.6122412 139.363707,-3.48728824 153.623544,4.69450588 C165.28673,11.3853441 163.198102,23.9673441 165.589172,35.5026971 C167.167405,43.1155059 170.194195,48.3435794 177.688823,51.1170353 C190.047823,55.6907559 200.248614,55.2075353 209.963521,65.4139324 C215.501567,71.2304471 222.401195,73.8423 229.838498,76.5145059 C232.8898,77.6103882 238.74294,78.5073441 239.586614,81.9700941 C240.560753,85.9672853 231.215893,90.3805941 228.501033,93.7563882 C226.522312,96.2177559 225.684172,98.7708441 224.34473,101.571697 C220.651777,109.292109 213.269428,112.708006 204.978567,113.136035 C193.344242,113.737182 181.024381,109.340153 169.555707,112.999844 C160.948172,115.745903 160.975451,121.923741 158.425451,129.367006 C153.976591,142.354403 136.543684,140.569226 127.039498,135.391976 C117.862265,130.392609 112.062893,134.221447 102.689567,137.833491 C83.4384512,145.252932 72.5327535,131.093815 60.9707767,118.015491 C53.6445674,109.729271 45.650614,107.917888 35.0473581,109.834094 C28.4462186,111.027256 22.4709163,112.900182 15.9069395,110.601212 C12.5614977,109.429888 9.48093953,107.414021 6.89693953,105.001094 C2.58012558,100.970153 0.696288372,93.2902412 8.50284651,92.2960059 C9.69917209,92.1431382 9.63433488,89.86005 8.44710233,90.0077559" id="Fill-22" fill="#E33314" mask="url(#mask-16)"></path>
                        </g>
                        <path d="M384.946106,389.998377 C388.952728,389.74716 393.047111,387.321112 394.914211,383.625063 C395.251722,382.956405 394.537207,381.464146 393.75029,382.198241 C390.937939,384.824361 388.37607,386.689308 384.64699,387.68139 C383.6425,387.948778 383.857878,390.066823 384.946106,389.998377" id="Fill-25" fill="#E33314"></path>
                        <g id="Group-29" transform="translate(406.000000, 373.000000)">
                            <mask id="mask-18" fill="white">
                                <use xlink:href="#path-17"></use>
                            </mask>
                            <g id="Clip-28"></g>
                            <path d="M1.34636333,10.7209667 C3.57936333,10.3001148 5.62866333,9.20052222 7.46016333,7.73181852 C9.15563,6.37189259 11.2360967,4.50352222 11.65703,2.12467037 C11.8029633,1.30048519 11.2870633,0.0705222222 10.3795633,0.4103 C8.77063,1.01244815 7.59033,3.12811481 6.25529667,4.28189259 C4.61593,5.69885556 2.82073,6.73733704 1.00279667,7.83163333 C0.109963333,8.36981852 -0.0363366667,10.9813 1.34636333,10.7209667" id="Fill-27" fill="#E33314" mask="url(#mask-18)"></path>
                        </g>
                        <path d="M388.325283,375.886771 C390.920133,374.546745 393.735083,372.685902 395.716741,370.373038 C396.389857,369.586326 395.787973,367.663863 394.703676,368.050888 C393.377043,368.52359 392.227922,369.374876 391.073525,370.226162 C389.835082,371.13949 388.56875,372.024963 387.433574,373.096984 C386.617242,373.867657 386.975283,376.583585 388.325283,375.886771" id="Fill-30" fill="#E33314"></path>
                        <path d="M403.553234,360.771833 C405.021651,359.641436 406.329502,358.304036 407.638499,356.985239 C408.903149,355.710375 410.112366,354.481424 410.901052,352.823033 C411.216833,352.158093 410.754249,350.668707 409.834434,351.066484 C408.214244,351.767441 407.061225,353.152336 405.863095,354.429575 C404.601885,355.773307 403.337617,357.12456 402.241561,358.619487 C401.589356,359.509635 402.335225,361.709873 403.553234,360.771833" id="Fill-32" fill="#E33314"></path>
                        <g id="Group-36" transform="translate(410.000000, 353.000000)">
                            <mask id="mask-20" fill="white">
                                <use xlink:href="#path-19"></use>
                            </mask>
                            <g id="Clip-35"></g>
                            <path d="M1.63531667,10.6804867 C5.74159444,9.49065333 10.2488167,6.12758667 11.5943722,2.15182 C11.9680944,1.04778667 10.9320944,-0.85778 9.70631667,0.46882 C8.33120556,1.95675333 7.29753889,3.63022 5.74898333,4.99165333 C4.24320556,6.31532 2.53637222,7.39332 0.768483333,8.37928667 C-0.239905556,8.94175333 0.357038889,11.0511867 1.63531667,10.6804867" id="Fill-34" fill="#E33314" mask="url(#mask-20)"></path>
                        </g>
                        <g id="Group-39" transform="translate(414.000000, 335.000000)">
                            <mask id="mask-22" fill="white">
                                <use xlink:href="#path-21"></use>
                            </mask>
                            <g id="Clip-38"></g>
                            <path d="M2.23157143,10.329275 C3.25842857,8.83445357 4.45242857,7.41623929 5.787,6.13984643 C7.17771429,4.81041786 8.88085714,3.734775 10.1014286,2.266275 C10.6937143,1.55441786 10.2518571,-0.0315464286 9.063,0.275275 C7.06971429,0.789525 5.48828571,2.37548929 4.14171429,3.743025 C2.64685714,5.26259643 1.46785714,6.94520357 0.399,8.734275 C-0.219428571,9.768275 1.33242857,11.638275 2.23157143,10.329275" id="Fill-37" fill="#E33314" mask="url(#mask-22)"></path>
                        </g>
                        <path d="M172.584777,164.666726 C175.364576,166.277006 178.385543,167.546388 181.309657,168.881604 C183.073463,169.686366 183.705516,166.151014 181.989944,165.432139 C179.168471,164.249022 176.331177,162.946345 173.397802,162.051156 C171.983207,161.619075 171.517464,164.048494 172.584777,164.666726" id="Fill-40" fill="#E33314"></path>
                        <path d="M185.519111,160.807888 C187.379529,162.064443 189.182703,163.367029 190.833109,164.964372 C192.080662,166.17207 193.391184,168.874956 195.110997,168.998512 C195.688085,169.040101 196.020813,168.200647 195.998989,167.671295 C195.902033,165.30193 193.743948,163.536615 192.238082,162.108454 C190.457805,160.419454 188.437105,159.019154 186.264351,158.075122 C184.99712,157.52437 184.561711,160.161036 185.519111,160.807888" id="Fill-42" fill="#E33314"></path>
                        <path d="M185.934535,150.478723 C187.675056,150.60335 189.388158,150.88534 191.044595,151.456017 C192.439278,151.937038 193.716976,152.839928 195.189161,152.995059 C196.165622,153.097737 196.12614,151.571715 195.766776,151.049028 C193.817144,148.213128 188.964452,147.698253 185.877871,148.138724 C184.682794,148.309109 184.713868,150.391671 185.934535,150.478723" id="Fill-44" fill="#E33314"></path>
                        <path d="M205.103191,155.516853 C205.914854,157.250432 207.987338,158.082993 209.538768,158.991529 C210.986896,159.839522 212.617034,161.34834 214.320958,160.927312 C215.040671,160.749641 215.129216,159.564508 214.860553,159.022789 C213.99478,157.276152 211.83148,156.588419 210.213073,155.725389 C208.821326,154.983445 207.099995,153.63726 205.506941,154.091528 C204.967346,154.245853 204.905289,155.09345 205.103191,155.516853" id="Fill-46" fill="#E33314"></path>
                        <path d="M204.449061,162.353491 C205.587429,163.267209 206.671973,164.235261 207.824504,165.135204 C208.827303,165.918828 209.771019,166.816858 211.08866,166.992485 C211.993526,167.113013 212.151352,165.751237 211.879811,165.238514 C211.269552,164.082974 210.062389,163.351388 208.990794,162.589191 C207.826123,161.760799 206.605201,161.010464 205.431222,160.198907 C204.158905,159.320009 203.502108,161.59359 204.449061,162.353491" id="Fill-48" fill="#E33314"></path>
                        <path d="M199.152601,174.289874 C199.944292,175.694402 200.957236,176.936103 201.946098,178.193033 C202.89244,179.395687 203.86324,180.81271 205.069591,181.737739 C206.437366,182.786937 207.412682,180.421457 206.826063,179.334773 C206.073504,177.94235 204.906286,176.735791 203.870766,175.56047 C202.852554,174.404673 201.854286,173.193038 200.656589,172.231695 C199.508937,171.310572 198.634841,173.371874 199.152601,174.289874" id="Fill-50" fill="#E33314"></path>
                        <path d="M192.296984,182.722413 C193.516852,184.209264 194.803185,185.637571 196.130855,187.023527 C197.195504,188.135033 198.350934,189.93661 199.984584,189.999306 C200.837682,190.032107 201.097461,188.894859 200.96899,188.25129 C200.614782,186.469228 198.910209,185.229839 197.694393,184.014533 C196.400766,182.721998 195.07188,181.46517 193.688687,180.273946 C192.389386,179.154551 191.511972,181.765364 192.296984,182.722413" id="Fill-52" fill="#E33314"></path>
                        <path d="M210.627916,200.674779 C211.774103,201.430815 212.913513,202.192222 214.092315,202.906064 C215.132609,203.53667 215.942903,204.265855 217.229716,203.903372 C217.857874,203.726158 218.121336,202.919489 217.947672,202.402423 C217.5313,201.16346 216.649846,200.760701 215.477821,200.09634 C214.291394,199.424691 213.074047,198.805209 211.859241,198.178056 C210.188671,197.315768 209.332208,199.820162 210.627916,200.674779" id="Fill-54" fill="#E33314"></path>
                        <path d="M218.550749,188.714386 C220.769794,190.154253 222.708985,191.390751 224.488655,193.440723 C226.06447,195.256424 227.717473,192.202137 226.522054,190.660795 C226.617054,191.437521 226.71245,192.21383 226.807846,192.990556 C227.172805,192.289832 226.984784,191.257538 226.522054,190.660795 C224.725363,188.345233 221.9094,186.331591 219.047124,186.006285 C217.797476,185.864303 217.710789,188.169425 218.550749,188.714386" id="Fill-56" fill="#E33314"></path>
                        <path d="M219.532878,177.019271 C221.361674,178.385716 223.247691,179.667564 225.151285,180.907516 C226.798324,181.980288 228.633853,183.643629 230.548666,183.980003 C231.892776,184.216069 232.417106,182.303771 231.633603,181.317208 C230.240875,179.562825 227.968904,178.552896 226.122904,177.418086 C224.235391,176.257897 222.316837,175.148063 220.366495,174.116381 C218.991344,173.388846 218.545552,176.280859 219.532878,177.019271" id="Fill-58" fill="#E33314"></path>
                        <path d="M229.868359,168.407505 C231.556095,169.237666 233.282221,169.900698 235.024135,170.557821 C236.564409,171.138555 238.253222,172.144287 239.884628,171.982643 C241.219317,171.849699 241.308297,169.558842 240.406664,168.74514 C239.076998,167.545268 237.251128,167.22789 235.6617,166.67037 C233.924092,166.060093 232.196889,165.463322 230.420174,165.034947 C228.774416,164.637803 228.517165,167.742785 229.868359,168.407505" id="Fill-60" fill="#E33314"></path>
                        <path d="M229.287443,210.650461 C230.62871,212.336159 232.277587,213.681391 234.158678,214.644987 C235.685792,215.427265 237.981553,216.722615 239.517715,215.492982 C240.144243,214.991786 240.118986,214.011959 239.679436,213.401102 C238.687999,212.023802 236.702487,212.009154 235.253405,211.351581 C233.560046,210.583159 232.064974,209.481399 230.639266,208.265226 C229.371508,207.183655 228.529352,209.697554 229.287443,210.650461" id="Fill-62" fill="#E33314"></path>
                        <path d="M236.591046,204.179236 C239.031252,206.25517 243.84906,208.352211 246.57486,205.879539 C247.228349,205.286583 247.120723,203.949011 246.305445,203.601133 C244.956966,203.024984 243.56206,203.308368 242.160119,203.049609 C240.599203,202.761144 239.141339,202.104475 237.780198,201.220708 C236.165117,200.171992 235.375163,203.144982 236.591046,204.179236" id="Fill-64" fill="#E33314"></path>
                        <path d="M243.035642,194.226375 C244.511431,194.47044 245.980715,194.654086 247.468295,194.814676 C248.944897,194.974471 250.177974,195.269815 251.484637,194.448578 C252.307908,193.931031 252.035924,192.727398 251.428533,192.198722 C250.349946,191.260222 249.040031,191.34171 247.668726,191.236372 C246.21489,191.124277 244.773658,191.029274 243.316164,191.000257 C241.721661,190.968059 241.513505,193.975154 243.035642,194.226375" id="Fill-66" fill="#E33314"></path>
                        <path d="M250.378298,182.918515 C252.024378,182.924784 254.105458,183.342568 255.520089,182.223999 C256.206185,181.681283 256.128381,180.268968 255.466648,179.751775 C254.066556,178.655596 251.920639,179.079649 250.295777,179.08547 C248.517664,179.092187 248.592719,182.91135 250.378298,182.918515" id="Fill-68" fill="#E33314"></path>
                        <path d="M252.513009,216.931334 C255.138829,219.066053 260.4539,220.26581 262.734217,216.893331 C263.296943,216.060529 262.925572,214.722652 262.001751,214.590254 C260.592455,214.387979 259.17678,215.149269 257.747285,215.171744 C256.199788,215.196671 254.727415,214.716931 253.293667,214.085588 C251.935753,213.488161 251.598401,216.188024 252.513009,216.931334" id="Fill-70" fill="#E33314"></path>
                        <path d="M259.311906,207.99387 C260.905988,207.82891 262.483886,207.490082 264.055163,207.165582 C265.640417,206.838758 267.258406,206.723363 268.533229,205.602715 C269.225445,204.994762 269.165124,203.567039 268.235673,203.233632 C266.753773,202.70235 265.37302,203.20033 263.883396,203.513601 C262.21134,203.865207 260.52641,204.204809 258.893708,204.727185 C257.530243,205.163982 257.771893,208.153023 259.311906,207.99387" id="Fill-72" fill="#E33314"></path>
                        <path d="M265.71153,192.873505 C267.628867,191.870827 270.555368,190.893907 271.762371,189.012487 C272.222487,188.295383 272.033316,187.086645 271.02905,187.008252 C269.910604,186.920901 268.84416,187.543935 267.896797,188.075884 C266.797569,188.692945 265.704747,189.320831 264.608911,189.942745 C263.332947,190.666943 264.236974,193.644738 265.71153,192.873505" id="Fill-74" fill="#E33314"></path>
                        <path d="M165.041252,154.990776 C166.675861,154.751924 168.289823,154.269571 169.887767,153.806665 C171.482507,153.344603 173.254163,153.07616 174.550957,151.826523 C175.161444,151.237638 175.226942,149.319641 174.259419,149.097276 C172.735517,148.747243 171.311998,149.417295 169.838643,149.911485 C168.112551,150.490224 166.358336,151.061353 164.70237,151.882748 C163.692842,152.383702 163.742322,155.180588 165.041252,154.990776" id="Fill-76" fill="#E33314"></path>
                        <path d="M276.833999,212.738801 C280.420473,213.585187 285.990251,212.400854 287.867412,208.801908 C288.281334,208.007922 287.675325,206.791692 286.753089,207.030533 C285.180035,207.437589 283.873993,208.669387 282.314895,209.217696 C280.585014,209.825242 278.860274,209.891692 277.057671,209.952446 C275.773298,209.996114 275.610961,212.450217 276.833999,212.738801" id="Fill-78" fill="#E33314"></path>
                        <path d="M278.507901,203.974114 C280.079851,203.647835 281.554516,203.034616 283.043408,202.445309 C284.396178,201.90961 285.813932,201.429062 286.726417,200.250448 C287.177468,199.667697 287.113637,198.236853 286.211149,198.064458 C284.685343,197.772504 283.304118,198.531892 281.928277,199.147425 C280.429003,199.819266 278.942033,200.467581 277.563116,201.369669 C276.43568,202.106689 277.130138,204.259511 278.507901,203.974114" id="Fill-80" fill="#E33314"></path>
                        <g id="Group-84" transform="translate(0.000000, 382.000000)">
                            <mask id="mask-24" fill="white">
                                <use xlink:href="#path-23"></use>
                            </mask>
                            <g id="Clip-83"></g>
                            <path d="M8.55641238,90.0077559 C-11.8207668,92.5310647 10.0156436,112.962918 20.5517544,114.154094 C33.3065166,115.596212 44.5968814,106.524212 56.2941779,116.029006 C67.5531485,125.178432 73.3042365,140.276197 89.4281062,142.40205 C101.858992,144.041109 113.685442,130.834138 125.255572,136.581168 C133.438315,140.644668 140.32436,143.486418 149.737833,140.645065 C153.343787,139.556329 156.860725,137.733035 159.134217,134.633594 C162.463585,130.094418 161.021442,123.807388 164.609513,119.443315 C174.283676,107.676079 197.659194,117.268624 210.353155,115.244418 C220.209722,113.672462 224.423689,107.961962 228.450881,99.8492559 C231.587513,93.5292706 237.751891,91.4288294 241.905852,86.3063735 C243.04081,84.9067412 244.227429,83.5392706 243.893618,81.6044029 C242.958152,76.1841529 232.062002,74.3862706 228.121044,72.9199324 C222.645748,70.8830206 217.047259,68.6376529 212.971585,64.2930353 C209.047715,60.1104176 206.141572,56.7366088 200.645214,54.4840941 C187.559422,49.1214176 172.041976,51.8452412 168.399064,34.8018882 C166.486406,25.8533735 168.026706,13.6731971 161.065155,6.61507941 C153.410152,-1.14781765 143.527357,-2.1627 134.932914,4.33993235 C130.597741,7.62003529 127.927253,11.1403588 121.988595,11.3893147 C119.345924,11.5000941 116.755311,10.7877706 114.126947,10.7210647 C109.721435,10.6086971 106.9361,11.8566529 104.116588,15.2661971 C101.386888,18.5669471 101.071357,23.9312118 98.3050964,26.9159029 C94.4849466,31.0373735 83.3487707,29.3482853 78.5259954,29.1382412 C71.0422691,28.8126529 57.800699,24.1837412 52.1290899,31.2648882 C48.7210378,35.5193735 48.3200671,42.15105 47.826901,47.2750941 C47.5073961,50.6004618 47.5892593,54.3614029 46.5333831,57.5668588 C44.2519433,64.4959324 41.0521257,63.6315353 36.0382039,66.3636971 C24.1517479,72.8409176 24.2860671,88.2364765 8.55998893,90.1439471 C7.50093355,90.2721971 7.55418436,92.2793294 8.6092658,92.1594176 C17.0089857,91.2044912 22.0384059,87.0214765 26.6628814,80.1920647 C29.1390443,76.53555 31.2754352,72.3966088 34.9028489,69.7057412 C38.322028,67.1685353 42.7962886,67.1860059 45.7000476,63.8685794 C52.6715329,55.9019912 47.1183472,42.7351235 52.8940736,34.1268882 C58.2064384,26.2087412 74.9383212,31.6238294 83.0221127,31.7199176 C88.0010638,31.7794765 96.0943928,33.0222706 99.7516111,28.6315941 C101.147657,26.9556088 101.515644,24.4184029 102.447136,22.4938588 C106.410347,14.3053147 110.777709,13.1689324 119.012113,13.7009912 C133.123579,14.6122412 140.150699,-3.48728824 154.484308,4.69450588 C166.207435,11.3853441 164.108399,23.9673441 166.511839,35.5026971 C168.098236,43.1155059 171.140686,48.3435794 178.674087,51.1170353 C191.097025,55.6907559 201.350588,55.2075353 211.115754,65.4139324 C216.682054,71.2304471 223.617774,73.8423 231.093552,76.5145059 C234.16064,77.6103882 240.044061,78.5073441 240.8921,81.9700941 C241.871279,85.9672853 232.478074,90.3805941 229.749168,93.7563882 C227.76021,96.2177559 226.917735,98.7708441 225.571364,101.571697 C221.859305,109.292109 214.438764,112.708006 206.105012,113.136035 C194.410497,113.737182 182.026901,109.340153 170.498894,112.999844 C161.846829,115.745903 161.87425,121.923741 159.311057,129.367006 C154.839181,142.354403 137.316087,140.569226 127.762732,135.391976 C118.538021,130.392609 112.708647,134.221447 103.286829,137.833491 C83.9361192,145.252932 72.974002,131.093815 61.351813,118.015491 C53.9880997,109.729271 45.9527902,107.917888 35.2946795,109.834094 C28.6593896,111.027256 22.6531746,112.900182 16.0552397,110.601212 C12.6924906,109.429888 9.59559805,107.414021 6.99862736,105.001094 C2.65948078,100.970153 0.76589772,93.2902412 8.61284235,92.2960059 C9.815357,92.1431382 9.74978697,89.86005 8.55641238,90.0077559" id="Fill-82" fill="#E33314" mask="url(#mask-24)"></path>
                        </g>
                        <g id="Group-87" transform="translate(44.000000, 416.000000)">
                            <mask id="mask-26" fill="white">
                                <use xlink:href="#path-25"></use>
                            </mask>
                            <g id="Clip-86"></g>
                            <path d="M2.15071336,54.9503077 C-3.83797788,51.7368462 4.64075023,42.6418462 18.4748608,44.3741538 C32.3097641,46.1064615 34.3103539,36.3441538 38.3816811,36.0787692 C42.4530083,35.8133846 46.6634415,34.8845385 49.6722525,32.2095385 C55.9617456,26.6172308 48.8217641,14.4906923 62.6558747,10.5926154 C76.4903816,6.69492308 73.8124922,14.9237692 81.8457641,12.758 C89.8782433,10.5926154 89.8782433,-1.53392308 96.1261235,0.631461538 C102.374004,2.79684615 98.3577641,20.1206923 108.621488,20.9868462 C118.886004,21.853 114.423515,36.1453077 127.811377,33.5468462 C141.199239,30.9483846 151.910004,38.3106923 154.587497,40.9091538 C157.265386,43.508 163.959119,51.3037692 170.206999,49.1383846 C176.454483,46.973 161.727478,67.3283846 142.537985,59.9656923 C123.348492,52.6026154 115.315617,55.6345385 109.068133,65.163 C102.820253,74.6906923 83.6307594,83.353 76.9366304,75.9899231 C70.2425014,68.6276154 59.9783816,81.1872308 49.7142618,78.1556923 C39.4501419,75.1241538 35.8793585,57.3672308 28.7397733,56.5006923 C21.5989991,55.6345385 8.14019724,58.1641538 2.15071336,54.9503077" id="Fill-85" fill="#E14459" mask="url(#mask-26)"></path>
                        </g>
                        <g id="Group-90" transform="translate(43.000000, 416.000000)">
                            <mask id="mask-28" fill="white">
                                <use xlink:href="#path-27"></use>
                            </mask>
                            <g id="Clip-89"></g>
                            <path d="M2.85913455,53.0312222 C-4.89162975,47.5971481 14.5083748,44.0923333 16.0887089,44.0749259 C19.6869652,44.0356667 23.0248188,44.8834444 26.6143153,44.0323333 C32.75767,42.5764074 35.3955419,37.3801111 41.4429378,36.1223333 C46.0652856,35.1604815 50.606805,33.9438148 52.8727867,29.7315926 C53.938686,27.7504815 53.9327135,25.5227037 54.3762741,23.4030741 C55.9036517,16.1097407 59.4788142,10.9797407 68.7079812,10.8549259 C73.5752032,10.7893704 76.3592032,14.4771481 80.9668188,14.241963 C86.6574549,13.9508519 88.0291483,9.40566667 91.172297,6.06603704 C99.3132673,-2.58433333 99.9312261,10.9756667 102.203977,15.9630741 C105.041331,22.1893704 109.904572,19.8627037 114.443304,24.211963 C117.279464,26.9293704 117.656132,31.1778889 121.377821,33.2315926 C123.801478,34.5682593 126.157446,34.1701111 128.832746,33.9801111 C134.853066,33.5512222 140.337849,33.4775185 146.07507,35.6375185 C152.503913,38.0582593 155.672942,42.2115926 160.896526,45.9838148 C162.730096,47.3075185 164.872645,48.7408519 167.225427,49.1382593 C167.008823,49.101963 172.130077,49.6312222 171.647894,48.9712222 C172.180645,49.7012222 168.414759,52.9749259 168.558897,52.8478889 C161.647473,58.9304815 152.649244,60.0178889 143.803514,57.5523333 C136.630892,55.5530741 129.363903,52.3678889 121.664105,53.959 C116.818782,54.9597407 113.353116,57.7527037 110.419803,61.3445556 C104.809995,68.2149259 95.8097753,76.0078889 85.6321689,75.5823333 C78.1875968,75.2712222 75.8821963,69.4834444 68.0613542,71.4430741 C63.5811529,72.5656667 59.4879721,75.2308519 54.7282558,75.4397407 C47.3864114,75.761963 43.3493725,70.2078889 39.9215327,65.1115926 C37.2342879,61.1175185 34.7724069,55.5693704 29.4783474,54.1852963 C20.7815327,51.9112222 11.5300682,56.1156667 2.74844348,52.7734444 C1.71997208,52.3815926 1.46633822,54.1571481 2.37018261,54.539 C10.3881185,57.9275185 19.0315785,54.9527037 27.3807913,55.9971481 C36.3897707,57.1241852 38.694773,69.0734444 45.0396014,74.1697407 C50.8090751,78.8041852 57.0264892,77.4675185 63.5775693,75.1245556 C65.4816151,74.4434444 67.5051117,73.371963 69.5357753,73.0515926 C80.2847547,71.3564074 72.3436654,73.7193704 78.5144938,75.8186296 C81.8189011,76.9430741 83.9777753,77.8052963 87.6843336,77.3864074 C95.1161643,76.5456667 102.856974,72.3827037 107.891826,67.3301111 C114.103267,61.0967778 117.211377,54.9634444 127.73778,55.5604815 C137.419267,56.1101111 145.762508,62.1097407 155.618791,60.7415926 C161.567441,59.916037 169.156151,56.5193704 172.35345,51.4782593 C173.117935,50.2723333 174.578022,48.331963 172.971409,47.1438148 C172.74286,46.9745556 172.22962,47.1152963 172.077519,46.9545556 C176.176274,51.2904815 151.901881,39.4749259 163.558686,45.6078889 C159.928576,43.6986296 157.567034,40.2408519 154.310805,37.8808519 C148.851903,33.9241852 141.674503,31.6264074 134.780599,31.5823333 C127.744947,31.5367778 123.393354,34.0886296 118.681816,27.7638148 C117.186292,25.7564074 116.557981,23.3434444 114.37243,21.781963 C110.731569,19.1804815 107.16437,20.8030741 104.209157,16.396037 C102.177697,13.3664074 102.405052,9.25455556 101.230851,5.94122222 C100.153006,2.90011111 98.2537387,-0.819888889 94.057432,0.471592593 C86.4089973,2.8252963 88.7876609,15.4067778 76.9114641,11.4378889 C70.9823245,9.45677778 67.2869149,7.88788889 60.6076243,10.9371481 C53.0583336,14.3838148 54.5857112,19.7882593 52.3818439,26.1582593 C49.4943199,34.5049259 43.9310979,31.9723333 37.7029332,34.9230741 C35.0499309,36.1801111 33.4317707,38.831963 30.9734732,40.3645556 C22.494059,45.649 8.82570206,38.7427037 1.76536339,47.1871481 C-0.40266865,49.7797407 -0.720009611,52.2275185 2.25909336,54.2812222 C2.99809565,54.7901111 3.48824211,53.471963 2.85913455,53.0312222" id="Fill-88" fill="#E33314" mask="url(#mask-28)"></path>
                        </g>
                        <path d="M213.466215,389.320678 C216.20047,391.61139 222.510204,391.758574 224.726583,388.509464 C225.285905,387.689317 224.964052,386.111555 223.97161,386.014992 C222.327995,385.855046 220.653763,387.024436 218.975424,387.170769 C217.231743,387.323484 215.596716,386.785794 213.879172,386.752188 C212.784798,386.730493 212.790398,388.754913 213.466215,389.320678" id="Fill-91" fill="#E33314"></path>
                        <path d="M204.781547,401.813632 C206.330664,402.249682 207.90523,402.464365 209.49878,402.655659 C210.992557,402.834841 212.845439,403.348578 214.218033,402.623916 C215.134981,402.140669 215.301001,400.54725 214.418388,399.914476 C213.153242,399.007292 211.597662,399.161831 210.094191,399.080385 C208.38996,398.988079 206.686537,398.938376 204.98877,399.140529 C203.810875,399.280032 203.616175,401.485759 204.781547,401.813632" id="Fill-93" fill="#E33314"></path>
                        <path d="M215.898224,415.352193 C218.794512,416.571134 223.321091,416.211081 224.8819,413.052702 C225.197056,412.415475 224.8819,410.872056 223.931058,411.008493 C222.717649,411.181287 221.69963,411.913512 220.523456,412.248936 C219.184523,412.630099 217.810273,412.58045 216.467117,412.248936 C214.763124,411.827506 214.503629,414.765006 215.898224,415.352193" id="Fill-95" fill="#E33314"></path>
                        <path d="M228.369389,402.934095 C231.330412,403.176997 235.937021,402.853128 237.745304,400.163388 C238.23894,399.428872 238.029927,398.10434 236.98763,398.012913 C235.605291,397.892043 234.291436,398.650579 232.980748,398.999629 C231.452337,399.406015 229.864547,399.559814 228.284675,399.556715 C226.493018,399.553616 226.625631,402.791531 228.369389,402.934095" id="Fill-97" fill="#E33314"></path>
                        <path d="M241.608451,389.941055 C243.520431,389.384891 246.079868,388.950929 247.513643,387.540555 C248.28561,386.781123 248.178827,385.198535 246.902907,385.031162 C244.945342,384.77385 242.595674,386.172932 240.860541,386.915425 C239.422546,387.530876 239.864454,390.448418 241.608451,389.941055" id="Fill-99" fill="#E33314"></path>
                        <path d="M240.469288,409.965006 C242.10296,409.597956 243.704033,409.08477 245.284498,408.528691 C246.819999,407.988555 248.314284,407.606322 249.538039,406.477464 C250.296797,405.777526 250.130433,404.139657 248.968128,404.023127 C247.367804,403.862187 245.957076,404.57503 244.478154,405.114028 C242.886448,405.69364 241.305983,406.321458 239.788467,407.079471 C238.492021,407.726648 238.846483,410.330537 240.469288,409.965006" id="Fill-101" fill="#E33314"></path>
                        <path d="M243.652492,422.750341 C246.321517,424.446287 250.98495,424.75964 252.778259,421.496056 C253.148116,420.82178 253.166775,418.804188 251.951886,419.015418 C250.741972,419.225338 249.660597,419.844625 248.444878,420.042325 C247.113061,420.258792 245.823951,419.982971 244.59455,419.436567 C242.996535,418.726941 242.448384,421.985724 243.652492,422.750341" id="Fill-103" fill="#E33314"></path>
                        <path d="M255.420205,386.863508 C256.91927,386.060404 258.384734,385.214609 259.985815,384.644405 C261.481641,384.111821 263.29566,384.066171 264.509323,382.95197 C265.099153,382.410509 265.245699,380.963654 264.451838,380.502081 C261.513623,378.795274 256.613628,381.81748 254.442554,383.92753 C253.628452,384.718376 253.928022,387.663653 255.420205,386.863508" id="Fill-105" fill="#E33314"></path>
                        <path d="M257.595863,398.965329 C259.384299,398.56325 261.138916,397.964182 262.886986,397.411139 C264.521234,396.894181 266.271123,396.563165 267.56863,395.377548 C268.114834,394.878263 268.264658,393.240491 267.283891,393.071117 C265.586004,392.778763 264.069579,393.449631 262.455332,393.959962 C260.586166,394.551666 258.680998,395.101027 256.865652,395.848849 C255.403775,396.451231 255.891067,399.347893 257.595863,398.965329" id="Fill-107" fill="#E33314"></path>
                        <path d="M262.899158,408.738053 C266.139733,409.533344 270.769871,408.542747 272.742492,405.42307 C273.313239,404.520883 272.924534,402.723743 271.682693,403.035992 C270.284176,403.387624 269.069194,404.292624 267.694179,404.75718 C266.198673,405.262324 264.685634,405.382481 263.136783,405.539209 C261.790119,405.675039 261.552121,408.407318 262.899158,408.738053" id="Fill-109" fill="#E33314"></path>
                        <path d="M277.736258,420.964959 C280.645205,420.309103 284.043172,420.010918 286.567122,418.321331 C287.194222,417.901553 287.171641,416.243392 286.29059,416.10384 C283.246895,415.62233 279.898903,416.93292 276.952938,417.628061 C275.329658,418.0108 275.905302,421.378003 277.736258,420.964959" id="Fill-111" fill="#E33314"></path>
                        <path d="M280.87369,404.866322 C285.111202,405.70233 292.579304,402.538608 292.994841,397.572943 C293.04823,396.935426 292.690188,395.680847 291.78295,396.075175 C289.978181,396.860045 288.926083,398.876766 287.236678,399.946492 C285.247474,401.205239 283.057035,401.56396 280.80462,402.029124 C279.671133,402.262843 279.772683,404.648892 280.87369,404.866322" id="Fill-113" fill="#E33314"></path>
                        <path d="M280.576318,392.876924 C282.284913,391.999708 283.987915,391.157354 285.658958,390.203975 C287.238919,389.302129 289.116096,388.569664 289.885104,386.908449 C290.137179,386.363173 289.999756,385.208205 289.219563,385.05474 C287.524151,384.721284 286.080015,385.986899 284.690608,386.80576 C282.921291,387.848187 281.243057,388.978147 279.53646,390.09977 C278.442672,390.818973 279.137375,393.615452 280.576318,392.876924" id="Fill-115" fill="#E33314"></path>
                        <path d="M275.241548,379.496456 C276.123838,378.228848 277.292574,377.083693 278.536088,376.176264 C279.781975,375.266841 281.451599,374.859595 282.509951,373.732389 C283.12874,373.073057 283.302824,371.441281 282.185521,371.118995 C280.424504,370.610835 278.593456,371.834168 277.20118,372.824562 C275.565978,373.987666 274.374689,375.415221 273.346407,377.128366 C272.911197,377.852714 272.838398,378.854276 273.404962,379.541927 C273.908619,380.152995 274.774687,380.167355 275.241548,379.496456" id="Fill-117" fill="#E33314"></path>
                        <path d="M292.818822,375.701818 C293.823418,374.733128 294.820785,373.797318 296.123025,373.266326 C297.39313,372.748075 298.739555,372.852054 299.705189,371.783906 C300.12695,371.317439 300.083167,370.230797 299.656987,369.786935 C298.365593,368.441784 296.402592,369.069356 294.913974,369.83502 C293.269504,370.680414 291.983733,371.872679 291.125749,373.544562 C290.635301,374.499689 291.659178,376.820517 292.818822,375.701818" id="Fill-119" fill="#E33314"></path>
                        <path d="M295.691365,388.865745 C297.320741,388.073791 298.862277,387.054081 300.402163,386.10949 C301.947411,385.161303 303.419252,384.533973 303.952479,382.763065 C304.135171,382.158111 303.773912,381.34458 303.163566,381.118022 C301.727191,380.584992 300.22772,381.987893 299.065176,382.725905 C297.549621,383.687278 295.965608,384.626274 294.555626,385.727098 C293.482985,386.564204 294.017862,389.679276 295.691365,388.865745" id="Fill-121" fill="#E33314"></path>
                        <path d="M297.394095,406.920377 C298.762451,406.403487 300.04846,405.631227 301.311526,404.897499 C302.526249,404.191643 304.037176,403.582116 304.749212,402.32043 C305.207653,401.50841 305.091301,400.113915 303.949093,400.008979 C302.631538,399.888058 301.335697,401.016934 300.266413,401.67852 C298.964837,402.482752 297.630485,403.291493 296.467792,404.288381 C295.610316,405.023339 295.938886,407.469648 297.394095,406.920377" id="Fill-123" fill="#E33314"></path>
                        <path d="M315.254518,392.884155 C316.964581,391.911914 318.447282,390.635298 319.940441,389.342704 C321.364655,388.108429 323.192467,386.890531 323.900507,385.063884 C324.15537,384.406802 323.946986,382.893317 322.967041,383.00596 C321.184933,383.210074 319.77079,385.019146 318.487565,386.201094 C316.976201,387.593149 315.467549,388.986002 314.21531,390.632901 C313.705971,391.302765 314.119252,393.528854 315.254518,392.884155" id="Fill-125" fill="#E33314"></path>
                        <path d="M313.891139,379.622677 C314.913221,378.624476 316.52708,377.732959 317.863777,377.126802 C319.192151,376.52363 320.648286,376.27296 321.68535,375.275133 C322.314164,374.669349 321.928386,373.53052 321.163489,373.20935 C319.584172,372.545748 317.555404,373.608108 316.208719,374.332885 C314.519953,375.24268 313.434614,376.429629 312.28061,377.817262 C311.43581,378.83374 312.652238,380.832753 313.891139,379.622677" id="Fill-127" fill="#E33314"></path>
                        <path d="M307.637782,363.631321 C308.503669,362.633851 309.804217,362.019733 311.043759,361.605561 C312.203995,361.218449 313.524369,361.359764 314.538574,360.667849 C315.218778,360.204442 315.101344,358.924718 314.484051,358.47221 C313.229639,357.553665 311.250032,358.153876 309.94529,358.764987 C308.406443,359.485466 307.304161,360.605835 306.253734,361.894204 C305.487361,362.833796 306.605275,364.820469 307.637782,363.631321" id="Fill-129" fill="#E33314"></path>
                        <path d="M324.064464,354.989581 C325.813393,355.049602 327.547433,354.839343 329.282619,354.639762 C330.837986,354.460433 332.262022,354.364325 333.555107,353.464 C334.263689,352.971676 334.092652,351.581973 333.277554,351.281865 C331.722568,350.709266 330.095426,351.141937 328.503408,351.415901 C326.888101,351.694283 325.290738,351.941734 323.727735,352.435164 C322.593088,352.793084 322.846207,354.947971 324.064464,354.989581" id="Fill-131" fill="#E33314"></path>
                        <path d="M328.161014,362.998228 C329.789912,362.909445 331.346629,362.591917 332.940239,362.271675 C334.500566,361.958024 336.349618,361.890176 337.504926,360.758861 C338.207092,360.071465 338.216316,358.635029 337.182113,358.218637 C335.78179,357.654142 334.204621,358.321378 332.786653,358.664494 C331.084771,359.077009 329.409756,359.477505 327.78607,360.12807 C326.646001,360.584395 326.725,363.075769 328.161014,362.998228" id="Fill-133" fill="#E33314"></path>
                        <path d="M332.265101,375.991599 C333.859745,375.79779 335.451193,375.450108 337.021469,375.115738 C338.61811,374.776278 340.217947,374.518649 341.53217,373.517888 C342.200466,373.009286 342.197271,371.370325 341.232176,371.140495 C339.735,370.784591 338.342084,371.176908 336.87327,371.5195 C335.19434,371.911425 333.490644,372.304133 331.857252,372.850323 C330.57179,373.279836 330.751547,376.17562 332.265101,375.991599" id="Fill-135" fill="#E33314"></path>
                        <path d="M347.105568,362.932651 C348.90314,362.222166 350.702898,361.581632 352.474962,360.796278 C354.053896,360.09638 355.63538,359.567769 356.740597,358.164191 C357.275168,357.485467 356.954134,356.100039 356.047513,356.014206 C354.403717,355.858421 352.859401,357.019247 351.435337,357.764897 C349.774778,358.634193 348.200582,359.622975 346.57537,360.555038 C345.639598,361.092346 345.865524,363.423072 347.105568,362.932651" id="Fill-137" fill="#E33314"></path>
                        <path d="M344.527249,354.905788 C346.611029,354.089067 349.845861,352.931734 350.868784,351.026551 C351.15581,350.492426 350.998599,349.164787 350.131201,349.036403 C348.831788,348.844387 348.014967,349.445137 346.950317,350.060859 C345.753324,350.752564 344.608594,351.463733 343.50854,352.269599 C342.558532,352.965421 342.962728,355.51889 344.527249,354.905788" id="Fill-139" fill="#E33314"></path>
                        <g id="Group-143" transform="translate(383.000000, 1.000000)">
                            <mask id="mask-30" fill="white">
                                <use xlink:href="#path-29"></use>
                            </mask>
                            <g id="Clip-142"></g>
                            <path d="M8.1746,90.5032927 C-10.8774,91.8247208 9.1094,114.205194 24.1594,112.347172 C39.2094,110.488752 49.6806,103.664352 62.6466,120.751169 C75.4134,137.576242 88.2194,145.008332 103.7866,138.363459 C119.3542,131.718983 120.7074,131.276918 129.4294,136.937969 C138.1506,142.599417 159.8542,140.830363 161.2618,127.418284 C162.6686,114.006603 170.7834,112.251053 184.2966,112.306659 C197.8086,112.361867 211.3014,117.113766 221.4694,109.104966 C231.6374,101.096166 223.5422,98.1558194 239.805,86.8178307 C256.067,75.479842 221.605,76.6797321 212.2018,63.2231687 C202.7994,49.7670025 181.8382,53.7062645 173.0886,45.6200138 C164.339,37.5333659 169.169,13.4017124 160.9734,6.82912648 C153.3338,0.702577183 144.7286,-4.4091693 133.2906,7.0825293 C121.853,18.5738307 111.7774,4.44404197 104.2954,16.4890166 C96.813,28.5343885 104.0138,29.9058617 83.0694,29.819673 C62.1254,29.7334842 54.7182,23.6649237 50.6146,35.7237997 C46.5102,47.7826758 51.1782,62.5610645 39.6738,65.4140307 C25.4474,68.9422082 27.2266,89.1814673 8.1746,90.5032927" id="Fill-141" fill="#EBC618" mask="url(#mask-30)"></path>
                        </g>
                        <g id="Group-146" transform="translate(383.000000, 0.000000)">
                            <mask id="mask-32" fill="white">
                                <use xlink:href="#path-31"></use>
                            </mask>
                            <g id="Clip-145"></g>
                            <path d="M8.44710233,89.5318283 C-11.8255953,92.0389172 9.89882326,112.335845 20.3803116,113.519178 C33.0694279,114.951801 44.3016837,105.939534 55.9387767,115.381745 C67.1401953,124.470928 72.8612884,139.469678 88.9021721,141.581139 C101.269079,143.209406 113.03466,130.089395 124.545242,135.798189 C132.68587,139.835328 139.536474,142.658762 148.901498,139.835723 C152.488893,138.754156 155.988126,136.942867 158.249521,133.863834 C161.561753,129.354545 160.127033,123.108912 163.696637,118.773573 C173.321009,107.083817 196.576614,116.613201 209.204847,114.602323 C219.010684,113.040717 223.202963,107.367817 227.209428,99.3085283 C230.329916,93.0301561 236.462963,90.9431506 240.595544,85.8548172 C241.724265,84.464795 242.905172,83.1063283 242.572684,81.1838061 C241.642033,75.799245 230.802358,74.0132006 226.881288,72.5565172 C221.434567,70.5330172 215.864498,68.3024339 211.810195,63.9864228 C207.906126,59.8309506 205.01494,56.480145 199.54687,54.2420672 C186.528428,48.9143061 171.090847,51.6205894 167.466684,34.6890617 C165.564265,25.7998617 167.096242,13.7002783 160.170521,6.68823944 C152.554916,-1.02314944 142.722986,-2.03174389 134.173172,4.42767833 C129.860312,7.68657833 127.203172,11.1837228 121.295079,11.4310394 C118.666009,11.5410894 116.08873,10.8334561 113.474288,10.766795 C109.091056,10.6555617 106.320451,11.8949061 103.515056,15.282395 C100.799405,18.5618061 100.485893,23.8899617 97.7334744,26.855395 C93.932986,30.9497283 82.8537302,29.2717617 78.0561721,29.0631006 C70.6113581,28.7396561 57.4375442,24.1412228 51.7951256,31.1753506 C48.4050093,35.4018228 48.0061023,41.9902283 47.5150791,47.0801394 C47.1972186,50.3840061 47.2786605,54.1201839 46.2282186,57.3041394 C43.9585209,64.1879839 40.7755674,63.3292783 35.7870558,66.0434506 C23.9617767,72.4776283 24.0954047,87.7722117 8.45026512,89.6671228 C7.39666047,89.7949228 7.44963721,91.788445 8.49968372,91.6693228 C16.8557767,90.7202894 21.8593116,86.5652117 26.4603814,79.7807672 C28.9234047,76.1487228 31.0488,72.0366394 34.6575442,69.363095 C38.0591256,66.8429894 42.5103581,66.860345 45.3991721,63.5647617 C52.3347767,55.6506283 46.8105674,42.5704561 52.5561721,34.0189006 C57.8411953,26.1528894 74.4873581,31.5323228 82.5291488,31.6277783 C87.4824744,31.686945 95.5341488,32.9219506 99.1725442,28.5601839 C100.561405,26.8948394 100.927498,24.3743394 101.854591,22.4620728 C105.797009,14.3282339 110.141893,13.1989394 118.333916,13.7271006 C132.372753,14.632745 139.363707,-3.348005 153.623544,4.77991722 C165.28673,11.427095 163.198102,23.9262506 165.589172,35.3856506 C167.167405,42.9479394 170.194195,48.1419839 177.688823,50.8971783 C190.047823,55.4403894 200.248614,54.9611394 209.963521,65.0999394 C215.501567,70.8781561 222.401195,73.4728117 229.838498,76.1274228 C232.8898,77.2160894 238.74294,78.1071394 239.586614,81.5470894 C240.560753,85.5179617 231.215893,89.9022117 228.501033,93.2557783 C226.522312,95.7009394 225.684172,98.2372172 224.34473,101.019628 C220.651777,108.689206 213.269428,112.082217 204.978567,112.507823 C193.344242,113.105406 181.024381,108.736934 169.555707,112.372528 C160.948172,115.100901 160.975451,121.237667 158.425451,128.631923 C153.976591,141.533806 136.543684,139.760384 127.039498,134.617223 C117.862265,129.650773 112.062893,133.454401 102.689567,137.042662 C83.4384512,144.413251 72.5327535,130.347362 60.9707767,117.355151 C53.6445674,109.123489 45.650614,107.323639 35.0473581,109.227623 C28.4462186,110.412928 22.4709163,112.273128 15.9069395,109.989689 C12.5614977,108.826078 9.48093953,106.823484 6.89693953,104.426839 C2.58012558,100.422045 0.696288372,92.7927006 8.50284651,91.8046172 C9.69917209,91.6531506 9.63433488,89.3847006 8.44710233,89.5318283" id="Fill-144" fill="#E33314" mask="url(#mask-32)"></path>
                        </g>
                        <path d="M8.74336639,91.5620701 C-10.1736883,92.8876972 9.67154521,115.339285 24.6149461,113.475359 C39.5579498,111.611034 49.9553795,104.764949 62.8295413,121.90606 C75.5059141,138.784596 88.2212092,146.240302 103.678147,139.574314 C119.135481,132.908725 120.479097,132.465256 129.138922,138.144295 C137.798747,143.823732 159.34862,142.049057 160.74625,128.594361 C162.143086,115.140063 170.200409,113.378935 183.617895,113.434718 C197.034189,113.490101 210.43142,118.257099 220.5274,110.222851 C230.62338,102.188603 222.585518,99.2389132 238.733129,87.8648974 C254.879945,76.4908817 220.662039,77.6945845 211.325442,64.1952623 C201.989639,50.6963385 181.176907,54.6481176 172.489281,46.5361725 C163.801654,38.4238289 168.597443,14.2154959 160.459893,7.62202524 C152.874007,1.47600853 144.329757,-3.65198076 132.97317,7.87623325 C121.616185,19.4040488 111.612348,5.22936201 104.183343,17.3126101 C96.7535436,29.3962567 103.903738,30.7720879 83.1076867,30.6856253 C62.312033,30.5991627 54.9572982,24.511319 50.8827639,36.6085127 C46.8074354,48.7057064 51.442372,63.5310542 40.0194576,66.3930858 C25.8938232,69.9324742 27.6604211,90.2360446 8.74336639,91.5620701" id="Fill-147" fill="#EBC618"></path>
                        <path d="M8.39469918,89.6432715 C-12.0007324,92.1583506 9.85523752,112.519966 20.4007858,113.70707 C33.1669728,115.144258 44.4674507,106.103269 56.1752247,115.575573 C67.4442804,124.693724 73.2005197,139.740276 89.338832,141.858466 C101.780853,143.491922 113.617896,130.330097 125.19839,136.057085 C133.388462,140.107091 140.280675,142.939523 149.70258,140.107487 C153.311764,139.022473 156.831852,137.205411 159.107381,134.116565 C162.439731,129.592905 160.996296,123.327366 164.587581,118.978211 C174.27041,107.251199 197.666866,116.810953 210.372197,114.793667 C220.237592,113.227084 224.455334,107.536104 228.486134,99.4511302 C231.625575,93.1527486 237.795475,91.0590916 241.953157,85.9545416 C243.089131,84.5600893 244.276813,83.1972931 243.942703,81.2686437 C243.006399,75.8669218 232.100489,74.0751852 228.156001,72.6138593 C222.675801,70.5839103 217.072297,68.346218 212.992972,64.0164516 C209.065588,59.8477357 206.156841,56.486251 200.65556,54.2410404 C187.558047,48.8962994 172.026701,51.6112078 168.380526,34.6257185 C166.466155,25.7081883 168.007834,13.570043 161.040048,6.53565646 C153.378188,-1.20030896 143.486541,-2.21211784 134.8844,4.26789084 C130.545344,7.5371771 127.872463,11.0454671 121.928486,11.293572 C119.283448,11.4039727 116.690515,10.6940841 114.059796,10.6272106 C109.650338,10.5156227 106.862508,11.758917 104.040471,15.157202 C101.308326,18.4470647 100.992512,23.7922013 98.2237736,26.7670856 C94.400202,30.8744678 83.2540511,29.1911534 78.426956,28.9818272 C70.9365262,28.657352 57.6830953,24.0442632 52.006406,31.1008091 C48.5953012,35.3407512 48.1939713,41.9501543 47.7003635,47.0562872 C47.3805724,50.3706834 47.4625089,54.1187686 46.4056869,57.3128715 C44.1222036,64.2186551 40.9195199,63.3572128 35.9011069,66.0800352 C24.0040039,72.534719 24.1384434,87.8780468 8.39827893,89.7789971 C7.33827493,89.9072044 7.39157344,91.9070801 8.44759994,91.7875782 C16.8548437,90.8355203 21.8887689,86.6672001 26.5173867,79.8611333 C28.9957675,76.2175134 31.134072,72.0923247 34.7647349,69.4102595 C38.1869767,66.8821223 42.665245,66.8995331 45.571605,63.5934466 C52.5493349,55.6540906 46.991175,42.5322313 52.7720749,33.9534216 C58.0891982,26.0623411 74.8360681,31.458919 82.9271005,31.5546787 C87.9105115,31.614034 96.0110899,32.8529756 99.671584,28.4773077 C101.06888,26.8066558 101.437197,24.2781228 102.369523,22.3597617 C106.336285,14.1999999 110.707558,13.0671063 118.949338,13.5969507 C133.073444,14.5054815 140.106859,-3.53257393 154.453307,4.62125233 C166.186934,11.289615 164.086018,23.8286059 166.491611,35.3245275 C168.079429,42.9109177 171.124604,48.1215158 178.664753,50.8854912 C191.098818,55.4431817 201.361566,54.9624043 211.135479,65.1335171 C216.706765,70.9301492 223.648697,73.533074 231.131172,76.1961455 C234.201007,77.2882818 240.089697,78.1821716 240.938496,81.6330849 C241.918552,85.6166124 232.516933,90.0148352 229.785583,93.3790899 C227.794844,95.8320438 226.951614,98.3764048 225.604037,101.167684 C221.888653,108.861705 214.461466,112.265529 206.120248,112.692491 C194.415259,113.291979 182.02057,108.909585 170.482238,112.556766 C161.822423,115.293833 161.849867,121.450158 159.284379,128.86798 C154.808497,141.810982 137.269707,140.031908 127.707795,134.872355 C118.474822,129.890077 112.640226,133.705827 103.209969,137.305524 C83.8419257,144.699603 72.8699894,130.588886 61.2373902,117.555268 C53.8670809,109.297372 45.824574,107.491786 35.1569165,109.401837 C28.5156832,110.59092 22.5040883,112.457049 15.9002434,110.166333 C12.5344822,108.999013 9.43481567,106.990036 6.83551881,104.585754 C2.49248553,100.568196 0.597206337,92.9145362 8.45117969,91.9233038 C9.65477148,91.7713544 9.58914271,89.4956748 8.39469918,89.6432715" id="Fill-149" fill="#E33314"></path>
                        <path d="M45.9552653,91.4038861 C39.947751,88.0824433 48.4531286,78.682951 62.3307212,80.4732547 C76.2091089,82.263956 78.2159869,72.1744176 82.3001107,71.9001482 C86.3842344,71.6258787 90.6079014,70.6659356 93.6261695,67.9013791 C99.9354311,62.121846 92.7730079,49.589322 106.6506,45.560741 C120.528591,41.53216 117.842284,50.0368979 125.900806,47.7986207 C133.958532,45.560741 133.958532,33.028217 140.22605,35.2664942 C146.493568,37.5039765 142.464705,55.4078093 152.760688,56.3029612 C163.057467,57.1981131 158.580952,71.9685168 172.010893,69.2834586 C185.440834,66.5976054 196.185264,74.206794 198.871173,76.8926472 C201.557479,79.5781028 208.272251,87.6352649 214.539769,85.3969876 C220.806889,83.1591079 206.033596,104.195972 186.783789,96.5867838 C167.533981,88.9775952 159.475857,92.1106268 153.208737,101.958093 C146.941219,111.805161 127.691411,120.757077 120.976242,113.147889 C114.261073,105.5387 103.964692,118.519198 93.6683108,115.385768 C83.3719298,112.252339 79.789923,93.9009306 72.6278973,93.0061762 C65.4646789,92.1106268 51.9635747,94.7249314 45.9552653,91.4038861" id="Fill-151" fill="#E14459"></path>
                        <path d="M45.7678291,90.7285253 C38.0444675,84.8926761 57.3758835,81.1287284 58.9506304,81.110034 C62.536165,81.0678721 65.8622176,81.9783314 69.4390236,81.0642923 C75.5606585,79.5003229 78.1892042,73.9198319 84.2152195,72.5694565 C88.8212251,71.5364889 93.346688,70.2294687 95.6046583,65.7062083 C96.6667892,63.5786213 96.6608377,61.1861299 97.1028302,58.9097828 C98.6248077,51.0772077 102.18733,45.5679147 111.383868,45.4342693 C116.233882,45.3634691 119.008039,49.3239074 123.599364,49.0713335 C129.269881,48.7586987 130.636725,43.8778573 133.768761,40.2909102 C141.880949,31.0005661 142.496723,45.5635394 144.761438,50.9196971 C147.588761,57.6063424 152.434808,55.1076507 156.957493,59.7784779 C159.783626,62.6968003 160.158963,67.2598361 163.867494,69.4645874 C166.282582,70.90048 168.63022,70.4728943 171.296061,70.2688464 C177.295097,69.808247 182.760488,69.729094 188.477426,72.0487963 C194.883539,74.6485175 198.041365,79.1089328 203.24648,83.160059 C205.073568,84.5816324 207.208542,86.120941 209.553006,86.5477312 C209.337168,86.5087513 214.440316,87.077142 213.959837,86.3683441 C214.490704,87.1523176 210.738133,90.6676689 210.881761,90.531637 C203.994773,97.0639537 195.028357,98.23176 186.213901,95.5835127 C179.066637,93.4364357 171.825341,90.0161476 164.152765,91.7245018 C159.324573,92.7996313 155.87116,95.7986977 152.948217,99.6565154 C147.358243,107.034855 138.389843,115.404001 128.24822,114.947379 C120.829968,114.612868 118.532718,108.397163 110.739527,110.501681 C106.275165,111.707273 102.196456,114.569512 97.4535674,114.793846 C90.1376801,115.139892 86.1149141,109.174773 82.6991934,103.702471 C80.0214493,99.4126921 77.5682722,93.4547324 72.2929298,91.9679273 C63.6268627,89.5257167 54.4081067,94.041022 45.6575293,90.4512907 C44.6326941,90.0308645 44.3799569,91.937698 45.2806058,92.3477825 C53.2701944,95.9868354 61.8830954,92.7920739 70.2027897,93.9137407 C79.1799179,95.1241066 81.4767709,107.956849 87.7991671,113.429549 C93.5482429,118.406647 99.7436755,116.97155 106.271594,114.455357 C108.168908,113.723887 110.185251,112.573184 112.208735,112.229127 C122.919711,110.408606 115.006698,112.946278 121.155709,115.200748 C124.448434,116.40833 126.599675,117.334699 130.293129,116.884044 C137.698685,115.98154 145.412127,111.510783 150.429178,106.084621 C156.618659,99.3904178 159.71578,92.8036088 170.204967,93.4447885 C179.852225,94.0350557 188.165968,100.478276 197.987405,99.0089716 C203.915024,98.1219798 211.476903,94.4741763 214.662899,89.0603443 C215.424681,87.7652568 216.879606,85.6818204 215.278673,84.405825 C215.050932,84.2240514 214.539506,84.375198 214.387943,84.2029704 C218.472207,88.8590807 194.283636,76.1699272 205.899228,82.7563385 C202.281953,80.7059158 199.92876,76.9924828 196.684043,74.4579933 C191.244442,70.2087855 184.092417,67.7411186 177.222886,67.6933881 C170.212109,67.6448621 165.875901,70.3853883 161.181021,63.5929404 C159.690784,61.4371128 159.064694,58.8457444 156.88687,57.1692106 C153.258882,54.3749875 149.704294,56.1171508 146.75953,51.3846717 C144.735252,48.1310426 144.961803,43.7151758 143.791753,40.156867 C142.717719,36.8909075 140.825166,32.8958647 136.643696,34.2828335 C129.022302,36.8105612 131.392556,50.3222703 119.558347,46.0599366 C113.65017,43.9323496 109.967825,42.2474629 103.312149,45.5225708 C95.7895492,49.2236733 97.3115268,55.0277021 95.1154513,61.8686761 C92.2381361,70.832464 86.6945828,68.1122233 80.4884377,71.2819262 C77.8448151,72.6319039 76.2323759,75.479426 73.7827697,77.124935 C65.3333344,82.8004892 51.7133018,75.3835672 44.6779249,84.4523623 C42.5175579,87.2366415 42.2013389,89.8653988 45.1699093,92.0705479 C45.9062989,92.6174599 46.3947124,91.2018528 45.7678291,90.7285253" id="Fill-153" fill="#E33314"></path>
                        <path d="M266.605489,96.6424183 C267.087409,95.9585889 267.666553,95.3106701 268.160674,94.6130877 C268.673858,93.8887634 269.215637,93.1873607 269.8249,92.541352 C271.013307,91.2825711 272.822034,90.4390541 273.768718,89.0003382 C274.210987,88.3275876 274.044755,87.018379 273.045837,87.0004237 C271.176489,86.9668053 269.341836,88.9415059 268.154192,90.1983767 C267.433218,90.9612859 266.767908,91.779971 266.207828,92.6704774 C265.591321,93.6496141 265.37438,94.4916029 265.040391,95.5700669 C264.768167,96.4494944 265.936748,97.5909929 266.605489,96.6424183" id="Fill-159" fill="#E33314"></path>
                        <path d="M280.812966,82.6814381 C282.155642,81.5274168 283.404544,80.2610096 284.876971,79.2916813 C286.280503,78.3682164 288.101994,78.0521311 288.862895,76.378325 C289.144214,75.761029 288.989584,74.7433583 288.426946,74.3574449 C286.876439,73.2951504 284.905294,74.8516123 283.537357,75.7647477 C281.871261,76.8770374 280.312716,78.2822742 279.237581,80.0643343 C278.577343,81.158444 279.354319,83.9350365 280.812966,82.6814381" id="Fill-161" fill="#E33314"></path>
                        <path d="M282.266423,96.9263181 C284.199424,96.0142433 285.604015,93.7808637 287.272437,92.4079753 C289.024429,90.9659266 291.335935,89.8994831 292.744649,88.1028448 C293.259566,87.4463955 292.987492,85.9833312 292.003004,86.0001437 C289.646527,86.0402643 287.258196,88.175826 285.576283,89.6763361 C283.819794,91.2437139 281.694168,93.0972852 281.033845,95.441092 C280.84759,96.1028907 281.453948,97.3099473 282.266423,96.9263181" id="Fill-163" fill="#E33314"></path>
                        <path d="M301.368515,87.9106916 C302.794753,87.3132312 304.132921,86.6846314 305.478429,85.8824816 C306.801511,85.0936179 308.12337,84.4425978 308.851983,83.0089418 C309.262567,82.2001489 308.778592,81.1260487 307.897896,81.0172686 C306.545049,80.8503616 305.276602,81.9315201 304.182256,82.61451 C302.84368,83.4502903 301.666973,84.3632962 300.45887,85.3651531 C299.592852,86.083019 299.983865,88.490714 301.368515,87.9106916" id="Fill-165" fill="#E33314"></path>
                        <path d="M296.401241,72.9229895 C297.926318,72.356561 299.330258,71.6514077 300.754,70.881541 C302.182401,70.1090709 303.721843,69.4377619 304.737137,68.1658082 C305.248861,67.5238807 305.029884,65.9302194 303.935385,66.0023711 C302.402931,66.1027885 301.103432,67.0095205 299.809368,67.735873 C298.299045,68.5838421 296.854726,69.4448284 295.477963,70.4824748 C294.570993,71.1656851 294.996524,73.44516 296.401241,72.9229895" id="Fill-167" fill="#E33314"></path>
                        <path d="M313.841664,74.605046 C315.511219,75.4137207 317.791518,74.819458 319.471972,74.2548261 C321.234774,73.662621 323.052877,72.7852192 323.870297,71.0086041 C324.220274,70.2472564 323.848499,69.0360963 322.918053,69.0019385 C321.418844,68.9472038 319.97736,70.0657676 318.589966,70.5592032 C317.038281,71.1110774 315.227847,71.0979081 313.775059,71.8366212 C312.686377,72.3909646 312.777605,74.0897988 313.841664,74.605046" id="Fill-169" fill="#E33314"></path>
                        <path d="M320.098544,63.9862709 C320.995018,63.8249621 321.921255,63.9949567 322.833817,63.8489516 C323.534829,63.7368627 324.23021,63.5635591 324.925591,63.4192084 C326.518252,63.0891458 328.242025,62.9348684 329.497652,61.7999163 C330.221991,61.1451681 330.203893,59.5659964 329.174696,59.2094626 C327.709529,58.7019603 326.194893,59.2313841 324.734552,59.5887451 C323.946266,59.781902 323.139881,59.9399019 322.362052,60.1706976 C321.459142,60.4391319 320.641094,61.001231 319.747032,61.2452623 C318.585516,61.5625029 318.836481,64.2129304 320.098544,63.9862709" id="Fill-171" fill="#E33314"></path>
                        <path d="M333.255535,72.9731211 C334.930094,73.0564559 336.616161,72.9308439 338.286751,72.8036058 C339.779966,72.6897826 341.224769,72.7503528 342.490608,71.8649709 C343.361617,71.2560167 343.021547,69.7893234 342.178315,69.3779338 C340.768035,68.6901164 339.041097,69.1218316 337.530422,69.2734604 C335.9634,69.4307803 334.403521,69.6076128 332.862689,69.9433912 C331.461535,70.2486813 331.892873,72.9052337 333.255535,72.9731211" id="Fill-173" fill="#E33314"></path>
                        <path d="M320.693975,84.7226335 C322.042967,83.6650233 323.518766,82.8442294 325.122179,82.3065118 C326.555306,81.8256641 328.255737,81.9703853 329.484362,81.0333052 C330.200121,80.487524 330.161475,79.0445565 329.42599,78.5348494 C327.944152,77.5082205 325.87135,78.1724099 324.302156,78.7606314 C322.444725,79.456651 320.834067,80.5834389 319.442001,82.0425336 C318.464978,83.0661917 319.207306,85.8884664 320.693975,84.7226335" id="Fill-175" fill="#E33314"></path>
                        <path d="M306.417307,95.706743 C306.834106,95.2454568 307.413314,94.7944477 307.860901,94.3011442 C308.394312,93.7145558 308.995842,93.2169042 309.651252,92.7809156 C310.892797,91.9551857 312.879039,91.8117007 313.721873,90.5523538 C314.165227,89.890663 314.078635,88.9380497 313.461326,88.4249824 C312.018886,87.2257173 309.458824,88.8487175 308.231518,89.7938206 C307.465654,90.383176 306.771759,91.1037628 306.179466,91.8745495 C305.462094,92.8073991 305.303149,93.6038787 305.032595,94.7039297 C304.816306,95.5842077 305.721487,96.4771345 306.417307,95.706743" id="Fill-177" fill="#E33314"></path>
                        <path d="M328.407827,97.7202947 C329.805139,96.2834983 331.078382,94.6903131 332.707749,93.5464879 C334.279294,92.4431009 336.511776,92.1773637 337.714942,90.6188399 C338.147653,90.0580684 338.108977,88.7689955 337.452252,88.3807056 C335.534538,87.2471963 333.059661,88.8915482 331.437953,90.0935551 C329.457439,91.5617117 327.795139,93.4610724 327.047277,95.9500889 C326.823263,96.6944831 327.41489,98.7411546 328.407827,97.7202947" id="Fill-179" fill="#E33314"></path>
                        <path d="M341.28943,82.906897 C342.824133,82.1556316 344.395508,81.5202066 345.905369,80.7138509 C347.238968,80.0010732 348.897883,79.401872 349.745677,78.145738 C350.226356,77.4333376 350.059558,76.0311767 348.953483,76.0009902 C347.478716,75.9609931 346.045748,77.1420383 344.828869,77.8476467 C343.315065,78.7249407 341.923106,79.739583 340.447157,80.6655525 C339.536272,81.2368313 340.117109,83.480817 341.28943,82.906897" id="Fill-181" fill="#E33314"></path>
                        <path d="M341.422024,95.9690686 C342.525029,95.7172434 343.397421,95.4933567 344.390043,94.9511962 C345.358456,94.4218723 346.208689,93.8094876 347.00845,93.0811953 C348.343299,91.8651095 350.543565,89.8859969 349.877166,88.0069348 C349.689228,87.4761007 349.342077,87.0524906 348.700709,87.0151132 C348.620282,87.0102051 348.539444,87.0056745 348.458606,87.0011439 C348.09381,86.9796236 347.571031,87.2654283 347.388018,87.5482126 C345.732279,90.1000672 343.239028,92.1142919 340.527884,93.6905596 C339.477813,94.3010565 340.107691,96.2692202 341.422024,95.9690686" id="Fill-183" fill="#E33314"></path>
                        <path d="M255.842206,110.371087 C256.553022,108.668965 257.420458,107.085416 258.669534,105.68028 C259.885576,104.312451 261.631329,103.463976 262.757597,102.051451 C263.222017,101.468933 263.038969,99.9555668 262.035899,100.001001 C259.969522,100.094086 258.118837,102.114616 256.913676,103.549303 C255.469116,105.268786 254.478094,107.298551 254.024556,109.450212 C253.793317,110.546544 255.256532,111.773268 255.842206,110.371087" id="Fill-185" fill="#E33314"></path>
                        <path d="M267.990549,112.985443 C270.347782,112.571942 272.348831,111.419212 274.137469,109.916177 C275.825791,108.496622 277.959241,106.71935 277.999855,104.433004 C278.009197,103.88024 277.565692,102.914756 276.838703,103.006038 C275.088648,103.226441 273.846267,105.629035 272.590484,106.725202 C270.968769,108.140856 269.130988,109.299437 267.425609,110.615227 C266.771318,111.12118 266.806246,113.192973 267.990549,112.985443" id="Fill-187" fill="#E33314"></path>
                        <path d="M288.145908,107.891664 C289.814336,106.887638 291.490825,105.889298 293.116754,104.812879 C294.742684,103.736082 296.672331,102.771095 297.795974,101.112501 C298.163805,100.569744 298.087601,98.8649092 297.123693,99.008558 C295.387121,99.26705 293.898212,100.670184 292.482942,101.679137 C290.746004,102.918155 289.061089,104.231841 287.378373,105.548179 C286.61157,106.148548 287.081983,108.532208 288.145908,107.891664" id="Fill-189" fill="#E33314"></path>
                        <path d="M301.597826,108.89407 C303.623622,109.257473 305.536745,108.637618 307.359806,107.769361 C309.11152,106.934838 311.161879,105.884496 311.897575,104.023397 C312.154503,103.372492 311.958006,101.93268 310.964991,102.002447 C309.269809,102.121282 307.770346,103.775379 306.302462,104.549718 C304.66888,105.411075 302.913268,105.994513 301.36507,107.009205 C300.831329,107.358808 300.86135,108.761436 301.597826,108.89407" id="Fill-191" fill="#E33314"></path>
                        <path d="M319.144926,102.997877 C320.299875,103.016405 321.4397,102.91029 322.590383,102.811333 C323.661175,102.718692 324.658667,102.685847 325.529727,101.942198 C326.306933,101.278977 326.059499,99.7596748 325.235754,99.3044737 C324.233608,98.7515792 323.086415,99.0892954 322.016787,99.2505739 C320.926992,99.4143789 319.856589,99.5891323 318.783471,99.8590527 C317.542035,100.170661 317.860442,102.977243 319.144926,102.997877" id="Fill-193" fill="#E33314"></path>
                        <path d="M278.270151,120.968025 C281.232458,120.239308 285.174376,120.354389 287.566375,118.330047 C288.132154,117.851187 288.247039,116.309952 287.281839,116.115319 C284.084821,115.469244 280.626737,117.708687 277.692843,118.598054 C276.517638,118.954496 276.922001,121.299366 278.270151,120.968025" id="Fill-195" fill="#E33314"></path>
                        <path d="M257.232194,122.960364 C257.970596,122.734928 258.643103,122.724773 259.386931,122.427441 C259.997421,122.183727 260.603259,121.912798 261.20212,121.639838 C262.519614,121.038675 263.64369,120.446449 264.619698,119.315614 C265.165456,118.683581 265.223211,117.064099 264.12588,117.006826 C262.658767,116.929243 261.462595,117.525125 260.164869,118.17828 C259.484997,118.520293 258.783031,118.857837 258.12564,119.245343 C257.494995,119.617008 257.062032,120.145056 256.455031,120.546372 C255.569724,121.131287 256.055015,123.319843 257.232194,122.960364" id="Fill-197" fill="#E33314"></path>
                    </g>
                </g>
            </g>
        </g>
    </g>
</svg>