<?xml version="1.0" encoding="utf-8"?>
<!-- Generator: Adobe Illustrator 24.0.3, SVG Export Plug-In . SVG Version: 6.00 Build 0)  -->
<svg version="1.1" id="Layer_1" xmlns="http://www.w3.org/2000/svg" xmlns:xlink="http://www.w3.org/1999/xlink" x="0px" y="0px"
	 viewBox="0 0 629 777.9" style="enable-background:new 0 0 629 777.9;" xml:space="preserve">
<style type="text/css">
	.st0{fill-rule:evenodd;clip-rule:evenodd;fill:#E04459;}
	.st1{filter:url(#Adobe_OpacityMaskFilter);}
	.st2{fill-rule:evenodd;clip-rule:evenodd;fill:#FFFFFF;}
	.st3{mask:url(#mask-2_1_);fill:none;}
	.st4{fill-rule:evenodd;clip-rule:evenodd;fill:#018CCD;}
	.st5{fill-rule:evenodd;clip-rule:evenodd;fill:#E14459;}
	.st6{fill-rule:evenodd;clip-rule:evenodd;fill:#E2030C;}
	.st7{fill-rule:evenodd;clip-rule:evenodd;fill:#35C2EB;}
	.st8{fill-rule:evenodd;clip-rule:evenodd;fill:#EBC617;}
	.st9{filter:url(#Adobe_OpacityMaskFilter_1_);}
	.st10{mask:url(#mask-4_2_);fill-rule:evenodd;clip-rule:evenodd;fill:#EBC617;}
</style>
<title>Frilly Bits@2x</title>
<desc>Created with Sketch.</desc>
<g id="Home">
	<g id="Hover-Article" transform="translate(-1031.000000, -818.000000)">
		
			<g id="Frilly-Bits" transform="translate(1738.020933, 1265.288411) scale(-1, 1) rotate(-64.000000) translate(-1738.020933, -1265.288411) translate(1123.520933, 547.788411)">
			<g id="Group-9" transform="translate(154.000000, 0.500000)">
				<path id="Fill-5" class="st0" d="M476.7-92.3c0,0,257.2,321.2,428.3,700.1C1083,973,1172.3,1156,1172.3,1156
					s-178.3-21-424-329.5S497.7,282.9,497.7,282.9s10.4,287.5-54,530.4c-64.4,242.8-151.8,310.6-151.8,310.6s-132.3-351.6-93.5-697
					C237.1,81.6,476.7-92.3,476.7-92.3"/>
			</g>
			<g id="Group-17" transform="translate(460.500000, 397.000000)">
				<g id="Clip-16">
				</g>
				<defs>
					<filter id="Adobe_OpacityMaskFilter" filterUnits="userSpaceOnUse" x="342.9" y="-136.5" width="6" height="516.6">
						<feColorMatrix  type="matrix" values="1 0 0 0 0  0 1 0 0 0  0 0 1 0 0  0 0 0 1 0"/>
					</filter>
				</defs>
				<mask maskUnits="userSpaceOnUse" x="342.9" y="-136.5" width="6" height="516.6" id="mask-2_1_">
					<g class="st1">
						<path id="path-1_1_" class="st2" d="M258.3-91.2C224.2-85,192.4-4.7,190.9,29.9c-3.2,70,89.9,203,124.7,251.3
							c72,100,256.4,46.2,182.7-111.2C428.9,22.2,355-92.6,273.9-92.6C268.7-92.6,263.5-92.2,258.3-91.2"/>
					</g>
				</mask>
				<path id="Fill-15" class="st3" d="M258.3-91.2C224.2-85,192.4-4.7,190.9,29.9c-3.2,70,89.9,203,124.7,251.3
					c72,100,256.4,46.2,182.7-111.2C428.9,22.2,355-92.6,273.9-92.6C268.7-92.6,263.5-92.2,258.3-91.2"/>
			</g>
			<g id="Group-218" transform="translate(-0.000000, 203.500000)">
				<path id="Fill-21" class="st4" d="M697.4,742.6c-26.3,63,30.8,236.9,113.6,248.2c62.7,8.6,102.3-32.3,86.5-129.9
					c-15.7-97.7,1.9-169.9-42.3-190.3C815.9,652.4,714.1,702.5,697.4,742.6"/>
				<path id="Fill-23" class="st5" d="M933.5,718.3C916.1,780.8,990.3,938,1069.6,939c60.2,0.7,92.6-42.4,66.4-132.6
					c-26.3-90.2-18.1-160.3-62.1-174.4C1034.6,619.4,944.5,678.5,933.5,718.3"/>
				<path id="Fill-25" class="st6" d="M529.9,423.7c-35.2,109,84.7,391.9,224.8,399.3c106.2,5.6,166.6-68.3,126.6-229.4
					c-40-161.1-20.6-284.4-97.3-312.3C715.5,256.4,552.2,354.3,529.9,423.7"/>
				<path id="Fill-27" class="st7" d="M910,91.9c78.2,14.5,122.6,166.5,132.8,289.5c15.5,187.7-45.7,369.8-45.7,369.8
					S859.3,643.5,822.7,385.3c-14.1-99.7-7.1-194.3,27.2-245.7C860.5,123.6,891.1,88.4,910,91.9"/>
				<path id="Fill-38" class="st8" d="M918.6,721.8c14.9,41.1,117.1,98.2,161,67.6c33.3-23.2,34.2-59.6-15.5-98.8
					c-49.7-39.2-72.7-80.8-102.3-71.3C935.4,627.9,909.1,695.7,918.6,721.8"/>
			</g>
		</g>
	</g>
	<g id="Group-37" transform="translate(324.065787, 836.738095)">
		<g id="Clip-36">
		</g>
		<defs>
			<filter id="Adobe_OpacityMaskFilter_1_" filterUnits="userSpaceOnUse" x="-195" y="-341.6" width="393.7" height="268.4">
				<feColorMatrix  type="matrix" values="1 0 0 0 0  0 1 0 0 0  0 0 1 0 0  0 0 0 1 0"/>
			</filter>
		</defs>
		<mask maskUnits="userSpaceOnUse" x="-195" y="-341.6" width="393.7" height="268.4" id="mask-4_2_">
			<g class="st9">
				<polygon id="path-3_2_" class="st2" points="219.6,-199.5 127.6,-388.3 -225.5,-216.1 -133.4,-27.4 				"/>
			</g>
		</mask>
		<path id="Fill-35" class="st10" d="M9.4-329.5c-16.6,5.8-117.1,52.8-144.4,92.8c-27.3,40.1-60.1,82.9-60.1,82.9
			s95.4-29.1,142.4-72.2c28.3-25.9,64.3-70.3,64.3-70.3s-49.2,70.4-57,109.4c-7.9,39,4.9,113.7,4.9,113.7s58.5-88,70.4-124.6
			c11.9-36.6,17.9-91.8,17.9-91.8s0.8,22.3,4.1,65.2c3.4,42.9,28.4,92.8,28.4,92.8s31.6-46,28.1-98.1c-2.3-33.6-14-62.6-14-62.6
			s10.4,17.3,37.9,39.4c27.4,22.1,66.4,40.6,66.4,40.6s-0.9-48.4-27.4-80.3c-13.1-15.7-28.3-25.1-46.2-33.7
			C94.3-341.1,68.5-350.2,9.4-329.5"/>
	</g>
</g>
</svg>
