<svg height="409" width="285" xmlns="http://www.w3.org/2000/svg"><mask
    id="a"
    fill="#fff"
  ><path d="M.924.622H69.64v23.912H.924z" fill-rule="evenodd" /></mask><mask
    id="b"
    fill="#fff"
  ><path d="M0 .459h23.88v68.812H0z" fill-rule="evenodd" /></mask><mask
    id="c"
    fill="#fff"
  ><path d="M0 .061h23.88v68.812H0z" fill-rule="evenodd" /></mask><g
    fill="none"
    fill-rule="evenodd"
  ><path d="M285 250.595V349L63 248.404V150z" fill="#e04459" /><path
      d="M269.362 273.014c-1.559-8.021-5.808-17.565-14.974-18.78-4.791-.637-9.019.53-13.626 1.807-8.84 2.453-10.521-4.404-15.168-9.68-6.56-7.443-14.287-6.68-23.041-3.767-6.569 2.188-10.926 1.93-14.849-4.158-2.448-3.802-4.408-7.734-7.218-11.306-4.978-6.334-13.168-6.745-20.326-4.842-9.655 2.567-21.78 13.625-27.439-.36-3.457-8.551-8.428-16.061-17.618-19.207-4.4-1.506-8.577-2.066-13.218-1.614-2.393.234-4.738.91-7.06 1.488-7.313 1.827-10.988-1.792-13.211-8.249-1.908-5.544-10.74-3.162-8.812 2.433 3.091 8.983 7.316 15.32 17.436 15.828 5.55.28 10.908-2.634 16.525-2.546 8.475.132 14.342 7.108 17.146 14.299 3.074 7.888 7.463 13.491 16.333 14.035 8.31.508 16.519-5.731 24.298-7.8 10.343-2.748 14.098 12.048 19.526 18.074 6.265 6.953 15.626 4.512 23.272 1.967 13.945-4.642 12.825 11.563 23.75 14.445 4.214 1.113 7.89.777 12.103-.215 3.002-.705 5.615-1.62 8.748-1.805 6.087-.362 7.808 8.253 8.608 12.386 1.126 5.79 9.933 3.333 8.815-2.433M269.362 303.584c-1.559-8.023-5.808-17.565-14.974-18.78-4.791-.637-9.019.53-13.626 1.806-8.84 2.454-10.521-4.405-15.168-9.678-6.56-7.445-14.287-6.682-23.041-3.768-12.222 4.069-14.26-3.734-20.594-11.807-4.208-5.367-10.227-8.616-17.203-7.136-4.897 1.039-8.944 3.21-13.106 5.955-2.906 1.915-8.628 7.14-12.437 3.917-2.871-2.427-3.675-7.4-4.766-10.8-2.966-9.23-9.205-13.71-18.734-14.017-8.91-.286-13.737 2.257-19.948-6.525-2.895-4.09-6.5-5.62-11.276-5.902-5.891-.349-5.859 8.807 0 9.153 3.747.22 8.787 8.794 12.307 11.002 3.249 2.04 7.834 1.95 11.494 1.854 7.393-.197 14.028-1.824 17.342 6.868 1.62 4.244 2.592 8.302 4.997 12.21 13.06 21.212 32.834-17.043 45.11.319 3.75 5.303 6.55 10.804 12.458 14.035 8.322 4.55 16.581-1.54 24.879-2.384 5.492-.559 8.2 7.425 11.123 10.665 2.704 2.996 5.351 4.674 9.239 5.7 3.893 1.027 8.524-.494 12.247-1.526 9.133-2.534 13.252 2.97 14.862 11.272 1.126 5.79 9.933 3.333 8.815-2.433"
      fill="#241f20"
    /><path
      d="M284.581 149.59V51.473L62.404 151.775v98.115z"
      fill="#ebc617"
    /><path
      d="M281.51 181.972a19.219 19.219 0 013.49-.072v36.155a27.03 27.03 0 01-5.514-.085c-4.06-.469-7.659-2.34-10.083-5.261-1.886-.72-3.507-1.918-4.644-3.677-.743-1.15-1.278-2.37-1.677-3.62-.597-1.128-.874-2.462-.717-3.961-.411-7.6 4.437-15.333 11.94-17.233a20.314 20.314 0 017.205-2.246z"
      fill="#100806"
    /><path
      d="M10.01 21.381c.871-2.542 4.23-13.529 9.913-8.836 1.628 1.344 2.87 3.617 4.13 5.307 2.269 3.043 4.874 5.095 8.614 5.845 4.391.882 8.051-1.848 10.957-4.743 1.484-1.48 2.559-3.556 3.642-5.323 6.998-11.41 12.264 2.617 13.358 6.404 1.636 5.659 10.456 3.25 8.813-2.433-1.859-6.432-5.385-14.657-12.701-16.433-9.215-2.237-14.163 2.627-18.737 10.085-4.6 7.502-9.01-2.295-11.613-5.18-2.201-2.44-5.723-3.802-8.952-3.802-9.334 0-13.673 9.192-16.239 16.676-1.919 5.598 6.914 7.982 8.815 2.433"
      fill="#231f1f"
      mask="url(#a)"
      transform="translate(112.972 384.37)"
    /><path
      d="M3.149 9.556c2.538.872 13.51 4.238 8.822 9.928-1.34 1.63-3.61 2.873-5.297 4.134-3.04 2.274-5.088 4.883-5.838 8.627-.882 4.398 1.846 8.062 4.737 10.973 1.475 1.486 3.55 2.563 5.315 3.648 11.394 7.006-2.613 12.28-6.396 13.375-5.65 1.638-3.243 10.47 2.43 8.827 6.424-1.863 14.637-5.394 16.41-12.72 2.234-9.229-2.622-14.182-10.07-18.763-7.492-4.607 2.292-9.022 5.173-11.63 2.437-2.203 3.796-5.73 3.796-8.964 0-9.347-9.179-13.691-16.653-16.26-5.59-1.922-7.97 6.921-2.43 8.825"
      fill="#e04459"
      mask="url(#b)"
      transform="translate(0 249.431)"
    /><path
      d="M122.982 21.094c.871-2.542 4.23-13.53 9.913-8.837 1.628 1.344 2.87 3.616 4.13 5.308 2.269 3.042 4.874 5.093 8.614 5.844 4.391.882 8.051-1.848 10.957-4.743 1.484-1.479 2.56-3.556 3.643-5.322 6.997-11.41 12.263 2.617 13.358 6.403 1.636 5.66 10.456 3.25 8.813-2.433-1.86-6.432-5.386-14.656-12.702-16.432-9.215-2.237-14.163 2.626-18.737 10.085-4.6 7.502-9.01-2.296-11.613-5.181-2.201-2.44-5.722-3.802-8.952-3.802-9.333 0-13.673 9.192-16.238 16.677-1.92 5.598 6.913 7.98 8.814 2.433"
      fill="#e04459"
    /><path
      d="M3.149 9.16c2.538.871 13.51 4.235 8.822 9.926-1.34 1.63-3.61 2.874-5.297 4.137-3.04 2.272-5.088 4.88-5.838 8.625-.882 4.398 1.846 8.062 4.737 10.973 1.475 1.486 3.55 2.563 5.315 3.646 11.394 7.008-2.613 12.281-6.396 13.378-5.65 1.637-3.243 10.47 2.43 8.825 6.424-1.862 14.637-5.393 16.41-12.719 2.234-9.229-2.622-14.183-10.07-18.763-7.492-4.607 2.292-9.022 5.173-11.63 2.437-2.203 3.796-5.73 3.796-8.965 0-9.346-9.179-13.692-16.653-16.26-5.59-1.921-7.97 6.922-2.43 8.826"
      fill="#241f20"
      mask="url(#c)"
      transform="translate(0 89.596)"
    /></g></svg>
